{"glyphs":{"0":{"ha":833,"x_min":0,"x_max":0,"o":"m 718 499 b 610 810 718 625 679 738 b 417 886 563 860 496 886 b 224 810 338 886 271 860 b 115 499 154 738 115 625 l 115 367 b 224 56 115 240 154 128 b 417 -21 271 6 338 -21 b 610 56 496 -21 563 6 b 718 367 679 128 718 240 z m 254 508 b 417 747 254 653 318 747 b 579 508 515 747 579 653 l 579 357 b 417 118 579 213 515 118 b 254 357 318 118 254 213 z "},"1":{"ha":833,"x_min":0,"x_max":0,"o":"m 486 886 l 192 810 b 118 739 136 796 118 779 b 182 667 118 699 146 667 b 226 675 196 667 200 668 l 347 707 l 347 139 l 207 139 b 149 129 171 139 161 138 b 115 69 128 117 115 93 b 144 14 115 49 126 26 b 207 0 156 4 175 0 l 626 0 b 718 69 688 0 718 24 b 689 126 718 92 708 113 b 626 139 675 136 664 139 l 486 139 z "},"2":{"ha":833,"x_min":0,"x_max":0,"o":"m 288 139 l 301 151 b 699 618 664 458 699 499 b 403 886 699 771 572 886 b 186 808 321 886 242 858 b 103 653 139 765 103 697 b 172 586 103 617 135 586 b 235 626 201 586 228 603 b 265 690 250 671 251 674 b 400 747 296 726 344 747 b 560 622 490 747 560 693 b 460 476 560 579 546 560 b 97 165 369 390 363 385 l 75 146 l 75 0 l 706 0 l 706 122 b 696 181 706 156 703 168 b 636 214 683 201 660 214 b 567 139 593 214 571 189 z "},"3":{"ha":833,"x_min":0,"x_max":0,"o":"m 383 532 b 311 463 342 532 311 503 b 383 399 311 425 338 401 b 490 381 444 396 461 393 b 596 253 556 354 596 306 b 557 165 596 221 581 188 b 371 118 519 131 468 118 b 206 150 282 118 242 125 b 161 167 183 164 178 167 b 92 97 122 167 92 136 b 375 -21 92 26 204 -21 b 632 44 497 -21 571 -1 b 735 253 696 94 735 172 b 578 463 735 342 683 411 b 704 644 668 517 704 568 b 635 806 704 703 679 763 b 418 886 582 860 511 886 b 132 732 268 886 132 813 b 200 663 132 693 163 663 b 250 683 219 663 238 669 b 410 747 294 732 332 747 b 565 642 506 747 565 707 b 439 532 565 583 507 532 z "},"4":{"ha":833,"x_min":0,"x_max":0,"o":"m 621 864 l 439 864 l 104 307 l 104 192 l 482 192 l 482 139 l 429 139 b 371 129 396 139 383 138 b 338 69 350 117 338 93 b 365 14 338 47 349 26 b 429 0 378 4 397 0 l 613 0 b 672 10 642 0 663 4 b 706 69 693 24 706 46 b 621 139 706 114 675 139 l 621 192 b 706 261 676 193 706 217 b 621 331 706 306 675 331 z m 482 331 l 274 331 l 482 667 z "},"5":{"ha":833,"x_min":0,"x_max":0,"o":"m 304 725 l 585 725 b 643 735 614 725 633 728 b 676 794 664 747 676 771 b 649 851 676 817 667 838 b 585 864 635 861 622 864 l 165 864 l 165 469 b 235 392 165 424 194 392 b 274 403 249 392 254 393 b 440 450 333 433 394 450 b 596 279 533 450 596 382 b 385 118 596 169 529 118 b 211 164 293 118 253 129 b 161 185 190 181 181 185 b 92 117 124 185 92 154 b 386 -21 92 39 218 -21 b 658 74 517 -21 597 7 b 735 281 708 128 735 200 b 442 589 735 458 611 589 b 304 565 400 589 357 582 z "},"6":{"ha":833,"x_min":0,"x_max":0,"o":"m 289 450 b 379 639 304 533 329 585 b 596 743 440 707 517 743 b 631 736 610 743 614 742 b 679 725 653 728 667 725 b 750 796 718 725 750 757 b 588 886 750 850 685 886 b 253 714 460 886 346 828 b 146 396 182 625 146 519 b 207 121 146 296 169 188 b 460 -21 260 26 343 -21 b 671 61 553 -21 621 6 b 743 263 718 114 743 183 b 479 547 743 421 625 547 b 289 450 408 547 356 521 z m 303 290 b 469 408 340 360 410 408 b 604 264 544 408 604 344 b 464 118 604 174 551 118 b 303 290 374 118 324 171 z "},"7":{"ha":833,"x_min":0,"x_max":0,"o":"m 560 725 l 351 113 b 342 65 344 89 342 78 b 413 -1 342 29 375 -1 b 485 67 449 -1 467 17 l 706 726 l 706 864 l 104 864 l 104 742 b 114 683 104 708 107 696 b 174 650 126 663 150 650 b 243 725 217 650 239 675 z "},"8":{"ha":833,"x_min":0,"x_max":0,"o":"m 583 443 b 706 635 667 499 706 558 b 417 886 706 774 576 886 b 128 632 254 886 128 774 b 250 443 128 558 167 499 b 115 229 160 386 115 315 b 415 -21 115 81 238 -21 b 718 229 596 -21 718 81 b 583 443 718 315 674 386 z m 417 747 b 567 625 507 747 567 699 b 417 506 567 556 504 506 b 267 626 328 506 267 556 b 417 747 267 697 328 747 z m 417 365 b 579 239 508 365 579 310 b 417 118 579 168 511 118 b 254 240 321 118 254 168 b 417 365 254 310 326 365 z "},"9":{"ha":833,"x_min":0,"x_max":0,"o":"m 608 415 b 518 226 593 332 568 281 b 301 122 457 158 381 122 b 267 129 288 122 283 124 b 218 140 244 138 231 140 b 147 69 179 140 147 108 b 310 -21 147 15 213 -21 b 644 151 438 -21 551 38 b 751 469 715 240 751 346 b 690 744 751 569 728 678 b 438 886 638 839 554 886 b 226 804 344 886 276 860 b 154 603 179 751 154 682 b 418 318 154 444 272 318 b 608 415 489 318 542 344 z m 594 575 b 428 457 557 506 488 457 b 293 601 353 457 293 521 b 433 747 293 692 346 747 b 594 575 524 747 574 694 z "}," ":{"ha":833,"x_min":0,"x_max":0,"o":""},"!":{"ha":833,"x_min":0,"x_max":0,"o":"m 526 729 b 529 775 528 747 529 767 b 418 886 529 839 482 886 b 306 775 353 886 306 839 b 308 729 306 765 307 746 l 349 317 b 418 249 353 274 378 249 b 486 317 457 249 482 274 z m 429 -21 b 521 71 481 -21 521 19 b 429 163 521 122 481 163 l 406 163 b 313 71 354 163 313 121 b 406 -21 313 21 354 -21 z "},"\"":{"ha":833,"x_min":0,"x_max":0,"o":"m 189 836 l 236 482 b 279 433 240 447 253 433 b 324 483 307 433 318 447 l 367 836 z m 467 836 l 514 482 b 557 433 518 447 531 433 b 601 483 585 433 596 447 l 644 836 z "},"#":{"ha":833,"x_min":0,"x_max":0,"o":"m 621 617 l 636 840 l 639 871 b 569 938 642 903 606 938 b 514 911 549 938 528 928 b 499 850 503 897 500 889 l 482 617 l 383 617 l 399 840 l 400 865 b 331 938 401 906 371 938 b 275 911 310 938 289 928 b 260 850 264 896 261 886 l 243 617 l 207 617 b 147 607 169 617 160 615 b 114 547 126 594 114 571 b 143 490 114 525 125 504 b 207 478 157 481 169 478 l 233 478 l 224 331 l 178 331 b 119 321 142 331 132 329 b 86 263 99 308 86 286 b 115 206 86 240 97 219 b 178 193 129 196 143 193 l 214 193 l 199 -31 b 197 -56 197 -40 197 -50 b 267 -128 197 -97 226 -128 b 336 -40 313 -128 336 -97 l 353 193 l 453 193 l 438 -31 l 435 -57 b 503 -128 432 -93 465 -128 b 557 -101 524 -128 543 -118 b 575 -40 564 -93 574 -62 l 590 193 l 628 193 b 686 203 660 193 674 196 b 719 261 707 215 719 238 b 690 318 719 283 708 304 b 626 331 678 328 664 331 l 600 331 l 611 478 l 656 478 b 714 488 689 478 701 481 b 747 547 735 500 747 524 b 718 604 747 569 736 590 b 656 617 704 614 693 617 z m 472 478 l 463 331 l 363 331 l 374 478 z "},"$":{"ha":833,"x_min":0,"x_max":0,"o":"m 488 858 b 478 917 488 894 486 904 b 419 950 465 938 443 950 b 363 922 397 950 376 939 b 350 858 353 908 350 896 l 350 822 b 149 604 231 801 149 713 b 360 389 149 492 222 417 l 463 368 b 574 278 542 353 574 326 b 418 172 574 217 507 172 b 256 250 339 172 267 207 b 235 299 244 288 244 288 b 185 318 222 311 203 318 b 128 289 163 318 142 308 b 115 225 118 275 115 264 l 115 140 b 125 81 115 106 118 93 b 186 47 139 60 161 47 b 240 72 206 47 218 53 b 350 38 285 53 292 50 l 350 -78 b 360 -137 350 -112 351 -125 b 419 -171 372 -158 396 -171 b 475 -142 440 -171 461 -160 b 488 -78 486 -128 488 -117 l 488 38 b 718 276 632 65 718 154 b 660 428 718 336 697 390 b 488 504 624 464 574 486 l 397 524 b 293 601 326 538 293 564 b 431 688 293 654 347 688 b 547 638 489 688 543 665 b 619 579 556 600 581 579 b 676 608 642 579 663 589 b 689 671 686 622 689 632 l 689 715 b 619 807 689 778 667 807 b 581 797 606 807 597 804 b 568 801 575 799 569 800 b 535 813 557 804 546 808 b 488 822 526 815 510 819 z "},"%":{"ha":833,"x_min":0,"x_max":0,"o":"m 317 857 b 124 664 210 857 124 769 b 318 469 124 557 211 469 b 511 661 424 469 511 556 b 317 857 511 771 426 857 z m 317 767 b 421 663 375 767 421 721 b 317 560 421 606 374 560 b 214 664 261 560 214 607 b 317 767 214 719 260 767 z m 682 460 b 724 503 713 469 724 481 b 683 547 724 526 706 547 b 656 542 675 547 672 547 l 153 378 b 111 335 121 368 111 357 b 151 290 111 311 129 290 b 179 296 158 290 168 292 z m 511 367 b 318 174 404 367 318 279 b 513 -21 318 67 406 -21 b 706 171 618 -21 706 65 b 511 367 706 281 621 367 z m 511 276 b 615 172 569 276 615 231 b 513 69 615 115 568 69 b 408 174 456 69 408 117 b 511 276 408 231 454 276 z "},"&":{"ha":833,"x_min":0,"x_max":0,"o":"m 507 275 l 368 476 b 329 556 342 514 329 540 b 403 625 329 594 363 625 b 490 578 431 625 450 614 l 547 608 b 604 681 592 633 604 649 b 538 750 604 717 572 750 b 499 740 529 750 515 746 b 401 764 463 757 435 764 b 190 556 289 764 190 667 b 238 421 190 511 199 486 b 104 200 151 371 104 293 b 358 -19 104 67 203 -19 b 514 21 432 -19 472 -8 l 529 0 l 614 0 b 706 69 675 0 706 22 b 678 125 706 92 696 113 b 614 139 663 136 651 139 l 603 139 b 644 250 619 168 629 193 b 704 318 679 253 704 281 b 676 375 704 342 694 361 b 613 389 663 386 650 389 l 539 389 z m 433 138 b 357 119 406 124 392 119 b 243 200 281 119 243 146 b 317 306 243 246 268 282 z "},"’":{"ha":833,"x_min":0,"x_max":0,"o":"m 304 865 l 208 525 b 204 499 204 510 204 507 b 247 460 204 478 224 460 b 292 493 264 460 279 471 l 488 865 z "},"(":{"ha":833,"x_min":0,"x_max":0,"o":"m 607 878 b 528 817 576 878 560 865 b 367 338 426 664 367 486 b 515 -132 367 185 417 25 b 608 -212 556 -197 574 -212 b 678 -144 647 -212 678 -183 b 661 -97 678 -126 675 -119 b 521 333 564 58 521 192 b 661 763 521 474 564 607 b 678 810 675 785 678 793 b 607 878 678 849 647 878 z "},")":{"ha":833,"x_min":0,"x_max":0,"o":"m 232 878 b 163 810 193 878 163 849 b 179 763 163 792 165 785 b 319 332 276 607 319 474 b 179 -97 319 192 276 58 b 163 -144 165 -119 163 -128 b 233 -212 163 -183 193 -212 b 313 -151 264 -212 281 -200 b 474 328 414 1 474 179 b 325 797 474 481 424 640 b 232 878 285 863 267 878 z "},"*":{"ha":833,"x_min":0,"x_max":0,"o":"m 304 517 l 232 418 b 206 358 211 388 206 376 b 275 289 206 321 236 289 b 344 336 304 289 315 297 l 417 436 l 489 336 b 558 289 518 296 529 289 b 628 358 597 289 628 321 b 601 418 628 376 622 389 l 529 517 l 649 556 b 718 628 700 571 718 592 b 651 697 718 665 688 697 b 606 688 639 697 635 696 l 486 649 l 486 772 b 476 831 486 806 483 818 b 417 864 464 851 440 864 b 360 836 394 864 374 853 b 347 772 350 822 347 808 l 347 649 l 228 688 b 181 697 199 696 194 697 b 115 629 146 697 115 665 b 185 556 115 590 133 571 z "},"+":{"ha":833,"x_min":0,"x_max":0,"o":"m 486 319 l 682 319 b 742 329 714 319 731 322 b 775 389 763 342 775 365 b 746 446 775 411 764 432 b 682 458 732 456 721 458 l 486 458 l 486 686 b 476 744 486 722 485 732 b 417 778 464 765 442 778 b 361 750 394 778 374 768 b 347 686 350 736 347 722 l 347 458 l 150 458 b 92 449 115 458 104 457 b 58 389 71 436 58 413 b 88 333 58 367 69 346 b 150 319 100 322 117 319 l 347 319 l 347 92 b 357 33 347 60 350 46 b 417 0 369 13 393 0 b 474 29 439 0 460 11 b 486 92 483 43 486 54 z "},",":{"ha":833,"x_min":0,"x_max":0,"o":"m 304 186 l 208 -154 b 204 -181 204 -169 204 -172 b 247 -219 204 -201 224 -219 b 292 -186 264 -219 279 -208 l 488 186 z "},"-":{"ha":833,"x_min":0,"x_max":0,"o":"m 683 318 b 742 328 714 318 731 321 b 775 388 763 340 775 364 b 747 444 775 410 765 431 b 683 457 733 454 719 457 l 150 457 b 92 447 115 457 103 456 b 58 388 71 433 58 411 b 88 331 58 365 69 344 b 150 318 100 321 115 318 z "},".":{"ha":833,"x_min":0,"x_max":0,"o":"m 429 -21 b 521 71 481 -21 521 19 b 429 163 521 122 481 163 l 404 163 b 313 71 354 163 313 122 b 404 -21 313 19 354 -21 z "},"/":{"ha":833,"x_min":0,"x_max":0,"o":"m 701 847 b 718 899 715 875 718 885 b 650 965 718 935 686 965 b 578 904 615 965 599 951 l 132 -37 b 115 -90 119 -62 115 -76 b 185 -157 115 -125 149 -157 b 257 -96 219 -157 235 -143 z "},":":{"ha":833,"x_min":0,"x_max":0,"o":"m 429 -21 b 521 71 481 -21 521 19 b 429 163 521 122 481 163 l 404 163 b 313 71 354 163 313 122 b 404 -21 313 19 354 -21 z m 429 422 b 521 514 481 422 521 464 b 429 606 521 565 481 606 l 404 606 b 313 514 354 606 313 565 b 404 422 313 464 354 422 z "},";":{"ha":833,"x_min":0,"x_max":0,"o":"m 304 186 l 208 -154 b 204 -181 204 -169 204 -172 b 247 -219 204 -201 224 -219 b 292 -186 264 -219 279 -208 l 488 186 z m 383 607 b 279 515 321 607 279 569 b 383 422 279 460 321 422 b 488 514 446 422 488 458 b 383 607 488 571 447 607 z "},"<":{"ha":833,"x_min":0,"x_max":0,"o":"m 349 388 l 711 572 b 756 632 743 589 756 606 b 749 658 756 640 753 650 l 747 661 b 697 696 739 681 717 696 b 656 683 686 696 672 692 l 58 389 l 656 88 b 697 75 671 79 686 75 b 747 110 717 75 739 90 l 749 113 b 756 139 753 122 756 132 b 711 199 756 165 743 182 z "},"=":{"ha":833,"x_min":0,"x_max":0,"o":"m 150 586 b 92 576 115 586 104 585 b 58 517 71 564 58 540 b 88 461 58 494 69 474 b 150 447 100 450 117 447 l 683 447 b 742 457 714 447 731 450 b 775 517 763 469 775 493 b 747 574 775 539 764 560 b 683 586 732 583 721 586 z m 150 331 b 92 321 115 331 104 329 b 58 261 71 308 58 285 b 88 206 58 239 69 218 b 150 192 100 194 117 192 l 683 192 b 742 201 714 192 731 194 b 775 261 763 214 775 238 b 747 318 775 283 764 304 b 683 331 732 328 721 331 z "},">":{"ha":833,"x_min":0,"x_max":0,"o":"m 485 382 l 122 197 b 78 139 90 181 78 164 b 85 111 78 129 81 121 l 86 108 b 136 74 94 89 117 74 b 178 86 146 74 161 78 l 775 381 l 178 682 b 136 694 163 690 147 694 b 86 660 117 694 93 679 l 85 657 b 78 629 81 647 78 638 b 122 572 78 604 90 588 z "},"?":{"ha":833,"x_min":0,"x_max":0,"o":"m 144 639 b 154 581 144 607 147 592 b 214 547 167 560 190 547 b 269 575 236 547 257 558 b 283 639 281 590 283 600 l 283 658 b 429 692 329 681 376 692 b 579 575 518 692 579 644 b 351 411 579 515 529 479 l 351 333 b 361 275 351 301 354 286 b 421 242 374 254 397 242 b 490 317 461 242 485 267 b 718 568 658 390 718 456 b 428 831 718 724 600 831 b 144 749 339 831 279 814 z m 432 -21 b 524 71 483 -21 524 19 b 432 163 524 122 483 163 l 408 163 b 315 71 357 163 315 121 b 408 -21 315 21 357 -21 z "},"@":{"ha":833,"x_min":0,"x_max":0,"o":"m 565 551 b 303 314 410 540 303 443 b 519 100 303 197 401 100 b 565 104 532 100 544 101 l 565 100 l 631 100 b 707 157 682 100 707 118 b 675 206 707 181 697 196 l 675 596 b 418 861 675 750 568 861 b 106 449 238 861 106 688 l 106 214 b 171 -61 106 113 129 14 b 419 -210 229 -164 306 -210 b 665 -92 553 -210 665 -156 b 610 -35 665 -60 642 -35 b 567 -58 594 -35 586 -39 b 424 -101 540 -85 486 -101 b 286 -33 361 -101 319 -81 b 215 224 239 32 215 119 l 215 440 b 421 751 215 618 303 751 b 565 596 506 751 565 688 z m 565 215 b 529 213 547 213 540 213 b 413 313 463 213 413 256 b 565 439 413 381 474 431 z "},"A":{"ha":833,"x_min":0,"x_max":0,"o":"m 578 219 l 610 139 l 578 139 b 519 129 542 139 532 138 b 486 69 499 117 486 93 b 514 14 486 47 497 26 b 578 0 528 4 544 0 l 771 0 b 863 69 832 0 863 22 b 835 126 863 92 853 113 b 768 139 819 136 807 139 l 492 810 l 192 810 b 132 800 154 810 144 808 b 99 740 111 786 99 764 b 128 683 99 718 110 697 b 192 671 142 674 156 671 l 279 671 l 64 139 b 4 129 29 139 17 138 b -29 69 -17 117 -29 93 b 63 0 -29 22 1 0 l 247 0 b 306 10 276 0 294 3 b 339 69 326 24 339 46 b 311 126 339 92 329 113 b 247 139 296 136 285 139 l 215 139 l 247 219 z m 521 358 l 303 358 l 413 625 z "},"B":{"ha":833,"x_min":0,"x_max":0,"o":"m 131 139 l 110 139 b 51 129 76 139 64 138 b 18 69 31 117 18 93 b 47 14 18 49 29 26 b 110 0 58 4 78 0 l 519 0 b 793 222 683 0 793 89 b 646 424 793 310 746 374 b 733 581 708 471 733 517 b 461 810 733 713 618 810 l 110 810 b 51 800 76 810 64 808 b 18 740 31 788 18 764 b 47 683 18 718 29 697 b 110 671 60 674 75 671 l 131 671 z m 269 475 l 269 671 l 454 671 b 594 582 542 671 594 638 b 426 475 594 518 526 475 z m 269 139 l 269 336 l 457 336 b 594 306 515 336 560 326 b 654 214 631 283 654 247 b 513 139 654 164 607 139 z "},"C":{"ha":833,"x_min":0,"x_max":0,"o":"m 46 346 b 456 -19 46 133 218 -19 b 710 50 556 -19 649 6 b 783 151 758 83 783 119 b 714 221 783 189 751 221 b 664 199 696 221 679 214 b 611 151 626 160 626 160 b 458 119 576 131 521 119 b 185 349 292 119 185 210 l 185 438 b 429 690 185 585 288 690 b 564 657 476 690 526 678 b 625 583 604 635 618 617 b 693 510 633 529 653 510 b 750 539 715 510 736 521 b 763 601 760 551 763 565 l 763 718 b 753 776 763 753 761 764 b 693 810 740 797 718 810 b 635 776 669 810 653 801 b 424 829 538 821 501 829 b 46 438 208 829 46 661 z "},"D":{"ha":833,"x_min":0,"x_max":0,"o":"m 103 139 b 18 69 49 139 18 114 b 47 14 18 49 29 26 b 111 0 60 4 78 0 l 394 0 b 764 358 611 -7 763 142 l 764 424 b 406 810 764 640 606 813 l 111 810 b 51 800 74 810 64 808 b 18 740 31 788 18 764 b 103 671 18 696 49 671 z m 242 139 l 242 671 l 394 671 b 625 426 525 676 622 574 l 625 363 b 396 139 626 221 536 133 z "},"E":{"ha":833,"x_min":0,"x_max":0,"o":"m 269 338 l 388 338 l 388 328 b 397 269 388 294 389 282 b 456 236 410 249 432 236 b 513 264 478 236 499 246 b 525 328 522 278 525 290 l 525 485 b 519 535 525 514 524 522 b 456 578 511 560 483 578 b 400 549 435 578 414 567 b 388 485 390 535 388 522 l 388 475 l 269 475 l 269 671 l 594 671 l 594 601 b 604 542 594 568 597 554 b 664 508 618 521 640 508 b 721 538 686 508 707 519 b 733 601 731 551 733 563 l 733 810 l 110 810 b 51 800 74 810 64 808 b 18 740 31 786 18 764 b 47 683 18 718 28 697 b 110 671 60 674 75 671 l 131 671 l 131 139 l 110 139 b 51 129 75 139 64 138 b 18 69 31 115 18 93 b 47 14 18 47 28 26 b 110 0 58 4 78 0 l 764 0 l 764 211 b 754 271 764 244 761 260 b 694 304 740 292 718 304 b 638 276 672 304 651 294 b 625 211 628 261 625 250 l 625 139 l 269 139 z "},"F":{"ha":833,"x_min":0,"x_max":0,"o":"m 269 338 l 388 338 l 388 328 b 397 268 388 294 389 281 b 456 235 410 247 432 235 b 513 264 478 235 499 246 b 525 328 522 278 525 290 l 525 485 b 515 543 525 519 524 529 b 456 576 503 564 481 576 b 400 547 433 576 413 565 b 388 485 390 535 388 519 l 388 475 l 269 475 l 269 671 l 625 671 l 625 600 b 635 542 625 568 628 553 b 694 508 649 521 671 508 b 751 536 717 508 738 518 b 764 600 761 551 764 563 l 764 810 l 110 810 b 51 800 74 810 64 808 b 18 740 31 788 18 764 b 47 683 18 718 29 697 b 110 671 60 674 75 671 l 131 671 l 131 139 l 110 139 b 51 129 76 139 64 138 b 18 69 31 117 18 93 b 47 14 18 47 29 26 b 110 0 58 4 78 0 l 408 0 b 500 69 469 0 500 24 b 472 126 500 92 490 113 b 408 139 457 136 446 139 l 269 139 z "},"G":{"ha":833,"x_min":0,"x_max":0,"o":"m 764 250 b 822 319 803 261 822 285 b 793 376 822 342 813 363 b 729 389 779 386 767 389 l 486 389 b 428 379 451 389 440 388 b 394 319 407 367 394 343 b 424 264 394 297 404 276 b 486 250 436 253 451 250 l 625 250 l 625 154 b 451 119 571 129 518 119 b 247 181 364 119 294 140 b 185 351 204 217 185 271 l 185 440 b 258 625 185 510 213 579 b 442 690 301 668 364 690 b 626 611 543 690 613 660 b 646 558 638 568 638 568 b 694 538 657 546 676 538 b 751 567 717 538 738 549 b 764 629 763 581 764 590 l 764 738 b 754 796 764 771 763 782 b 699 829 744 817 722 829 b 642 785 672 829 658 818 b 440 829 582 815 515 829 b 163 722 326 829 236 794 b 46 440 88 649 46 546 l 46 342 b 138 90 46 244 81 149 b 460 -19 206 21 324 -19 b 764 67 569 -19 639 0 z "},"H":{"ha":833,"x_min":0,"x_max":0,"o":"m 568 335 l 568 139 l 547 139 b 489 129 514 139 501 136 b 456 69 468 117 456 93 b 485 13 456 47 467 26 b 547 0 497 4 514 0 l 715 0 b 774 10 744 0 764 3 b 807 69 794 22 807 46 b 779 125 807 92 797 113 b 715 139 765 136 753 139 l 707 139 l 707 671 b 779 740 753 675 779 700 b 751 797 779 763 769 783 b 688 810 738 807 725 810 l 547 810 b 489 800 513 810 501 808 b 456 740 468 788 456 764 b 485 685 456 719 467 697 b 547 671 499 674 511 671 l 568 671 l 568 474 l 271 474 l 271 671 l 292 671 b 350 682 325 671 338 674 b 383 740 371 694 383 717 b 356 797 383 763 374 783 b 292 810 342 807 329 810 l 151 810 b 93 800 117 810 106 808 b 60 740 72 788 60 764 b 132 671 60 700 86 675 l 132 139 l 124 139 b 65 129 89 139 76 136 b 32 69 44 117 32 93 b 60 13 32 47 43 26 b 124 0 72 4 90 0 l 292 0 b 383 69 353 0 383 22 b 356 125 383 92 374 113 b 292 139 340 136 329 139 l 271 139 l 271 335 z "},"I":{"ha":833,"x_min":0,"x_max":0,"o":"m 486 671 l 626 671 b 685 681 658 671 674 674 b 718 740 706 694 718 717 b 689 797 718 763 708 783 b 626 810 675 807 664 810 l 207 810 b 149 800 171 810 161 808 b 115 740 128 788 115 764 b 143 683 115 718 126 697 b 207 671 157 674 172 671 l 347 671 l 347 139 l 207 139 b 149 129 171 139 161 138 b 115 69 128 117 115 93 b 207 0 115 24 146 0 l 626 0 b 718 69 688 0 718 24 b 689 126 718 92 708 113 b 626 139 675 136 664 139 l 486 139 z "},"J":{"ha":833,"x_min":0,"x_max":0,"o":"m 681 671 l 760 671 b 818 681 792 671 807 674 b 851 740 839 693 851 717 b 824 797 851 763 842 783 b 760 810 810 807 797 810 l 376 810 b 318 800 340 810 331 808 b 285 740 297 788 285 764 b 314 683 285 718 296 697 b 376 671 326 674 342 671 l 542 671 l 542 275 b 508 169 542 211 538 199 b 376 119 476 139 426 119 b 214 163 329 119 283 132 l 214 296 b 204 356 214 331 213 343 b 144 389 192 376 168 389 b 88 361 122 389 101 379 b 75 296 78 347 75 332 l 75 71 b 374 -19 203 8 294 -19 b 592 58 456 -19 532 8 b 681 260 657 115 681 168 z "},"K":{"ha":833,"x_min":0,"x_max":0,"o":"m 269 289 l 353 360 b 592 0 438 333 526 199 l 744 0 b 836 69 806 0 836 24 b 808 126 836 92 826 113 b 744 139 794 136 782 139 l 700 139 b 465 458 636 299 550 414 l 710 671 b 796 740 767 671 796 694 b 768 797 796 763 786 783 b 704 810 754 807 742 810 l 565 810 l 564 810 b 506 800 551 813 515 806 b 474 739 485 786 474 764 b 517 676 474 707 488 688 l 269 464 l 269 671 l 318 671 b 376 681 350 671 365 674 b 410 740 397 693 410 717 b 382 797 410 763 399 783 b 318 810 368 807 356 810 l 110 810 b 51 800 74 810 64 808 b 18 740 31 788 18 764 b 47 683 18 718 29 697 b 110 671 60 674 75 671 l 131 671 l 131 139 l 110 139 b 51 129 76 139 64 138 b 18 69 31 117 18 93 b 47 14 18 47 29 26 b 110 0 58 4 78 0 l 318 0 b 376 10 346 0 367 4 b 410 69 397 24 410 46 b 382 126 410 92 400 113 b 318 139 368 136 356 139 l 269 139 z "},"L":{"ha":833,"x_min":0,"x_max":0,"o":"m 356 671 l 435 671 b 493 681 467 671 482 674 b 526 740 514 694 526 717 b 497 797 526 763 517 783 b 435 810 483 807 472 810 l 138 810 b 79 800 101 810 92 808 b 46 740 58 788 46 764 b 74 683 46 718 56 697 b 138 671 88 674 103 671 l 217 671 l 217 139 l 138 139 b 79 129 101 139 92 138 b 46 69 58 117 46 94 b 138 0 46 24 76 0 l 793 0 l 793 267 b 783 326 793 301 792 314 b 724 360 769 347 749 360 b 667 331 701 360 681 350 b 654 267 657 317 654 306 l 654 139 l 356 139 z "},"M":{"ha":833,"x_min":0,"x_max":0,"o":"m 197 540 l 361 192 l 488 192 l 642 540 l 642 139 l 593 139 b 535 129 557 139 547 138 b 501 69 514 117 501 93 b 529 14 501 47 513 26 b 593 0 542 4 561 0 l 774 0 b 865 69 835 0 865 24 b 781 139 865 114 835 139 l 781 671 b 853 740 826 675 853 700 b 825 797 853 763 842 783 b 761 810 811 807 799 810 l 608 810 l 421 397 l 229 810 l 78 810 b 19 800 64 813 28 806 b -14 740 -1 786 -14 764 b 58 671 -14 700 13 675 l 58 139 b -26 69 4 139 -26 114 b 3 14 -26 47 -15 26 b 67 0 14 4 33 0 l 246 0 b 338 69 307 0 338 24 b 310 126 338 92 328 113 b 246 139 296 136 283 139 l 197 139 z "},"N":{"ha":833,"x_min":0,"x_max":0,"o":"m 240 547 l 600 0 l 738 0 l 738 671 b 822 740 793 671 822 696 b 794 797 822 763 813 783 b 731 810 779 807 768 810 l 550 810 b 492 800 514 810 504 808 b 458 740 471 788 458 764 b 486 683 458 718 469 697 b 550 671 500 674 514 671 l 599 671 l 599 265 l 240 810 l 81 810 b 22 800 44 810 35 808 b -11 740 1 788 -11 764 b 18 683 -11 718 0 697 b 81 671 31 674 46 671 l 101 671 l 101 139 b 17 69 46 139 17 114 b 46 14 17 47 28 26 b 110 0 57 4 76 0 l 289 0 b 381 69 350 0 381 24 b 353 126 381 92 371 113 b 289 139 339 136 326 139 l 240 139 z "},"O":{"ha":833,"x_min":0,"x_max":0,"o":"m 417 829 b 29 406 203 829 29 639 b 417 -19 29 171 203 -19 b 804 399 628 -19 804 171 b 674 722 804 532 761 639 b 417 829 600 792 510 829 z m 417 690 b 665 401 554 690 665 563 b 417 119 665 249 551 119 b 168 406 281 119 168 249 b 417 690 168 561 281 690 z "},"P":{"ha":833,"x_min":0,"x_max":0,"o":"m 269 278 l 406 278 b 665 369 535 278 604 301 b 735 547 710 418 735 483 b 433 810 735 701 610 810 l 110 810 b 51 800 74 810 64 808 b 18 740 31 788 18 764 b 47 683 18 718 29 697 b 110 671 60 674 75 671 l 131 671 l 131 139 l 110 139 b 51 129 76 139 64 138 b 18 69 31 117 18 93 b 47 14 18 49 29 26 b 110 0 58 4 78 0 l 407 0 b 499 69 468 0 499 24 b 471 126 499 92 489 113 b 407 139 456 136 444 139 l 269 139 z m 269 671 l 433 671 b 588 543 529 671 588 622 b 433 417 588 465 529 417 l 269 417 z "},"Q":{"ha":833,"x_min":0,"x_max":0,"o":"m 376 -8 b 401 -10 388 -10 399 -10 b 596 38 481 -10 543 6 b 804 408 728 118 804 253 b 417 829 804 639 629 829 b 29 406 203 829 29 639 b 90 172 29 321 51 240 b 276 10 129 107 172 69 l 190 -74 b 163 -126 168 -94 163 -106 b 229 -199 163 -167 193 -199 b 268 -192 238 -199 251 -196 b 443 -162 328 -176 414 -162 b 542 -186 475 -162 490 -167 b 617 -201 569 -197 590 -201 b 749 -160 661 -201 699 -189 b 801 -87 788 -136 801 -117 b 732 -18 801 -47 771 -18 b 675 -42 715 -18 707 -21 b 615 -62 649 -58 638 -62 b 558 -53 600 -62 590 -61 b 442 -35 513 -40 479 -35 b 371 -42 419 -35 404 -36 z m 417 690 b 665 400 554 690 665 561 b 417 118 665 247 551 118 b 168 404 281 118 168 247 b 417 690 168 561 281 690 z "},"R":{"ha":833,"x_min":0,"x_max":0,"o":"m 269 308 l 403 308 b 658 0 461 288 589 135 l 768 0 b 826 10 796 0 817 4 b 860 69 847 22 860 46 b 832 126 860 92 849 114 b 768 139 818 136 807 139 l 750 139 b 575 353 692 232 640 296 b 725 563 678 408 725 475 b 419 810 725 708 600 810 l 110 810 b 51 800 74 810 64 808 b 18 740 31 788 18 764 b 46 683 18 718 29 697 b 110 671 60 674 75 671 l 131 671 l 131 139 l 110 139 b 51 129 76 139 64 138 b 18 69 31 117 18 93 b 46 14 18 47 29 26 b 110 0 58 4 78 0 l 318 0 b 376 10 346 0 367 4 b 410 69 397 22 410 46 b 382 126 410 92 400 113 b 318 139 368 136 356 139 l 269 139 z m 269 447 l 269 671 l 425 671 b 578 567 514 671 578 626 b 375 447 578 497 492 447 z "},"S":{"ha":833,"x_min":0,"x_max":0,"o":"m 718 738 b 708 797 718 774 717 785 b 650 829 697 817 675 829 b 596 783 622 829 610 818 b 415 829 547 814 486 829 b 114 583 242 829 114 725 b 228 390 114 504 157 431 b 407 336 272 365 317 351 b 553 299 501 319 524 314 b 603 225 583 282 603 254 b 419 119 603 165 524 119 b 226 210 326 119 240 160 b 206 257 215 247 215 247 b 156 276 193 269 175 276 b 86 185 108 276 86 247 l 86 93 b 157 1 86 31 108 1 b 213 35 179 1 189 7 b 429 -19 282 -1 353 -19 b 747 222 619 -19 747 78 b 665 396 747 296 721 351 b 449 472 622 431 569 450 b 310 508 344 492 338 494 b 258 585 279 524 258 556 b 415 690 258 644 326 690 b 581 597 501 690 568 653 b 600 542 590 553 590 553 b 650 522 611 531 631 522 b 706 551 671 522 692 532 b 718 615 715 565 718 576 z "},"T":{"ha":833,"x_min":0,"x_max":0,"o":"m 485 671 l 636 671 l 636 542 b 646 483 636 510 639 494 b 706 450 658 463 682 450 b 763 479 728 450 749 461 b 775 542 774 493 775 503 l 775 810 l 58 810 l 58 542 b 68 483 58 510 61 494 b 128 450 81 463 104 450 b 185 479 150 450 171 461 b 197 542 194 493 197 504 l 197 671 l 346 671 l 346 139 l 256 139 b 197 129 219 139 210 138 b 164 69 176 117 164 93 b 193 14 164 49 175 26 b 256 0 204 4 224 0 l 576 0 b 668 69 638 0 668 24 b 639 126 668 92 658 113 b 576 139 625 136 614 139 l 485 139 z "},"U":{"ha":833,"x_min":0,"x_max":0,"o":"m 735 671 b 819 740 790 671 819 696 b 792 797 819 763 810 783 b 728 810 778 807 765 810 l 547 810 b 489 800 511 810 501 808 b 456 740 468 788 456 764 b 483 683 456 718 467 697 b 547 671 497 674 511 671 l 596 671 l 596 272 b 417 119 596 188 517 119 b 238 272 318 119 238 188 l 238 671 l 286 671 b 344 681 318 671 333 674 b 378 740 365 693 378 717 b 350 797 378 763 368 783 b 286 810 335 808 325 810 l 106 810 b 47 800 71 810 60 808 b 14 740 26 788 14 764 b 99 671 14 696 43 671 l 99 285 b 417 -19 99 113 236 -19 b 618 49 493 -19 558 3 b 735 285 697 108 735 186 z "},"V":{"ha":833,"x_min":0,"x_max":0,"o":"m 421 200 l 221 671 l 247 671 b 306 681 282 671 293 674 b 339 740 326 693 339 717 b 311 797 339 763 328 783 b 247 810 297 807 283 810 l 63 810 b 4 800 26 810 17 808 b -29 740 -17 788 -29 764 b 14 676 -29 713 -11 685 b 65 671 26 672 35 671 l 346 0 l 483 0 l 768 671 b 819 676 799 671 807 672 b 863 740 844 685 863 713 b 835 797 863 763 851 783 b 771 810 821 807 807 810 l 588 810 b 529 800 551 810 542 808 b 496 740 508 788 496 764 b 524 683 496 718 506 697 b 588 671 539 674 550 671 l 621 671 z "},"W":{"ha":833,"x_min":0,"x_max":0,"o":"m 417 385 l 546 0 l 699 0 l 782 671 b 847 740 825 678 847 703 b 819 797 847 763 838 783 b 756 810 806 807 793 810 l 574 810 b 515 800 538 810 528 808 b 482 740 494 788 482 764 b 510 683 482 718 493 697 b 574 671 524 674 539 671 l 647 671 l 599 293 l 493 607 l 349 607 l 243 293 l 193 671 l 260 671 b 319 681 293 671 307 674 b 353 740 340 693 353 717 b 324 797 353 763 342 783 b 260 810 310 807 299 810 l 78 810 b 19 800 42 810 32 808 b -14 738 -3 786 -14 765 b 50 671 -14 699 8 676 l 136 0 l 290 0 z "},"X":{"ha":833,"x_min":0,"x_max":0,"o":"m 506 413 l 724 671 b 803 740 774 672 803 697 b 774 797 803 763 793 783 b 711 810 760 807 749 810 l 586 810 l 585 810 b 526 800 571 813 535 806 b 493 740 506 786 493 764 b 546 672 493 710 507 692 l 417 521 l 285 672 b 338 740 325 692 338 708 b 308 797 338 763 328 783 b 244 810 294 807 283 810 l 118 810 b 60 800 103 813 68 806 b 26 740 39 788 26 764 b 107 671 26 699 56 674 l 326 414 l 96 139 b 14 69 44 139 14 113 b 43 14 14 47 25 26 b 106 0 56 4 72 0 l 260 0 b 351 69 321 0 351 22 b 276 139 351 111 324 136 l 418 306 l 558 139 b 482 69 510 136 482 111 b 574 0 482 22 513 0 l 728 0 b 786 10 757 0 775 3 b 819 69 807 22 819 46 b 738 139 819 113 790 138 z "},"Y":{"ha":833,"x_min":0,"x_max":0,"o":"m 486 340 l 714 671 b 761 676 742 671 750 672 b 804 740 786 686 804 713 b 776 797 804 763 794 783 b 713 810 763 807 750 810 l 585 810 b 525 800 550 810 538 808 b 492 740 504 788 492 764 b 547 672 492 708 510 686 l 417 483 l 285 672 b 338 740 321 688 338 708 b 310 797 338 763 328 783 b 246 810 296 807 283 810 l 122 810 l 121 810 b 63 800 107 813 71 806 b 29 740 42 786 29 764 b 118 671 29 696 61 671 l 347 340 l 347 139 l 257 139 b 197 129 219 139 210 138 b 164 69 176 117 164 93 b 193 14 164 47 175 26 b 257 0 206 4 224 0 l 576 0 b 636 10 606 0 626 4 b 669 69 657 24 669 46 b 640 126 669 92 660 113 b 576 139 626 136 615 139 l 486 139 z "},"Z":{"ha":833,"x_min":0,"x_max":0,"o":"m 279 139 l 700 675 l 700 810 l 133 810 l 133 574 b 143 515 133 539 136 526 b 203 482 157 494 179 482 b 260 510 225 482 246 493 b 272 574 269 524 272 536 l 272 671 l 521 671 l 101 139 l 101 0 l 732 0 l 732 239 b 722 299 732 275 731 285 b 663 331 710 318 686 331 b 606 303 640 331 619 321 b 593 239 596 289 593 274 l 593 139 z "},"[":{"ha":833,"x_min":0,"x_max":0,"o":"m 486 732 l 567 732 b 626 742 597 732 614 735 b 658 801 646 756 658 778 b 631 858 658 824 649 844 b 567 871 617 868 604 871 l 347 871 l 347 -206 l 568 -206 b 626 -196 599 -206 615 -203 b 660 -136 647 -182 660 -160 b 632 -79 660 -114 650 -93 b 568 -67 617 -69 606 -67 l 486 -67 z "},"\\":{"ha":833,"x_min":0,"x_max":0,"o":"m 256 904 b 183 965 235 951 218 965 b 115 899 147 965 115 935 b 132 847 115 885 118 875 l 576 -96 b 649 -157 599 -143 614 -157 b 718 -90 685 -157 718 -125 b 701 -37 718 -76 714 -62 z "},"]":{"ha":833,"x_min":0,"x_max":0,"o":"m 347 -67 l 267 -67 b 207 -76 236 -67 219 -69 b 175 -136 188 -90 175 -112 b 203 -193 175 -158 185 -179 b 267 -206 217 -203 229 -206 l 486 -206 l 486 871 l 265 871 b 207 861 235 871 218 868 b 174 801 186 847 174 825 b 201 744 174 779 183 758 b 265 732 217 735 228 732 l 347 732 z "},"^":{"ha":833,"x_min":0,"x_max":0,"o":"m 417 903 l 156 575 b 139 539 143 560 139 551 b 186 492 139 513 160 492 b 228 517 203 492 214 499 l 417 754 l 607 517 b 649 492 621 499 632 492 b 696 539 675 492 696 513 b 679 575 696 550 692 560 z "},"_":{"ha":833,"x_min":0,"x_max":0,"o":"m 833 -67 l 1 -67 l 1 -174 l 833 -174 z "},"‘":{"ha":833,"x_min":0,"x_max":0,"o":"m 529 836 l 346 836 l 542 517 b 586 483 557 492 568 483 b 629 521 610 483 629 501 b 625 549 629 529 628 540 z "},"a":{"ha":833,"x_min":0,"x_max":0,"o":"m 539 0 l 701 0 b 793 69 763 0 793 22 b 765 126 793 92 783 113 b 701 139 751 136 739 139 l 679 139 l 679 419 b 406 625 679 549 576 625 b 167 583 335 625 235 607 b 125 525 139 574 125 554 b 193 454 125 485 154 454 b 249 463 206 454 225 457 b 411 486 315 479 364 486 b 539 418 499 486 539 465 l 539 386 b 394 400 482 396 439 400 b 113 294 271 400 175 364 b 58 165 79 257 58 208 b 308 -22 58 61 169 -22 b 539 32 390 -22 474 -3 z m 540 188 b 311 117 464 140 388 117 b 206 171 251 117 206 140 b 386 272 206 224 292 272 b 540 257 435 272 478 268 z "},"b":{"ha":833,"x_min":0,"x_max":0,"o":"m 242 867 l 81 867 b 22 857 46 867 35 865 b -11 797 1 844 -11 821 b 17 742 -11 775 0 754 b 81 728 31 731 44 728 l 103 728 l 103 139 l 81 139 b 22 129 46 139 33 136 b -11 69 1 117 -11 93 b 17 13 -11 47 0 26 b 81 0 29 4 47 0 l 242 0 l 242 49 b 451 -19 314 -1 368 -19 b 696 71 554 -19 632 10 b 793 303 760 133 793 213 b 696 536 793 394 760 475 b 450 626 632 599 554 626 b 242 557 367 626 301 604 z m 449 488 b 600 432 515 488 560 471 b 654 304 635 397 654 350 b 600 175 654 257 635 210 b 449 119 561 138 514 119 b 242 306 326 119 242 196 b 296 432 242 351 261 397 b 449 488 335 471 379 488 z "},"c":{"ha":833,"x_min":0,"x_max":0,"o":"m 750 533 b 683 625 750 597 729 625 b 631 583 654 625 639 613 b 431 625 576 611 510 625 b 75 286 221 625 75 486 b 160 74 75 201 104 129 b 449 -22 228 7 314 -22 b 696 22 551 -22 639 -7 b 785 124 753 51 785 88 b 715 194 785 163 753 194 b 674 178 699 194 686 189 b 604 135 639 149 631 144 b 458 117 569 124 515 117 b 214 288 296 117 214 174 b 269 426 214 340 233 390 b 431 486 308 467 360 486 b 578 451 492 486 542 474 b 610 401 596 439 604 426 b 631 354 617 371 619 363 b 681 335 642 342 663 335 b 738 363 703 335 724 346 b 750 426 747 376 750 390 z "},"d":{"ha":833,"x_min":0,"x_max":0,"o":"m 738 867 l 576 867 b 518 857 540 867 531 865 b 485 797 497 844 485 822 b 513 742 485 776 494 756 b 576 729 526 732 540 729 l 599 729 l 599 557 b 390 626 539 604 474 626 b 142 536 285 626 207 599 b 46 303 79 475 46 394 b 142 71 46 213 79 133 b 389 -19 207 10 285 -19 b 599 49 472 -19 525 -1 l 599 0 l 760 0 b 818 10 792 0 807 3 b 851 69 839 22 851 46 b 824 125 851 92 842 113 b 760 139 810 136 797 139 l 738 139 z m 390 488 b 544 432 460 488 504 471 b 599 301 579 397 599 351 b 544 175 599 256 579 210 b 392 119 506 136 458 119 b 239 175 325 119 278 136 b 185 304 204 210 185 257 b 239 432 185 351 204 397 b 390 488 278 471 324 488 z "},"e":{"ha":833,"x_min":0,"x_max":0,"o":"m 764 239 l 764 293 b 404 625 764 485 611 625 b 46 300 201 625 46 483 b 413 -22 46 110 197 -22 b 715 31 513 -22 653 3 b 764 93 749 44 764 65 b 697 163 764 133 736 163 b 651 156 685 163 668 160 b 425 117 525 122 489 117 b 197 239 303 117 229 156 z m 201 361 b 406 486 224 436 304 486 b 610 361 507 486 588 438 z "},"f":{"ha":833,"x_min":0,"x_max":0,"o":"m 415 468 l 625 468 b 683 478 656 468 672 471 b 717 538 704 492 717 514 b 689 594 717 560 707 581 b 625 607 674 604 663 607 l 415 607 l 415 658 b 532 726 415 704 453 726 b 689 711 576 726 639 721 b 728 707 706 708 719 707 b 793 778 765 707 793 738 b 735 843 793 811 772 833 b 544 865 690 856 603 865 b 276 658 379 865 276 786 l 276 607 l 213 607 b 153 597 175 607 165 606 b 119 538 132 585 119 563 b 211 468 119 490 150 468 l 276 468 l 276 139 l 196 139 b 138 129 160 139 150 138 b 104 69 117 117 104 93 b 132 14 104 49 115 26 b 196 0 144 4 164 0 l 608 0 b 667 10 636 0 657 4 b 700 69 688 24 700 46 b 672 126 700 92 690 113 b 608 139 658 136 646 139 l 415 139 z "},"g":{"ha":833,"x_min":0,"x_max":0,"o":"m 569 557 b 374 626 515 603 449 626 b 46 303 188 626 46 488 b 374 -19 46 119 188 -19 b 569 49 446 -19 504 1 l 569 -28 b 439 -146 571 -99 517 -146 l 288 -146 b 229 -156 251 -146 242 -147 b 196 -215 208 -168 196 -192 b 224 -271 196 -237 206 -258 b 288 -285 238 -282 253 -285 l 443 -285 b 708 -28 594 -285 710 -172 l 708 468 l 731 468 b 790 479 763 468 778 471 b 822 538 810 492 822 514 b 794 594 822 560 813 581 b 731 607 781 604 768 607 l 569 607 z m 376 488 b 569 301 485 488 569 406 b 376 119 569 201 483 119 b 185 304 271 119 185 201 b 376 488 185 406 271 488 z "},"h":{"ha":833,"x_min":0,"x_max":0,"o":"m 271 867 l 110 867 b 51 857 76 867 64 864 b 18 797 31 844 18 821 b 46 742 18 775 29 754 b 110 728 60 731 74 728 l 132 728 l 132 139 l 124 139 b 65 129 89 139 78 136 b 32 69 44 115 32 93 b 60 14 32 47 43 26 b 124 0 74 4 90 0 l 279 0 b 339 10 308 0 328 3 b 372 69 360 24 372 46 b 343 126 372 92 363 113 b 279 139 329 136 318 139 l 271 139 l 271 393 b 446 486 350 471 379 486 b 539 460 489 486 515 479 b 568 376 563 440 568 424 l 568 139 l 560 139 b 500 129 525 139 513 136 b 467 69 479 115 467 93 b 496 13 467 47 478 26 b 560 0 508 4 526 0 l 715 0 b 807 69 776 0 807 22 b 779 126 807 92 796 113 b 715 139 765 136 753 139 l 707 139 l 707 394 b 461 625 707 533 608 625 b 271 540 389 625 326 597 z "},"i":{"ha":833,"x_min":0,"x_max":0,"o":"m 486 607 l 239 607 b 179 597 201 607 192 606 b 146 538 158 585 146 563 b 239 468 146 490 176 468 l 347 468 l 347 139 l 178 139 b 119 129 142 139 132 138 b 86 69 99 117 86 93 b 114 14 86 47 97 26 b 178 0 126 4 146 0 l 656 0 b 714 10 683 0 704 4 b 747 69 735 24 747 46 b 718 126 747 92 738 113 b 656 139 704 136 693 139 l 486 139 z m 467 865 l 303 865 l 303 719 l 467 719 z "},"j":{"ha":833,"x_min":0,"x_max":0,"o":"m 539 468 l 539 -28 b 408 -146 539 -99 488 -146 l 254 -146 b 196 -156 219 -146 208 -147 b 163 -215 175 -168 163 -192 b 192 -271 163 -237 174 -258 b 254 -285 204 -282 219 -285 l 413 -285 b 678 -28 564 -285 679 -172 l 678 607 l 258 607 b 200 597 222 607 213 606 b 167 538 179 585 167 561 b 196 482 167 515 178 494 b 258 468 208 471 224 468 z m 597 865 l 432 865 l 432 719 l 597 719 z "},"k":{"ha":833,"x_min":0,"x_max":0,"o":"m 299 228 l 324 247 l 467 121 b 444 69 450 103 444 89 b 536 0 444 24 475 0 l 700 0 b 793 69 763 0 793 24 b 764 126 793 92 783 113 b 700 139 750 136 739 139 l 654 139 l 432 335 l 596 468 l 635 468 b 693 478 667 468 682 471 b 726 538 714 492 726 514 b 699 594 726 560 717 581 b 635 607 683 604 672 607 l 479 607 b 419 597 446 607 431 604 b 386 538 399 583 386 561 b 408 486 386 518 392 506 l 299 399 l 299 867 l 138 867 b 79 857 106 867 90 864 b 46 797 58 844 46 821 b 74 740 46 775 57 754 b 138 728 88 731 101 728 l 160 728 l 160 139 l 138 139 b 79 129 103 139 92 138 b 46 69 58 117 46 93 b 138 0 46 24 76 0 l 299 0 z "},"l":{"ha":833,"x_min":0,"x_max":0,"o":"m 486 867 l 239 867 b 179 857 204 867 192 865 b 146 797 158 844 146 822 b 239 728 146 750 176 728 l 347 728 l 347 139 l 178 139 b 119 129 142 139 132 138 b 86 69 99 117 86 93 b 114 14 86 47 97 26 b 178 0 126 4 146 0 l 656 0 b 714 10 683 0 704 4 b 747 69 735 24 747 46 b 718 126 747 92 738 113 b 656 139 704 136 693 139 l 486 139 z "},"m":{"ha":833,"x_min":0,"x_max":0,"o":"m 196 607 l 67 607 b 17 601 38 607 29 606 b -26 538 -8 593 -26 565 b 57 468 -26 494 3 469 l 57 139 b -26 69 4 139 -26 114 b 67 0 -26 24 4 0 l 189 0 b 281 69 250 0 281 24 b 196 139 281 114 250 139 l 196 424 b 303 486 238 471 264 486 b 350 432 338 486 350 471 l 350 0 l 481 0 b 572 69 542 0 572 24 b 489 139 572 114 542 139 l 489 424 b 594 486 536 474 558 486 b 643 432 631 486 643 472 l 643 0 l 774 0 b 865 69 835 0 865 24 b 782 139 865 114 835 138 l 782 443 b 600 625 782 549 704 625 b 456 557 543 625 499 604 b 314 625 414 603 368 625 b 196 574 272 625 244 614 z "},"n":{"ha":833,"x_min":0,"x_max":0,"o":"m 271 607 l 140 607 b 90 601 111 607 103 606 b 47 538 65 593 47 565 b 132 468 47 493 78 469 l 132 139 l 124 139 b 65 129 89 139 78 136 b 32 69 44 117 32 93 b 60 14 32 47 43 26 b 124 0 74 4 90 0 l 279 0 b 371 69 340 0 371 24 b 343 126 371 92 361 113 b 279 139 329 136 317 139 l 271 139 l 271 392 b 444 486 336 463 381 486 b 569 386 531 486 569 456 l 569 139 b 485 69 515 139 485 114 b 578 0 485 24 515 0 l 701 0 b 793 69 763 0 793 24 b 708 139 793 114 763 139 l 708 392 b 626 574 708 474 682 532 b 461 625 581 607 524 625 b 271 540 383 625 339 604 z "},"o":{"ha":833,"x_min":0,"x_max":0,"o":"m 421 625 b 58 301 215 625 58 485 b 417 -22 58 119 215 -22 b 775 301 618 -22 775 119 b 421 625 775 481 618 625 z m 419 486 b 636 301 540 486 636 404 b 417 117 636 197 540 117 b 197 301 293 117 197 197 b 419 486 197 407 293 486 z "},"p":{"ha":833,"x_min":0,"x_max":0,"o":"m 242 92 b 457 14 314 36 375 14 b 793 311 651 14 793 140 b 454 625 793 492 649 625 b 242 544 368 625 310 603 l 242 607 l 81 607 b 22 597 46 607 35 604 b -11 538 1 585 -11 561 b 17 482 -11 515 0 494 b 81 468 31 471 44 468 l 103 468 l 103 -146 l 81 -146 b 22 -156 46 -146 35 -147 b -11 -215 1 -168 -11 -192 b 17 -271 -11 -237 -1 -258 b 81 -285 31 -282 46 -285 l 322 -285 b 414 -215 385 -285 414 -262 b 386 -158 414 -193 404 -172 b 322 -146 372 -149 358 -146 l 242 -146 z m 449 486 b 588 446 506 486 551 474 b 654 319 628 417 654 365 b 449 153 654 222 568 153 b 242 321 326 153 242 222 b 308 446 242 365 268 417 b 449 486 344 474 389 486 z "},"q":{"ha":833,"x_min":0,"x_max":0,"o":"m 599 -146 l 518 -146 b 458 -156 485 -146 471 -149 b 426 -215 439 -169 426 -190 b 518 -285 426 -262 456 -285 l 760 -285 b 818 -275 790 -285 807 -282 b 851 -215 839 -261 851 -239 b 824 -158 851 -193 840 -172 b 760 -146 810 -149 797 -146 l 738 -146 l 738 468 l 760 468 b 818 478 792 468 807 471 b 851 538 839 492 851 514 b 824 594 851 560 840 581 b 760 607 810 604 797 607 l 599 607 l 599 544 b 385 625 531 603 472 625 b 46 311 190 625 46 492 b 382 14 46 139 188 14 b 599 92 465 14 526 36 z m 390 486 b 599 318 514 486 599 417 b 532 193 599 274 572 224 b 392 153 497 165 450 153 b 251 193 333 153 286 167 b 185 319 211 224 185 274 b 251 446 185 365 211 415 b 390 486 286 474 332 486 z "},"r":{"ha":833,"x_min":0,"x_max":0,"o":"m 386 607 l 199 607 b 140 596 175 607 149 603 b 107 538 119 583 107 561 b 135 482 107 515 117 494 b 199 468 149 471 164 468 l 247 468 l 247 139 l 167 139 b 108 129 131 139 121 138 b 75 69 88 117 75 93 b 103 14 75 47 86 26 b 167 0 115 4 135 0 l 579 0 b 639 10 608 0 629 4 b 672 69 660 24 672 46 b 643 126 672 92 663 113 b 579 139 629 136 618 139 l 386 139 l 386 343 b 615 485 515 450 572 485 b 669 460 635 485 649 478 b 724 435 690 442 704 435 b 793 506 761 435 793 467 b 754 571 793 531 783 547 b 618 624 711 607 667 624 b 386 517 549 624 501 601 z "},"s":{"ha":833,"x_min":0,"x_max":0,"o":"m 703 533 b 699 583 703 561 701 569 b 638 625 690 607 665 625 b 593 589 615 625 606 617 b 414 625 538 614 482 625 b 128 435 247 625 128 546 b 404 249 128 325 210 269 b 532 225 478 240 510 235 b 579 176 561 214 579 194 b 418 117 579 143 506 117 b 243 171 342 117 283 135 b 171 232 231 213 208 232 b 115 203 149 232 129 222 b 101 139 104 189 101 176 l 101 93 b 172 1 101 29 124 1 b 217 18 190 1 200 6 b 422 -22 272 -8 343 -22 b 732 174 601 -22 732 60 b 635 331 732 238 696 296 b 433 383 593 354 539 369 b 317 404 344 396 336 397 b 281 438 294 413 281 425 b 418 486 281 463 346 486 b 561 446 478 486 522 474 b 633 390 586 401 600 390 b 690 418 656 390 676 401 b 703 482 700 432 703 446 z "},"t":{"ha":833,"x_min":0,"x_max":0,"o":"m 297 468 l 549 468 b 607 478 579 468 596 471 b 640 538 628 492 640 514 b 613 594 640 560 629 581 b 549 607 599 604 586 607 l 297 607 l 297 729 b 288 788 297 765 296 775 b 228 821 275 808 251 821 b 172 793 206 821 185 811 b 158 729 161 779 158 765 l 158 607 l 110 607 b 51 597 74 607 64 606 b 18 538 31 585 18 561 b 46 482 18 515 29 494 b 110 468 60 471 75 468 l 158 468 l 158 169 b 415 -22 158 51 257 -22 b 665 33 489 -22 597 1 b 735 108 718 57 735 75 b 668 179 735 149 706 179 b 619 164 651 179 643 176 b 417 117 557 132 490 117 b 308 144 364 117 325 126 b 297 196 300 153 297 167 z "},"u":{"ha":833,"x_min":0,"x_max":0,"o":"m 708 607 l 521 607 b 463 597 488 607 475 606 b 429 538 442 585 429 561 b 457 482 429 515 440 494 b 521 468 471 471 486 468 l 569 468 l 569 215 b 393 121 499 140 463 121 b 271 221 310 121 271 153 l 271 607 l 110 607 b 51 597 75 607 64 606 b 18 538 31 585 18 561 b 46 482 18 515 29 494 b 110 468 60 471 74 468 l 132 468 l 132 215 b 214 33 132 133 158 75 b 379 -18 258 0 317 -18 b 569 67 456 -18 501 1 l 569 0 l 701 0 b 760 10 731 0 749 3 b 793 69 781 24 793 46 b 708 139 793 114 763 139 z "},"v":{"ha":833,"x_min":0,"x_max":0,"o":"m 419 169 l 268 468 l 275 468 b 333 478 307 468 322 471 b 367 538 354 492 367 514 b 339 594 367 560 356 581 b 275 607 325 604 311 607 l 92 607 b 33 597 58 607 46 604 b 0 538 13 585 0 561 b 28 482 0 515 11 494 b 92 468 42 471 56 468 l 111 468 l 343 0 l 488 0 l 719 468 l 742 468 b 800 478 774 468 789 471 b 833 538 821 492 833 514 b 806 594 833 560 824 581 b 742 607 792 604 778 607 l 554 607 b 496 597 521 607 508 604 b 463 538 475 585 463 561 b 490 482 463 515 474 494 b 554 468 504 471 518 468 l 568 468 z "},"w":{"ha":833,"x_min":0,"x_max":0,"o":"m 418 250 l 517 0 l 644 0 l 761 469 b 833 538 807 472 833 497 b 804 594 833 560 824 581 b 742 607 792 604 778 607 l 613 607 b 564 601 585 607 576 606 b 521 538 539 593 521 565 b 549 482 521 517 532 496 b 613 469 563 472 576 469 l 622 469 l 567 257 l 482 476 l 360 476 l 276 257 l 222 469 b 279 479 256 469 268 471 b 311 538 299 492 311 514 b 283 594 311 560 301 581 b 219 607 269 604 256 607 l 92 607 b 43 601 64 607 56 606 b 0 538 18 593 0 565 b 75 469 0 497 26 472 l 193 0 l 324 0 z "},"x":{"ha":833,"x_min":0,"x_max":0,"o":"m 518 315 l 701 468 b 775 538 749 472 775 497 b 746 594 775 560 765 581 b 682 607 733 604 718 607 l 556 607 b 507 601 528 607 519 606 b 464 536 482 593 464 565 b 500 476 464 511 474 494 l 415 407 l 331 475 b 367 539 354 490 367 513 b 339 593 367 560 356 581 b 275 607 325 604 311 607 l 147 607 b 99 601 119 607 111 606 b 56 538 74 593 56 565 b 128 468 56 497 82 472 l 306 317 l 104 139 b 29 69 57 136 29 111 b 121 0 29 24 60 0 l 275 0 b 367 71 338 0 367 22 b 314 139 367 104 353 122 l 415 224 l 519 139 b 464 71 485 129 464 104 b 492 14 464 47 474 28 b 557 0 506 4 522 0 l 713 0 b 771 10 742 0 760 3 b 804 69 792 22 804 46 b 729 139 804 111 776 136 z "},"y":{"ha":833,"x_min":0,"x_max":0,"o":"m 336 4 l 260 -146 l 121 -146 b 63 -156 88 -146 75 -149 b 29 -215 42 -168 29 -192 b 57 -271 29 -237 39 -258 b 121 -285 71 -282 86 -285 l 419 -285 b 478 -275 450 -285 467 -282 b 511 -215 499 -261 511 -239 b 483 -158 511 -193 501 -172 b 419 -146 469 -149 456 -146 l 413 -146 l 732 468 b 804 538 778 472 804 497 b 775 594 804 560 794 581 b 713 607 763 604 749 607 l 585 607 b 535 601 556 607 547 606 b 492 538 510 593 492 565 b 581 468 492 493 524 468 l 414 158 l 256 468 b 338 538 308 469 338 493 b 310 594 338 560 328 581 b 246 607 296 604 282 607 l 121 607 b 72 601 93 607 85 606 b 29 538 47 593 29 565 b 97 468 29 499 54 474 z "},"z":{"ha":833,"x_min":0,"x_max":0,"o":"m 339 139 l 703 494 l 703 607 l 135 607 l 135 456 b 144 397 135 424 138 408 b 204 364 158 376 181 364 b 261 393 226 364 246 374 b 274 456 271 407 274 418 l 274 468 l 481 468 l 118 115 l 118 0 l 721 0 l 721 122 b 711 182 721 158 719 168 b 651 214 699 201 676 214 b 582 139 610 214 585 188 z "},"{":{"ha":833,"x_min":0,"x_max":0,"o":"m 483 674 b 533 725 485 713 496 725 b 601 796 574 728 601 757 b 524 865 601 838 571 865 b 344 683 426 865 344 782 l 344 456 b 300 403 344 418 335 407 b 232 333 254 399 232 374 b 300 263 232 292 254 268 b 344 210 335 260 344 249 l 344 -31 b 525 -212 344 -129 428 -212 b 601 -143 571 -212 601 -185 b 533 -72 601 -104 574 -75 b 483 -21 496 -72 485 -60 l 483 197 b 443 333 483 272 476 293 b 483 456 475 369 482 394 z "},"|":{"ha":833,"x_min":0,"x_max":0,"o":"m 464 819 b 417 876 464 856 447 876 b 371 819 388 876 371 856 l 371 -117 b 417 -172 371 -151 388 -172 b 464 -117 447 -172 464 -151 z "},"}":{"ha":833,"x_min":0,"x_max":0,"o":"m 350 -21 b 300 -72 349 -60 338 -72 b 232 -143 260 -75 232 -104 b 310 -212 232 -185 263 -212 b 489 -31 407 -212 489 -129 l 489 197 b 533 250 489 235 499 246 b 601 319 579 254 601 279 b 533 390 601 361 579 385 b 489 443 499 393 489 404 l 489 683 b 308 865 489 782 406 865 b 232 796 263 865 232 838 b 300 725 232 757 260 728 b 350 674 338 725 349 713 l 350 456 b 390 319 350 381 357 360 b 350 197 358 283 351 258 z "},"~":{"ha":833,"x_min":0,"x_max":0,"o":"m 678 506 b 608 458 650 506 636 496 b 540 394 574 411 556 394 b 488 426 528 394 511 404 b 296 535 390 515 356 535 b 140 447 239 535 194 510 b 86 350 100 401 86 376 b 157 279 86 313 119 279 b 229 332 182 279 194 288 b 294 390 267 378 281 390 b 353 353 306 390 324 378 b 543 249 435 278 489 249 b 690 335 597 249 640 272 b 747 436 738 390 747 408 b 678 506 747 474 715 506 z "},"¡":{"ha":833,"x_min":0,"x_max":0,"o":"m 308 -158 b 306 -204 307 -175 306 -194 b 417 -315 306 -268 353 -315 b 529 -204 482 -315 529 -268 b 526 -158 529 -196 528 -176 l 486 254 b 417 322 482 297 456 322 b 349 254 378 322 353 297 z m 406 592 b 313 500 353 592 313 551 b 406 408 313 450 353 408 l 429 408 b 521 500 481 408 521 450 b 429 592 521 551 481 592 z "},"¢":{"ha":833,"x_min":0,"x_max":0,"o":"m 488 138 b 693 269 611 158 693 211 b 624 340 693 307 661 340 b 576 324 606 340 593 336 b 431 274 528 289 482 274 b 254 431 331 274 254 342 b 444 593 254 525 335 593 b 549 533 508 593 539 575 b 569 481 560 492 560 492 b 618 463 581 471 601 463 b 675 492 640 463 661 474 b 688 554 685 506 688 517 l 688 613 b 678 671 688 649 686 658 b 617 704 664 692 643 704 b 589 699 607 704 601 703 b 488 732 561 715 531 725 l 488 825 b 478 885 488 863 486 872 b 418 918 465 906 443 918 b 363 889 396 918 376 908 b 349 825 351 876 349 863 l 349 718 b 115 433 210 685 115 568 b 349 143 115 290 206 178 l 349 31 b 358 -28 349 -1 351 -17 b 418 -61 372 -49 394 -61 b 475 -32 440 -61 461 -50 b 488 31 485 -18 488 -7 z "},"£":{"ha":833,"x_min":0,"x_max":0,"o":"m 436 338 b 496 347 469 338 483 340 b 529 407 517 361 529 383 b 500 464 529 429 519 450 b 436 476 486 474 474 476 l 342 476 b 314 607 314 578 314 578 b 414 692 314 656 357 692 b 501 656 451 692 479 681 b 567 617 535 621 540 617 b 635 688 604 617 635 647 b 415 831 635 758 524 831 b 175 600 275 831 175 735 b 199 476 175 560 182 524 l 138 476 b 79 467 103 476 92 475 b 46 407 58 454 46 431 b 74 350 46 385 56 364 b 138 338 88 340 101 338 l 233 338 b 235 311 235 326 235 315 b 208 183 235 261 226 218 b 146 139 196 157 181 146 b 76 71 97 129 76 108 b 106 14 76 47 88 26 b 168 0 117 4 136 0 l 614 0 b 764 125 711 0 764 43 b 693 203 764 174 738 203 b 625 139 654 203 631 181 l 343 139 b 375 300 367 199 375 239 b 374 338 375 307 375 321 z "},"⁄":{"ha":833,"x_min":0,"x_max":0,"o":"m 754 553 b 806 624 796 579 806 594 b 738 694 806 661 774 694 b 679 671 719 694 708 690 l 81 283 b 29 214 39 257 29 243 b 97 142 29 176 61 142 b 156 165 113 142 131 149 z "},"¥":{"ha":833,"x_min":0,"x_max":0,"o":"m 418 483 l 288 669 b 342 736 319 676 342 703 b 314 792 342 758 332 778 b 249 806 299 803 289 806 l 121 806 b 63 796 85 806 75 804 b 29 736 42 783 29 760 b 114 667 29 692 65 663 b 121 668 115 667 118 667 l 313 390 l 213 390 b 169 351 183 390 169 378 b 213 313 169 326 185 313 l 347 313 l 347 265 l 213 265 b 169 226 183 265 169 253 b 213 188 169 201 185 188 l 347 188 l 347 139 l 283 139 b 224 129 246 139 236 138 b 190 69 203 117 190 93 b 219 14 190 49 201 26 b 282 0 231 4 250 0 l 551 0 b 643 69 613 0 643 24 b 615 126 643 93 633 113 b 551 139 600 136 590 139 l 486 139 l 486 188 l 621 188 b 664 226 649 188 664 201 b 621 265 664 253 650 265 l 486 265 l 486 313 l 621 313 b 664 351 649 313 664 326 b 621 390 664 376 649 390 l 521 390 l 714 667 b 761 672 740 667 749 668 b 804 736 786 681 804 708 b 776 793 804 758 793 779 b 713 806 761 803 751 806 l 586 806 b 526 796 550 806 539 804 b 493 736 506 783 493 760 b 550 668 493 703 514 678 z "},"ƒ":{"ha":833,"x_min":0,"x_max":0,"o":"m 492 561 l 492 633 b 593 747 492 696 538 747 b 661 735 618 747 640 743 b 694 728 678 729 685 728 b 761 801 732 728 761 760 b 594 886 761 854 700 886 b 353 638 461 886 353 775 l 353 561 l 274 561 b 214 551 236 561 226 560 b 181 492 193 539 181 515 b 210 435 181 469 192 449 b 274 422 222 425 238 422 l 353 422 l 353 92 b 244 -32 353 18 310 -32 b 178 -21 221 -32 200 -28 b 146 -12 158 -12 156 -12 b 79 -82 110 -12 79 -44 b 249 -171 79 -137 142 -171 b 492 92 386 -171 492 -57 l 492 422 l 571 422 b 631 432 603 422 619 425 b 664 492 651 446 664 468 b 635 549 664 514 654 535 b 571 561 621 560 611 561 z "},"§":{"ha":833,"x_min":0,"x_max":0,"o":"m 599 685 l 599 633 b 660 557 599 582 618 557 b 710 582 681 557 699 567 b 721 633 719 593 721 601 l 721 810 l 408 810 b 242 743 335 810 285 790 b 183 600 204 704 183 653 b 190 558 183 583 185 575 b 50 393 100 533 50 475 b 236 181 50 314 99 260 l 383 96 b 529 -40 482 40 529 -4 b 436 -114 529 -81 486 -114 l 235 -114 l 235 -60 b 226 -11 235 -31 233 -22 b 174 17 215 6 196 17 b 113 -60 132 17 113 -8 l 113 -236 l 433 -236 b 596 -171 507 -236 554 -217 b 649 -39 631 -131 649 -87 b 642 14 649 -21 647 -10 b 783 179 732 35 783 94 b 578 404 783 267 740 314 l 450 475 b 301 611 349 532 301 575 b 399 685 301 651 344 685 z m 515 297 b 650 168 601 247 650 200 b 589 122 650 142 625 124 l 574 122 l 565 122 b 446 204 542 143 519 158 l 303 285 b 183 406 221 332 183 369 b 267 453 183 436 213 453 b 378 376 317 413 331 403 z "},"¤":{"ha":833,"x_min":0,"x_max":0,"o":"m 182 539 b 147 406 156 489 147 456 b 182 272 147 357 156 324 l 138 225 b 101 160 107 193 101 185 b 172 89 101 121 133 89 b 238 126 196 89 206 94 l 283 171 b 417 135 335 143 367 135 b 549 169 465 135 499 143 l 596 125 b 660 89 626 94 636 89 b 732 161 699 89 732 122 b 696 225 732 183 725 194 l 650 272 b 686 406 678 324 686 357 b 651 539 686 454 678 488 l 694 583 b 731 647 725 614 731 624 b 660 718 731 686 699 718 b 594 682 635 718 625 713 l 551 640 b 417 678 500 668 467 678 b 282 642 367 678 333 669 l 238 685 b 172 721 206 715 196 721 b 101 651 133 721 101 689 b 136 583 101 632 115 604 z m 417 539 b 547 406 490 539 547 481 b 417 274 547 333 488 274 b 286 407 344 274 286 333 b 417 539 286 481 344 539 z "},"'":{"ha":833,"x_min":0,"x_max":0,"o":"m 328 836 l 375 482 b 418 433 379 447 392 433 b 463 483 446 433 457 447 l 506 836 z "},"“":{"ha":833,"x_min":0,"x_max":0,"o":"m 597 836 l 414 836 l 610 517 b 654 483 625 492 636 483 b 697 521 678 483 697 501 b 693 549 697 529 696 540 z m 319 836 l 136 836 l 332 517 b 376 483 347 492 358 483 b 419 521 400 483 419 501 b 415 549 419 529 418 540 z "},"«":{"ha":833,"x_min":0,"x_max":0,"o":"m 243 303 l 453 497 b 475 535 469 511 475 522 b 431 576 475 558 456 576 b 390 558 417 576 410 574 l 46 303 l 390 46 b 431 28 410 31 417 28 b 475 69 456 28 475 46 b 453 107 475 82 469 93 z m 561 303 l 771 497 b 793 535 788 511 793 522 b 749 576 793 558 774 576 b 708 558 735 576 728 574 l 364 303 l 708 46 b 749 28 728 31 735 28 b 793 69 774 28 793 46 b 771 107 793 82 788 93 z "},"‹":{"ha":833,"x_min":0,"x_max":0,"o":"m 243 303 l 453 497 b 475 535 469 511 475 522 b 431 576 475 558 456 576 b 390 558 417 576 410 574 l 46 303 l 390 46 b 431 28 410 31 417 28 b 475 69 456 28 475 46 b 453 107 475 82 469 93 z "},"›":{"ha":833,"x_min":0,"x_max":0,"o":"m 597 301 l 388 107 b 365 69 371 93 365 82 b 410 28 365 46 385 28 b 450 46 424 28 431 31 l 793 301 l 450 558 b 410 576 431 574 424 576 b 365 535 385 576 365 558 b 388 497 365 522 371 511 z "},"ﬁ":{"ha":833,"x_min":0,"x_max":0,"o":"m 271 468 l 317 468 b 375 478 349 468 364 471 b 408 538 396 492 408 514 b 381 594 408 560 397 581 b 317 607 365 604 354 607 l 271 607 l 271 661 b 326 728 271 699 296 728 b 379 715 340 728 357 724 b 421 706 403 707 408 706 b 489 776 458 706 489 738 b 458 832 489 800 479 818 b 321 865 431 851 371 865 b 132 661 215 865 132 775 l 132 607 l 79 607 b 19 597 42 607 32 606 b -14 538 -1 585 -14 561 b 15 482 -14 515 -3 494 b 79 468 29 471 43 468 l 132 468 l 132 139 l 74 139 b 14 129 36 139 26 138 b -19 69 -7 115 -19 93 b 10 14 -19 47 -8 26 b 74 0 22 4 40 0 l 317 0 b 375 10 344 0 365 4 b 408 69 396 24 408 46 b 381 126 408 92 399 113 b 317 139 365 136 354 139 l 271 139 z m 718 607 l 551 607 b 493 597 515 607 506 606 b 460 538 472 585 460 561 b 489 482 460 515 471 496 b 551 468 501 471 517 468 l 579 468 l 579 139 l 526 139 b 467 129 489 139 479 138 b 433 69 446 117 433 93 b 463 14 433 47 444 26 b 526 0 475 4 493 0 l 768 0 b 860 69 829 0 860 24 b 832 126 860 92 850 113 b 768 139 818 136 806 139 l 718 139 z m 694 867 l 531 867 l 531 721 l 694 721 z "},"ﬂ":{"ha":833,"x_min":0,"x_max":0,"o":"m 267 468 l 313 468 b 371 478 344 468 360 471 b 404 538 392 492 404 514 b 376 594 404 560 394 581 b 313 607 361 604 350 607 l 267 607 l 267 660 b 322 726 267 701 288 726 b 381 714 339 726 347 724 b 421 706 399 708 410 706 b 476 743 444 706 463 718 b 526 726 493 731 503 728 l 574 726 l 574 139 l 521 139 b 461 129 483 139 474 138 b 428 69 440 115 428 94 b 521 0 428 24 458 0 l 764 0 b 857 69 826 0 857 24 b 829 126 857 92 847 113 b 764 139 814 136 803 139 l 713 139 l 713 865 l 532 865 b 464 826 497 865 478 854 b 313 865 422 851 371 865 b 128 660 211 865 128 774 l 128 607 l 76 607 b 17 597 39 607 29 606 b -17 538 -4 585 -17 561 b 13 482 -17 515 -6 494 b 76 468 26 471 40 468 l 128 468 l 128 139 l 68 139 b 10 129 32 139 22 138 b -24 69 -11 117 -24 93 b 4 14 -24 47 -12 26 b 68 0 17 4 36 0 l 313 0 b 371 10 340 0 361 4 b 404 69 392 24 404 46 b 376 126 404 92 394 113 b 313 139 363 136 349 139 l 267 139 z "},"–":{"ha":833,"x_min":0,"x_max":0,"o":"m 683 318 b 742 328 714 318 731 321 b 775 388 763 340 775 364 b 747 444 775 410 765 431 b 683 457 733 454 719 457 l 150 457 b 92 447 115 457 103 456 b 58 388 71 433 58 411 b 88 331 58 365 69 344 b 150 318 100 321 115 318 z "},"†":{"ha":833,"x_min":0,"x_max":0,"o":"m 486 468 l 610 468 b 669 478 643 468 657 471 b 703 538 690 492 703 514 b 674 594 703 560 692 581 b 610 607 660 604 649 607 l 486 607 l 486 772 b 476 831 486 808 485 818 b 417 864 464 851 440 864 b 361 836 394 864 374 854 b 347 772 350 822 347 808 l 347 607 l 222 607 b 164 597 188 607 176 606 b 131 538 143 585 131 561 b 158 481 131 515 142 494 b 222 468 172 471 186 468 l 347 468 l 347 -36 b 357 -94 347 -68 350 -83 b 417 -128 371 -115 393 -128 b 474 -99 439 -128 460 -117 b 486 -36 483 -85 486 -74 z "},"‡":{"ha":833,"x_min":0,"x_max":0,"o":"m 486 468 l 610 468 b 669 478 643 468 657 471 b 703 538 690 492 703 514 b 674 594 703 560 692 581 b 610 607 660 604 649 607 l 486 607 l 486 772 b 476 831 486 808 485 818 b 417 864 464 851 440 864 b 361 836 394 864 374 854 b 347 772 350 822 347 808 l 347 607 l 222 607 b 164 597 188 607 176 606 b 131 538 143 585 131 561 b 158 481 131 515 142 494 b 222 468 172 471 186 468 l 347 468 l 347 268 l 222 268 b 164 258 190 268 175 265 b 131 199 143 244 131 222 b 158 142 131 176 142 156 b 222 129 172 132 185 129 l 347 129 l 347 -36 b 357 -94 347 -68 350 -83 b 417 -128 371 -115 393 -128 b 474 -100 439 -128 460 -117 b 486 -36 483 -85 486 -75 l 486 129 l 610 129 b 669 139 644 129 657 131 b 703 199 690 151 703 175 b 674 256 703 221 693 242 b 610 268 660 265 646 268 l 486 268 z "},"·":{"ha":833,"x_min":0,"x_max":0,"o":"m 429 297 b 521 389 481 297 521 338 b 429 481 521 440 481 481 l 404 481 b 313 389 354 481 313 440 b 404 297 313 338 354 297 z "},"¶":{"ha":833,"x_min":0,"x_max":0,"o":"m 654 701 l 701 701 b 750 710 732 701 739 703 b 776 756 767 719 776 738 b 701 810 776 792 751 810 l 428 810 b 72 565 233 811 69 699 l 72 501 b 379 257 68 382 207 271 l 379 -133 l 269 -133 b 196 -187 219 -133 196 -151 b 269 -242 196 -224 219 -242 l 460 -242 b 519 -194 494 -240 506 -232 b 575 -242 531 -228 547 -242 l 704 -242 b 779 -187 754 -242 779 -224 b 704 -133 779 -151 756 -133 l 654 -133 z m 379 369 b 229 501 290 386 229 440 l 229 563 b 379 694 229 624 290 678 z m 549 701 l 549 -133 b 519 -172 533 -142 525 -151 b 488 -133 513 -150 506 -142 l 488 701 z "},"•":{"ha":833,"x_min":0,"x_max":0,"o":"m 285 639 b 103 456 183 639 103 558 b 283 274 103 356 183 274 b 463 456 382 274 463 356 b 285 639 463 557 382 639 z "},"‚":{"ha":833,"x_min":0,"x_max":0,"o":"m 304 186 l 208 -154 b 204 -181 204 -169 204 -172 b 247 -219 204 -201 224 -219 b 292 -186 264 -219 279 -208 l 488 186 z "},"„":{"ha":833,"x_min":0,"x_max":0,"o":"m 221 186 l 125 -101 b 121 -128 122 -110 121 -121 b 164 -167 121 -149 140 -167 b 208 -133 182 -167 193 -158 l 404 186 z m 499 186 l 403 -101 b 399 -128 400 -110 399 -121 b 442 -167 399 -149 418 -167 b 486 -133 460 -167 471 -158 l 682 186 z "},"”":{"ha":833,"x_min":0,"x_max":0,"o":"m 221 836 l 125 549 b 121 522 122 540 121 529 b 164 483 121 501 140 483 b 208 517 182 483 193 492 l 404 836 z m 499 836 l 403 549 b 399 522 400 540 399 529 b 442 483 399 501 418 483 b 486 517 460 483 471 492 l 682 836 z "},"»":{"ha":833,"x_min":0,"x_max":0,"o":"m 597 301 l 388 107 b 365 69 371 93 365 82 b 410 28 365 46 385 28 b 450 46 424 28 431 31 l 793 301 l 450 558 b 410 576 431 574 424 576 b 365 535 385 576 365 558 b 388 497 365 522 371 511 z m 278 301 l 68 107 b 46 69 51 93 46 82 b 90 28 46 46 65 28 b 131 46 104 28 111 31 l 474 301 l 131 558 b 90 576 111 574 104 576 b 46 535 65 576 46 558 b 68 497 46 522 51 511 z "},"…":{"ha":833,"x_min":0,"x_max":0,"o":"m 151 -21 b 243 71 203 -21 243 19 b 151 163 243 122 203 163 l 126 163 b 35 71 76 163 35 122 b 126 -21 35 19 76 -21 z m 429 -21 b 521 71 481 -21 521 19 b 429 163 521 122 481 163 l 404 163 b 313 71 354 163 313 122 b 404 -21 313 19 354 -21 z m 707 -21 b 799 71 758 -21 799 19 b 707 163 799 122 758 163 l 682 163 b 590 71 632 163 590 122 b 682 -21 590 19 632 -21 z "},"‰":{"ha":833,"x_min":0,"x_max":0,"o":"m 651 524 b 692 567 681 533 692 544 b 651 611 692 590 674 611 b 625 606 644 611 642 611 l 118 443 b 78 400 89 433 78 422 b 118 354 78 375 96 354 b 144 360 126 354 128 354 z m 161 858 b 0 697 72 858 0 786 b 161 536 0 608 72 536 b 322 696 249 536 322 608 b 161 858 322 788 251 858 z m 161 778 b 242 696 206 778 242 742 b 161 617 242 653 206 617 b 81 697 117 617 81 653 b 161 778 81 742 117 778 z m 297 322 b 136 161 208 322 136 250 b 297 0 136 72 208 0 b 458 160 385 0 458 72 b 297 322 458 251 388 322 z m 297 242 b 378 160 342 242 378 206 b 297 81 378 117 342 81 b 217 161 253 81 217 117 b 297 242 217 206 253 242 z m 672 322 b 511 161 583 322 511 250 b 672 0 511 72 583 0 b 833 160 760 0 833 72 b 672 322 833 251 763 322 z m 672 242 b 753 160 717 242 753 206 b 672 81 753 117 717 81 b 592 161 628 81 592 117 b 672 242 592 206 628 242 z "},"¿":{"ha":833,"x_min":0,"x_max":0,"o":"m 689 -124 b 679 -65 689 -92 686 -76 b 619 -32 667 -44 643 -32 b 564 -60 597 -32 576 -43 b 550 -124 553 -75 550 -85 l 550 -143 b 404 -176 504 -165 457 -176 b 254 -60 315 -176 254 -129 b 482 104 254 0 304 36 l 482 182 b 472 240 482 214 479 229 b 413 274 460 261 436 274 b 343 199 372 274 349 249 b 115 -53 175 125 115 60 b 406 -315 115 -208 233 -315 b 689 -233 494 -315 554 -299 z m 401 536 b 310 444 350 536 310 496 b 401 353 310 393 350 353 l 425 353 b 518 444 476 353 518 394 b 425 536 518 494 476 536 z "},"`":{"ha":833,"x_min":0,"x_max":0,"o":"m 269 944 b 225 967 247 963 240 967 b 174 917 196 967 174 944 b 206 867 174 899 182 885 l 390 711 b 435 689 413 693 421 689 b 486 739 463 689 486 713 b 454 790 486 757 476 772 z "},"´":{"ha":833,"x_min":0,"x_max":0,"o":"m 628 867 b 660 917 651 885 660 899 b 608 967 660 944 638 967 b 564 944 593 967 586 963 l 379 790 b 347 739 357 772 347 757 b 399 689 347 713 371 689 b 443 711 413 689 421 693 z "},"ˆ":{"ha":833,"x_min":0,"x_max":0,"o":"m 418 843 l 574 708 b 614 690 589 696 600 690 b 661 739 639 690 661 713 b 642 778 661 756 656 765 b 628 788 636 781 632 785 l 418 967 l 207 788 b 174 739 176 763 174 758 b 222 690 174 713 196 690 b 261 708 235 690 244 694 z "},"˜":{"ha":833,"x_min":0,"x_max":0,"o":"m 629 911 b 575 869 613 911 594 897 b 518 822 544 828 539 822 b 438 858 501 822 485 831 b 313 911 368 901 344 911 b 197 849 272 911 232 889 b 160 772 174 818 160 792 b 203 731 160 749 178 731 b 239 751 217 731 228 736 b 315 815 279 806 290 815 b 385 786 335 815 347 811 b 522 726 447 746 492 726 b 633 793 564 726 596 746 b 674 872 663 831 674 851 b 629 911 674 893 653 911 z "},"¯":{"ha":833,"x_min":0,"x_max":0,"o":"m 247 869 b 174 814 200 869 174 849 b 189 775 174 803 181 786 b 247 758 201 761 213 758 l 586 758 b 660 814 632 758 660 779 b 644 854 660 825 653 844 b 586 869 635 865 618 869 z "},"˘":{"ha":833,"x_min":0,"x_max":0,"o":"m 221 954 b 174 901 192 954 174 933 b 417 699 174 794 289 699 b 660 901 544 699 660 794 b 613 954 660 933 642 954 b 565 899 585 954 575 942 b 417 793 551 835 493 793 b 268 899 340 793 282 835 b 221 954 258 942 249 954 z "},"˙":{"ha":833,"x_min":0,"x_max":0,"o":"m 417 908 b 333 825 371 908 333 871 b 417 742 333 779 371 742 b 500 824 463 742 500 779 b 417 908 500 871 464 908 z "},"¨":{"ha":833,"x_min":0,"x_max":0,"o":"m 272 908 b 189 825 226 908 189 871 b 272 742 189 779 226 742 b 356 824 318 742 356 779 b 272 908 356 871 319 908 z m 561 908 b 478 825 515 908 478 871 b 561 742 478 779 515 742 b 644 824 607 742 644 779 b 561 908 644 871 608 908 z "},"˚":{"ha":833,"x_min":0,"x_max":0,"o":"m 417 1010 b 246 842 324 1010 246 933 b 417 675 246 751 324 675 b 588 840 508 675 588 751 b 417 1010 588 935 511 1010 z m 417 936 b 514 842 469 936 514 893 b 417 750 514 793 469 750 b 319 843 364 750 319 793 b 417 936 319 893 364 936 z "},"¸":{"ha":833,"x_min":0,"x_max":0,"o":"m 364 0 l 364 -142 b 394 -139 379 -139 386 -139 b 468 -186 442 -139 468 -156 b 418 -221 468 -208 450 -221 b 339 -197 394 -221 363 -211 b 299 -182 313 -183 310 -182 b 250 -231 272 -182 250 -204 b 289 -285 250 -253 263 -269 b 417 -318 324 -304 379 -318 b 565 -183 504 -318 565 -262 b 461 -57 565 -112 532 -71 l 461 0 z "},"˝":{"ha":833,"x_min":0,"x_max":0,"o":"m 404 864 b 432 914 425 885 432 899 b 385 964 432 940 410 964 b 344 943 369 964 360 958 l 203 790 b 174 740 175 758 174 757 b 222 689 174 714 197 689 b 263 711 235 689 249 697 z m 632 864 b 660 914 658 894 660 896 b 613 964 660 940 638 964 b 572 943 597 964 588 958 l 431 790 b 401 740 401 757 401 757 b 450 689 401 714 425 689 b 490 711 463 689 476 696 z "},"˛":{"ha":833,"x_min":0,"x_max":0,"o":"m 457 0 b 347 -165 378 -51 347 -96 b 478 -289 347 -242 397 -289 b 594 -262 515 -289 557 -279 b 643 -203 628 -247 643 -228 b 590 -150 643 -174 619 -150 b 558 -158 579 -150 572 -151 b 486 -183 518 -179 506 -183 b 454 -156 465 -183 454 -174 b 593 0 454 -111 492 -68 z "},"ˇ":{"ha":833,"x_min":0,"x_max":0,"o":"m 418 814 l 261 947 b 222 967 243 964 236 967 b 174 917 196 967 174 944 b 207 868 174 899 176 894 l 418 690 l 628 868 b 661 917 658 894 661 897 b 614 967 661 944 639 967 b 574 947 600 967 592 963 z "},"—":{"ha":833,"x_min":0,"x_max":0,"o":"m 782 318 b 840 328 813 318 829 321 b 874 388 861 342 874 364 b 846 444 874 410 864 431 b 782 457 832 454 818 457 l 51 457 b -7 447 17 457 6 456 b -40 388 -28 433 -40 411 b -11 331 -40 365 -29 344 b 51 318 1 321 17 318 z "},"Æ":{"ha":833,"x_min":0,"x_max":0,"o":"m 74 139 l 64 139 b 6 129 29 139 18 138 b -28 69 -15 115 -28 94 b 64 0 -28 24 3 0 l 196 0 b 275 74 246 0 275 26 b 218 139 275 110 254 133 l 242 219 l 371 219 l 371 139 l 360 139 b 290 72 321 139 290 110 b 368 0 290 28 321 0 l 853 0 l 853 171 b 843 229 853 207 851 217 b 783 263 831 250 807 263 b 726 233 761 263 740 251 b 714 171 717 219 714 206 l 714 139 l 510 139 l 510 338 l 536 338 b 606 260 538 289 564 260 b 663 289 628 260 649 271 b 675 351 672 303 675 314 l 675 460 b 665 518 675 496 674 506 b 606 551 653 539 629 551 b 536 475 564 551 539 524 l 510 475 l 510 671 l 685 671 l 685 581 b 694 522 685 549 688 533 b 754 489 708 501 731 489 b 811 518 776 489 797 500 b 824 581 821 532 824 543 l 824 810 l 214 810 b 156 800 178 810 168 808 b 122 740 135 788 122 764 b 151 683 122 718 133 697 b 214 671 164 674 179 671 l 233 671 z m 371 360 l 282 360 l 371 654 z "},"ª":{"ha":833,"x_min":0,"x_max":0,"o":"m 492 394 l 610 394 b 679 449 656 394 679 414 b 608 503 679 486 657 503 l 600 503 l 600 681 b 406 826 600 774 529 826 b 243 799 356 826 290 815 b 210 751 221 790 210 774 b 263 696 210 721 233 696 b 301 703 271 696 286 699 b 411 718 349 714 378 718 b 492 681 468 718 492 707 l 492 669 b 406 676 451 675 433 676 b 203 603 311 676 247 653 b 164 513 178 576 164 543 b 342 379 164 439 243 379 b 492 410 396 379 435 388 z m 492 532 b 350 489 454 507 396 489 b 290 519 315 489 290 501 b 400 579 290 551 342 579 b 492 569 428 579 447 578 z m 600 253 b 671 307 647 253 671 271 b 599 360 671 343 649 360 l 244 360 b 172 315 188 360 172 350 b 244 253 172 261 182 253 z "},"Ł":{"ha":833,"x_min":0,"x_max":0,"o":"m 356 671 l 435 671 b 493 681 467 671 482 674 b 526 740 514 693 526 717 b 497 797 526 763 517 783 b 435 810 483 807 472 810 l 138 810 b 79 800 101 810 92 808 b 46 740 58 788 46 764 b 74 683 46 718 57 697 b 138 671 88 674 103 671 l 217 671 l 217 442 l 72 358 b 17 288 28 332 17 318 b 83 217 17 250 49 217 b 142 238 99 217 119 224 l 217 282 l 217 139 l 138 139 b 79 129 101 139 92 138 b 46 69 58 117 46 93 b 138 0 46 24 76 0 l 793 0 l 793 265 b 783 325 793 300 790 313 b 724 358 769 346 749 358 b 667 331 701 358 682 349 b 654 265 657 317 654 303 l 654 139 l 356 139 l 356 339 l 546 451 b 600 522 589 476 600 490 b 535 592 600 558 569 592 b 478 571 518 592 504 586 l 356 499 z "},"Ø":{"ha":833,"x_min":0,"x_max":0,"o":"m 221 39 b 417 -19 281 0 347 -19 b 804 404 631 -19 804 171 b 719 671 804 507 776 594 l 792 761 b 819 819 814 790 819 801 b 753 886 819 856 789 886 b 688 843 726 886 715 879 l 624 763 b 417 829 557 807 489 829 b 28 406 201 829 28 639 b 121 128 28 297 57 210 l 42 26 b 13 -32 18 -3 13 -14 b 81 -97 13 -68 43 -97 b 146 -56 107 -97 118 -90 z m 628 556 b 665 403 651 511 665 457 b 417 119 665 249 551 119 b 307 149 379 119 342 129 z m 211 242 b 167 406 182 292 167 346 b 415 690 167 561 279 690 b 538 654 458 690 497 679 z "},"Œ":{"ha":833,"x_min":0,"x_max":0,"o":"m 508 338 l 535 338 b 604 260 536 289 561 260 b 660 289 625 260 646 271 b 672 351 669 303 672 314 l 672 458 b 663 518 672 494 671 506 b 603 551 650 539 628 551 b 535 475 561 551 538 525 l 508 475 l 508 671 l 685 671 l 685 581 b 694 522 685 547 688 533 b 754 489 707 501 731 489 b 811 517 776 489 797 500 b 824 581 821 531 824 543 l 824 810 l 360 810 b -28 406 133 810 -28 642 b 360 0 -28 169 135 0 l 850 0 l 850 169 b 840 228 850 206 849 215 b 782 261 828 249 806 261 b 725 233 760 261 739 251 b 713 169 715 219 713 207 l 713 139 l 508 139 z m 369 139 b 231 172 306 139 269 149 b 111 404 160 215 111 310 b 215 628 111 492 153 582 b 369 671 257 658 299 669 z "},"º":{"ha":833,"x_min":0,"x_max":0,"o":"m 418 826 b 182 597 289 826 182 722 b 418 379 182 476 288 379 b 654 594 549 379 654 476 b 418 826 654 724 550 826 z m 418 718 b 544 597 488 718 544 663 b 418 488 544 539 485 488 b 292 597 351 488 292 539 b 418 718 292 663 349 718 z m 594 253 b 667 307 643 253 667 271 b 594 360 667 343 644 360 l 242 360 b 169 307 192 360 169 343 b 242 253 169 271 193 253 z "},"æ":{"ha":833,"x_min":0,"x_max":0,"o":"m 849 239 l 849 303 b 782 531 849 396 825 474 b 604 625 733 592 671 625 b 449 547 544 625 499 601 b 288 625 400 601 353 625 b 121 592 253 625 171 608 b 64 522 83 579 64 557 b 131 451 64 483 94 451 b 163 457 139 451 151 453 b 288 486 253 483 264 486 b 354 418 326 486 354 457 l 354 390 b 271 397 317 394 292 397 b 63 336 206 397 118 372 b -18 201 4 299 -18 263 b 221 -22 -18 65 75 -22 b 374 22 282 -22 321 -11 b 424 -1 388 6 403 -1 b 475 22 446 -1 463 7 b 615 -22 525 -11 558 -22 b 815 29 681 -22 767 0 b 850 92 838 44 850 65 b 786 164 850 133 824 164 b 707 140 768 164 749 158 b 613 117 668 122 643 117 b 500 239 556 117 524 151 z m 354 181 b 219 117 299 133 263 117 b 122 197 161 117 122 149 b 140 238 122 214 128 226 b 276 274 168 258 224 274 b 354 263 301 274 322 271 z m 503 358 b 521 426 508 390 513 408 b 600 486 536 463 568 486 b 676 435 631 486 661 465 b 697 358 686 415 692 396 z "},"ı":{"ha":833,"x_min":0,"x_max":0,"o":"m 486 607 l 239 607 b 179 597 201 607 192 606 b 146 538 158 585 146 563 b 239 468 146 490 176 468 l 347 468 l 347 139 l 178 139 b 119 129 142 139 132 138 b 86 69 99 117 86 93 b 114 14 86 47 97 26 b 178 0 126 4 146 0 l 656 0 b 714 10 683 0 704 4 b 747 69 735 24 747 46 b 718 126 747 92 738 113 b 656 139 704 136 693 139 l 486 139 z "},"ł":{"ha":833,"x_min":0,"x_max":0,"o":"m 486 867 l 243 867 b 183 857 208 867 196 865 b 150 797 163 844 150 821 b 179 742 150 775 161 754 b 243 728 192 731 207 728 l 347 728 l 347 499 l 232 433 b 178 361 190 410 178 392 b 244 290 178 324 210 290 b 300 310 260 290 275 296 l 347 338 l 347 139 l 178 139 b 119 129 142 139 132 138 b 86 69 99 115 86 94 b 115 14 86 47 96 26 b 178 0 126 4 146 0 l 656 0 b 747 69 717 0 747 24 b 719 126 747 92 738 113 b 656 139 704 136 693 139 l 486 139 l 486 393 l 604 461 b 658 532 646 483 658 501 b 590 604 658 571 626 604 b 535 582 574 604 564 600 l 486 554 z "},"ø":{"ha":833,"x_min":0,"x_max":0,"o":"m 761 558 b 796 621 790 586 796 597 b 731 686 796 657 767 686 b 667 650 707 686 696 681 l 600 582 b 414 625 553 607 475 625 b 58 301 215 625 58 482 b 133 100 58 231 85 158 l 67 31 b 32 -31 39 3 32 -10 b 99 -97 32 -68 61 -97 b 161 -61 121 -97 132 -90 l 239 19 b 417 -22 296 -8 354 -22 b 775 301 618 -22 775 119 b 703 499 775 371 750 439 z m 606 397 b 636 301 626 367 636 335 b 415 117 636 197 540 117 b 343 126 388 117 368 119 z m 232 201 b 197 301 208 235 197 267 b 417 486 197 406 293 486 b 496 475 443 486 465 483 z "},"œ":{"ha":833,"x_min":0,"x_max":0,"o":"m 850 238 l 850 300 b 774 540 850 400 824 486 b 606 625 725 596 667 625 b 421 514 531 625 469 588 b 236 625 367 589 308 625 b -15 294 94 625 -15 481 b 239 -22 -15 118 97 -22 b 421 81 308 -22 372 14 b 608 -22 469 11 529 -22 b 800 19 664 -22 753 -3 b 851 90 838 39 851 57 b 783 163 851 131 821 163 b 750 156 772 163 761 160 b 617 117 672 121 657 117 b 500 238 557 117 518 157 z m 239 485 b 356 299 304 485 356 403 b 240 117 356 199 303 117 b 124 300 175 117 124 199 b 239 485 124 403 175 485 z m 504 357 b 525 425 513 390 518 408 b 603 485 542 463 571 485 b 678 431 632 485 661 464 b 700 357 686 413 693 393 z "},"ß":{"ha":833,"x_min":0,"x_max":0,"o":"m 132 139 l 110 139 b 51 129 75 139 64 136 b 18 69 31 117 18 93 b 46 13 18 49 29 26 b 110 0 58 4 76 0 l 239 0 b 331 71 301 0 331 22 b 271 139 331 108 310 132 l 271 640 b 372 726 271 697 306 726 b 481 638 436 726 481 690 b 446 576 481 614 468 590 b 383 558 431 565 419 563 b 310 490 336 554 310 529 b 386 421 310 449 335 426 b 539 360 458 413 500 396 b 596 228 575 325 596 278 b 531 117 596 160 569 117 b 489 157 508 117 494 131 b 424 217 479 201 463 217 b 354 135 381 217 354 186 b 519 -22 354 43 424 -22 b 735 229 649 -22 735 78 b 571 507 735 346 678 444 b 619 633 608 551 619 581 b 372 865 619 767 514 865 b 132 664 232 865 132 782 z "},"¹":{"ha":833,"x_min":0,"x_max":0,"o":"m 464 886 l 281 839 b 233 792 246 829 233 818 b 276 743 233 765 253 743 b 304 749 285 743 288 743 l 371 765 l 371 436 l 292 436 b 231 390 250 436 231 421 b 292 343 231 360 251 343 l 543 343 b 603 390 582 343 603 360 b 543 436 603 421 583 436 l 464 436 z "},"¬":{"ha":833,"x_min":0,"x_max":0,"o":"m 676 551 l 676 271 b 704 233 676 246 686 233 b 733 271 724 233 733 246 l 733 608 l 138 608 b 100 579 113 608 100 599 b 138 551 100 561 113 551 z "},"µ":{"ha":833,"x_min":0,"x_max":0,"o":"m 271 -10 b 353 -22 299 -18 324 -22 b 569 31 424 -22 493 -6 l 569 0 l 701 0 b 760 10 731 0 749 3 b 793 69 781 24 793 46 b 708 139 793 114 763 139 l 708 607 l 521 607 b 463 597 488 607 475 606 b 429 538 442 585 429 561 b 457 482 429 515 440 494 b 521 468 471 471 486 468 l 569 468 l 569 192 b 361 117 481 138 422 117 b 271 200 297 117 271 140 l 271 607 l 110 607 l 89 607 b 18 538 49 607 18 576 b 46 482 18 515 29 494 b 110 468 60 471 75 468 l 132 468 l 132 -121 b 142 -179 132 -153 135 -168 b 201 -212 156 -200 178 -212 b 258 -183 224 -212 244 -203 b 271 -121 268 -169 271 -157 z "},"™":{"ha":833,"x_min":0,"x_max":0,"o":"m 206 708 l 254 708 l 254 640 b 306 576 254 599 272 576 b 357 640 339 576 357 599 l 357 810 l -46 810 l -46 640 b 4 576 -46 599 -28 576 b 56 640 38 576 56 599 l 56 708 l 104 708 l 104 407 l 72 407 b 8 357 31 407 8 390 b 72 306 8 324 31 306 l 236 306 b 301 357 278 306 301 324 b 236 407 301 390 279 407 l 206 407 z m 521 599 l 606 421 l 632 421 l 710 596 l 710 407 b 644 357 667 407 644 390 b 710 306 644 324 668 306 l 797 306 b 861 357 839 306 861 324 b 811 407 861 386 843 404 l 811 710 b 854 760 838 714 854 733 b 790 810 854 793 832 810 l 688 810 l 615 631 l 542 810 l 440 810 b 376 760 397 810 376 793 b 419 710 376 733 393 714 l 419 407 b 369 357 388 404 369 385 b 433 306 369 324 392 306 l 521 306 b 586 357 564 306 586 324 b 521 407 586 390 564 407 z "},"Ð":{"ha":833,"x_min":0,"x_max":0,"o":"m 103 338 l 103 139 b 18 69 49 139 18 114 b 47 14 18 49 29 26 b 110 0 60 4 78 0 l 394 0 b 764 358 611 -7 763 142 l 764 424 b 406 810 764 640 606 813 l 111 810 b 51 800 74 810 64 808 b 18 740 31 788 18 764 b 103 671 18 696 49 671 l 103 476 l 93 476 b 33 467 56 476 46 475 b 0 407 13 454 0 431 b 92 338 0 361 31 338 z m 242 338 l 344 338 b 436 407 406 338 436 361 b 407 464 436 429 426 450 b 344 476 393 474 382 476 l 242 476 l 242 671 l 394 671 b 625 426 525 676 622 574 l 625 363 b 396 139 626 221 536 133 l 242 139 z "},"½":{"ha":833,"x_min":0,"x_max":0,"o":"m 225 914 l 58 867 b 10 819 21 857 10 846 b 51 771 10 793 29 771 b 82 776 60 771 74 774 l 132 793 l 132 464 l 68 464 b 8 418 28 464 8 449 b 68 371 8 388 29 371 l 294 371 b 347 418 329 371 347 388 b 294 464 347 449 331 464 l 225 464 z m 638 733 b 649 771 643 743 649 763 b 603 815 649 794 626 815 b 557 779 583 815 569 806 l 233 153 b 222 117 226 140 222 125 b 268 71 222 92 243 71 b 314 107 288 71 301 82 z m 615 56 b 826 338 799 229 826 267 b 651 504 826 433 753 504 b 525 456 603 504 557 486 b 475 360 497 429 475 388 b 519 314 475 335 496 314 b 558 342 538 314 554 325 b 575 378 568 369 568 369 b 647 411 592 400 618 411 b 733 342 697 411 733 381 b 471 57 733 303 696 264 l 471 -37 l 828 -37 l 828 40 b 785 100 828 81 814 100 b 742 56 760 100 746 85 z "},"±":{"ha":833,"x_min":0,"x_max":0,"o":"m 486 458 l 682 458 b 742 468 714 458 731 461 b 775 528 763 481 775 504 b 746 585 775 550 764 571 b 682 597 732 594 721 597 l 486 597 l 486 775 b 476 833 486 811 485 821 b 417 867 464 854 442 867 b 361 839 394 867 374 857 b 347 775 350 825 347 811 l 347 597 l 150 597 b 92 588 115 597 104 596 b 58 528 71 575 58 551 b 88 472 58 506 69 485 b 150 458 100 461 117 458 l 347 458 l 347 319 b 357 261 347 288 350 274 b 417 228 369 240 393 228 b 474 257 439 228 460 239 b 486 319 483 271 486 282 z m 150 139 b 92 129 115 139 104 138 b 58 69 71 117 58 93 b 88 14 58 47 69 26 b 150 0 100 3 117 0 l 683 0 b 742 10 714 0 731 3 b 775 69 763 22 775 46 b 747 126 775 92 764 113 b 683 139 732 136 721 139 z "},"Þ":{"ha":833,"x_min":0,"x_max":0,"o":"m 271 194 l 407 194 b 678 279 549 194 621 217 b 726 406 708 313 726 360 b 678 531 726 451 708 497 b 407 615 621 593 549 615 l 271 615 l 271 671 l 408 671 b 467 681 443 671 454 672 b 500 740 488 693 500 715 b 408 810 500 788 469 810 l 111 810 b 53 800 82 810 64 807 b 19 740 32 788 19 764 b 49 683 19 718 31 697 b 111 671 63 674 74 671 l 132 671 l 132 139 l 111 139 b 53 129 78 139 65 138 b 19 69 32 117 19 93 b 49 14 19 49 31 26 b 111 0 60 4 79 0 l 408 0 b 500 69 469 0 500 24 b 472 126 500 92 490 113 b 408 139 457 136 446 139 l 271 139 z m 271 333 l 271 476 l 453 476 b 585 404 546 476 585 456 b 453 333 585 354 546 333 z "},"¼":{"ha":833,"x_min":0,"x_max":0,"o":"m 757 490 l 640 490 l 438 154 l 438 78 l 664 78 l 664 56 l 638 56 b 578 10 597 56 578 40 b 638 -37 578 -21 599 -37 l 747 -37 b 808 10 788 -37 808 -21 b 757 56 808 38 789 54 l 757 78 b 808 125 790 79 808 97 b 757 171 808 153 789 169 z m 664 171 l 554 171 l 664 350 z m 225 914 l 58 867 b 10 819 21 857 10 846 b 51 771 10 793 29 771 b 82 776 60 771 74 774 l 132 793 l 132 464 l 68 464 b 8 418 28 464 8 449 b 68 371 8 388 29 371 l 294 371 b 347 418 329 371 347 388 b 294 464 347 449 331 464 l 225 464 z m 656 733 b 667 771 660 742 667 764 b 621 815 667 794 644 815 b 575 779 601 815 589 806 l 253 153 b 240 117 244 139 240 125 b 286 71 240 92 261 71 b 333 107 306 71 319 82 z "},"÷":{"ha":833,"x_min":0,"x_max":0,"o":"m 150 458 b 92 449 115 458 104 457 b 58 389 71 436 58 413 b 88 333 58 367 69 346 b 150 319 100 322 117 319 l 683 319 b 742 329 714 319 731 322 b 775 389 763 342 775 365 b 747 446 775 411 764 432 b 683 458 732 456 721 458 z m 417 222 b 313 131 354 222 313 186 b 417 39 313 75 354 39 b 521 129 479 39 521 75 b 417 222 521 186 481 222 z m 417 739 b 313 647 354 739 313 703 b 417 556 313 592 354 556 b 521 646 479 556 521 592 b 417 739 521 703 481 739 z "},"¦":{"ha":833,"x_min":0,"x_max":0,"o":"m 464 819 b 417 876 464 856 447 876 b 371 819 388 876 371 856 l 371 449 b 417 393 371 414 388 393 b 464 449 447 393 464 414 z m 464 254 b 417 310 464 289 447 310 b 371 254 389 310 371 289 l 371 -117 b 417 -172 371 -151 388 -172 b 464 -117 447 -172 464 -151 z "},"°":{"ha":833,"x_min":0,"x_max":0,"o":"m 417 828 b 174 583 282 828 174 718 b 414 338 174 449 282 338 b 660 583 551 338 660 446 b 417 828 660 719 551 828 z m 417 743 b 575 583 504 743 575 672 b 415 422 575 493 504 422 b 258 583 329 422 258 496 b 417 743 258 672 329 743 z "},"þ":{"ha":833,"x_min":0,"x_max":0,"o":"m 242 92 b 457 14 314 36 375 14 b 793 311 651 14 793 140 b 456 625 793 492 649 625 b 242 544 368 625 310 603 l 242 867 l 81 867 b 22 857 46 867 35 864 b -11 797 1 844 -11 821 b 17 742 -11 775 0 754 b 81 728 31 731 44 728 l 103 728 l 103 -146 l 81 -146 b 22 -156 46 -146 35 -147 b -11 -215 1 -168 -11 -192 b 17 -271 -11 -237 -1 -258 b 81 -285 31 -282 46 -285 l 322 -285 b 414 -215 385 -285 414 -262 b 386 -158 414 -193 404 -172 b 322 -146 372 -149 358 -146 l 242 -146 z m 449 486 b 588 446 506 486 551 474 b 654 319 628 417 654 365 b 449 153 654 222 568 153 b 242 321 326 153 242 222 b 308 446 242 365 268 417 b 449 486 344 474 389 486 z "},"¾":{"ha":833,"x_min":0,"x_max":0,"o":"m 164 697 b 119 650 138 697 119 678 b 163 606 119 624 135 608 b 219 594 199 603 204 603 b 275 521 254 579 275 550 b 161 449 275 472 238 449 b 75 467 114 449 94 453 b 49 478 63 476 58 478 b 8 431 26 478 8 457 b 168 356 8 385 71 356 b 310 394 233 356 276 367 b 368 519 346 424 368 471 b 292 647 368 571 340 618 b 353 758 333 679 353 714 b 192 910 353 846 285 910 b 31 813 107 910 31 864 b 71 765 31 786 49 765 b 100 779 82 765 93 771 b 182 817 124 808 143 817 b 260 758 229 817 260 794 b 194 697 260 725 229 697 z m 758 490 l 642 490 l 439 154 l 439 78 l 665 78 l 665 56 l 639 56 b 579 10 599 56 579 40 b 639 -37 579 -21 600 -37 l 749 -37 b 810 10 789 -37 810 -21 b 758 56 810 38 790 54 l 758 78 b 810 125 792 79 810 97 b 758 171 810 153 790 169 z m 665 171 l 556 171 l 665 350 z m 657 733 b 667 771 661 740 667 764 b 621 815 667 794 644 815 b 576 779 603 815 589 806 l 253 153 b 242 117 246 142 242 125 b 288 71 242 92 263 71 b 333 107 306 71 321 82 z "},"²":{"ha":833,"x_min":0,"x_max":0,"o":"m 351 436 b 590 718 560 611 590 647 b 408 885 590 814 513 885 b 275 836 357 885 310 867 b 224 740 246 810 224 768 b 271 694 224 715 244 694 b 313 722 289 694 307 706 b 329 758 321 749 322 750 b 407 792 347 781 375 792 b 497 722 458 792 497 761 b 222 451 497 683 467 654 l 207 438 l 207 343 l 596 343 l 596 421 b 549 481 596 461 581 481 b 503 436 522 481 507 465 z "},"®":{"ha":833,"x_min":0,"x_max":0,"o":"m 374 342 l 394 342 b 504 175 433 324 488 243 l 560 175 b 621 225 599 175 621 193 b 571 274 621 253 603 271 b 497 369 542 325 531 339 b 582 490 549 393 582 440 b 406 636 582 576 510 636 l 276 636 b 214 586 236 636 214 619 b 274 538 214 556 235 539 l 274 274 b 214 225 235 274 214 256 b 276 175 214 193 236 175 l 371 175 b 432 225 410 175 432 193 b 374 274 432 256 411 274 z m 374 439 l 374 538 l 408 538 b 483 493 454 538 483 519 b 408 439 483 463 451 439 z m 415 831 b -10 406 181 831 -10 640 b 411 -21 -10 172 181 -21 b 842 406 651 -21 842 167 b 415 831 842 640 651 831 z m 417 729 b 740 406 594 729 740 585 b 413 81 740 224 596 81 b 92 406 238 81 92 228 b 417 729 92 585 238 729 z "},"−":{"ha":833,"x_min":0,"x_max":0,"o":"m 150 458 b 92 449 115 458 104 457 b 58 389 71 436 58 413 b 88 333 58 367 69 346 b 150 319 100 322 117 319 l 683 319 b 742 329 714 319 731 322 b 775 389 763 342 775 365 b 747 446 775 411 764 432 b 683 458 732 456 721 458 z "},"ð":{"ha":833,"x_min":0,"x_max":0,"o":"m 579 810 b 611 851 600 819 611 835 b 568 897 611 878 592 897 b 522 885 554 897 539 893 l 415 828 b 311 874 347 858 314 872 b 239 889 276 885 257 889 b 183 839 208 889 183 865 b 219 796 183 819 196 804 l 242 789 b 267 778 243 789 253 785 b 296 765 271 776 283 771 l 226 725 b 193 685 197 708 193 704 b 235 633 193 656 211 633 b 279 650 249 633 253 635 l 407 719 b 597 550 474 681 543 618 b 397 615 510 601 467 615 b 58 293 210 615 58 472 b 417 -22 58 118 218 -22 b 679 76 514 -22 610 14 b 775 324 746 138 775 213 b 517 775 775 511 696 650 z m 417 486 b 633 292 539 486 633 401 b 417 117 633 196 535 117 b 200 294 296 117 200 196 b 417 486 200 401 296 486 z "},"×":{"ha":833,"x_min":0,"x_max":0,"o":"m 417 290 l 560 147 b 625 111 590 118 601 111 b 694 181 663 111 694 142 b 658 246 694 203 686 217 l 515 389 l 658 532 b 694 597 688 561 694 575 b 625 667 694 635 663 667 b 560 631 601 667 590 661 l 417 488 l 274 631 b 208 667 244 660 232 667 b 139 597 171 667 139 635 b 175 532 139 574 144 563 l 318 389 l 175 246 b 139 182 146 217 139 204 b 208 111 139 143 169 111 b 274 147 232 111 244 118 z "},"³":{"ha":833,"x_min":0,"x_max":0,"o":"m 397 672 b 350 625 369 672 350 653 b 397 581 350 600 368 583 b 460 569 436 579 443 578 b 521 496 497 554 521 525 b 392 424 521 447 478 424 b 294 442 338 424 315 428 b 264 453 281 451 275 453 b 218 406 238 453 218 432 b 396 331 218 360 288 331 b 550 369 465 331 514 343 b 614 493 589 399 614 446 b 525 622 614 547 582 593 b 596 735 575 654 596 689 b 419 885 596 821 522 885 b 243 788 326 885 243 839 b 289 740 243 761 264 740 b 322 754 301 740 314 746 b 415 792 347 783 369 792 b 503 733 468 792 503 769 b 432 672 503 700 469 672 z "},"©":{"ha":833,"x_min":0,"x_max":0,"o":"m 188 374 b 421 164 188 253 286 164 b 610 268 519 164 610 214 b 560 318 610 296 588 318 b 525 303 547 318 536 313 b 421 263 493 269 475 263 b 286 375 339 263 286 307 l 286 422 b 407 549 286 496 336 549 b 500 500 454 549 496 528 b 550 450 507 465 521 450 b 599 511 582 450 599 471 l 599 586 b 553 647 599 628 583 647 b 514 621 533 647 521 639 b 404 647 475 640 444 647 b 188 424 281 647 188 551 z m 415 831 b -10 406 181 831 -10 640 b 411 -21 -10 172 181 -21 b 842 406 651 -21 842 167 b 415 831 842 640 651 831 z m 417 729 b 740 406 594 729 740 585 b 413 81 740 224 596 81 b 92 406 238 81 92 228 b 417 729 92 585 236 729 z "},"Á":{"ha":833,"x_min":0,"x_max":0,"o":"m 578 219 l 610 139 l 578 139 b 519 129 542 139 532 138 b 486 69 499 117 486 93 b 514 14 486 47 497 26 b 578 0 528 4 544 0 l 771 0 b 863 69 832 0 863 22 b 835 126 863 92 853 113 b 768 139 819 136 807 139 l 492 810 l 192 810 b 132 800 154 810 144 808 b 99 740 111 786 99 764 b 128 683 99 718 110 697 b 192 671 142 674 156 671 l 279 671 l 64 139 b 4 129 29 139 17 138 b -29 69 -17 117 -29 93 b 63 0 -29 22 1 0 l 247 0 b 306 10 276 0 294 3 b 339 69 326 24 339 46 b 311 126 339 92 329 113 b 247 139 296 136 285 139 l 215 139 l 247 219 z m 521 358 l 303 358 l 413 625 z m 569 1065 b 601 1115 594 1085 601 1097 b 550 1165 601 1143 579 1165 b 506 1144 535 1165 525 1161 l 319 989 b 289 939 299 972 289 956 b 340 889 289 913 313 889 b 383 911 353 889 364 894 z "},"Â":{"ha":833,"x_min":0,"x_max":0,"o":"m 578 219 l 610 139 l 578 139 b 519 129 542 139 532 138 b 486 69 499 117 486 93 b 514 14 486 47 497 26 b 578 0 528 4 544 0 l 771 0 b 863 69 832 0 863 22 b 835 126 863 92 853 113 b 768 139 819 136 807 139 l 492 810 l 192 810 b 132 800 154 810 144 808 b 99 740 111 786 99 764 b 128 683 99 718 110 697 b 192 671 142 674 156 671 l 279 671 l 64 139 b 4 129 29 139 17 138 b -29 69 -17 117 -29 93 b 63 0 -29 22 1 0 l 247 0 b 306 10 276 0 294 3 b 339 69 326 24 339 46 b 311 126 339 92 329 113 b 247 139 296 136 285 139 l 215 139 l 247 219 z m 521 358 l 303 358 l 413 625 z m 394 1042 l 550 907 b 590 889 565 894 576 889 b 638 939 615 889 638 911 b 613 981 638 956 632 964 l 604 988 l 394 1165 l 183 988 b 150 938 153 961 150 957 b 197 889 150 911 172 889 b 236 907 211 889 221 893 z "},"Ä":{"ha":833,"x_min":0,"x_max":0,"o":"m 578 219 l 610 139 l 578 139 b 519 129 542 139 532 138 b 486 69 499 117 486 93 b 514 14 486 47 497 26 b 578 0 528 4 544 0 l 771 0 b 863 69 832 0 863 22 b 835 126 863 92 853 113 b 768 139 819 136 807 139 l 492 810 l 192 810 b 132 800 154 810 144 808 b 99 740 111 786 99 764 b 128 683 99 718 110 697 b 192 671 142 674 156 671 l 279 671 l 64 139 b 4 129 29 139 17 138 b -29 69 -17 117 -29 93 b 63 0 -29 22 1 0 l 247 0 b 306 10 276 0 294 3 b 339 69 326 24 339 46 b 311 126 339 92 329 113 b 247 139 296 136 285 139 l 215 139 l 247 219 z m 521 358 l 303 358 l 413 625 z m 249 1108 b 165 1025 203 1108 165 1071 b 249 942 165 979 203 942 b 332 1024 294 942 332 979 b 249 1108 332 1071 296 1108 z m 538 1108 b 454 1025 492 1108 454 1071 b 538 942 454 979 492 942 b 621 1024 583 942 621 979 b 538 1108 621 1071 585 1108 z "},"À":{"ha":833,"x_min":0,"x_max":0,"o":"m 578 219 l 610 139 l 578 139 b 519 129 542 139 532 138 b 486 69 499 117 486 93 b 514 14 486 47 497 26 b 578 0 528 4 544 0 l 771 0 b 863 69 832 0 863 22 b 835 126 863 92 853 113 b 768 139 819 136 807 139 l 492 810 l 192 810 b 132 800 154 810 144 808 b 99 740 111 786 99 764 b 128 683 99 718 110 697 b 192 671 142 674 156 671 l 279 671 l 64 139 b 4 129 29 139 17 138 b -29 69 -17 117 -29 93 b 63 0 -29 22 1 0 l 247 0 b 306 10 276 0 294 3 b 339 69 326 24 339 46 b 311 126 339 92 329 113 b 247 139 296 136 285 139 l 215 139 l 247 219 z m 521 358 l 303 358 l 413 625 z m 292 1144 b 247 1165 269 1161 263 1165 b 196 1115 218 1165 196 1143 b 226 1065 196 1097 204 1083 l 413 911 b 457 889 431 896 444 889 b 510 939 486 889 510 913 b 476 989 510 957 501 968 z "},"Å":{"ha":833,"x_min":0,"x_max":0,"o":"m 578 219 l 610 139 l 578 139 b 519 129 542 139 532 138 b 486 69 499 117 486 93 b 514 14 486 47 497 26 b 578 0 528 4 544 0 l 771 0 b 863 69 832 0 863 22 b 835 126 863 92 853 113 b 768 139 819 136 807 139 l 492 810 l 192 810 b 132 800 154 810 144 808 b 99 740 111 786 99 764 b 128 683 99 718 110 697 b 192 671 142 674 156 671 l 279 671 l 64 139 b 4 129 29 139 17 138 b -29 69 -17 117 -29 93 b 63 0 -29 22 1 0 l 247 0 b 306 10 276 0 294 3 b 339 69 326 24 339 46 b 311 126 339 92 329 113 b 247 139 296 136 285 139 l 215 139 l 247 219 z m 521 358 l 303 358 l 413 625 z m 393 1210 b 222 1042 300 1210 222 1133 b 393 875 222 951 300 875 b 564 1040 485 875 564 951 b 393 1210 564 1135 488 1210 z m 393 1136 b 490 1042 446 1136 490 1093 b 393 950 490 993 446 950 b 296 1043 340 950 296 993 b 393 1136 296 1093 340 1136 z "},"Ã":{"ha":833,"x_min":0,"x_max":0,"o":"m 578 219 l 610 139 l 578 139 b 519 129 542 139 532 138 b 486 69 499 117 486 93 b 514 14 486 47 497 26 b 578 0 528 4 544 0 l 771 0 b 863 69 832 0 863 22 b 835 126 863 92 853 113 b 768 139 819 136 807 139 l 492 810 l 192 810 b 132 800 154 810 144 808 b 99 740 111 786 99 764 b 128 683 99 718 110 697 b 192 671 142 674 156 671 l 279 671 l 64 139 b 4 129 29 139 17 138 b -29 69 -17 117 -29 93 b 63 0 -29 22 1 0 l 247 0 b 306 10 276 0 294 3 b 339 69 326 24 339 46 b 311 126 339 92 329 113 b 247 139 296 136 285 139 l 215 139 l 247 219 z m 521 358 l 303 358 l 413 625 z m 606 1110 b 557 1076 590 1110 569 1096 b 494 1022 522 1028 517 1022 b 414 1058 478 1022 461 1031 b 289 1110 344 1100 321 1110 b 171 1043 247 1110 206 1086 b 136 972 147 1014 136 990 b 179 931 136 949 154 931 b 211 947 192 931 203 936 b 292 1014 256 1006 265 1014 b 361 985 311 1014 324 1010 b 499 926 424 944 468 926 b 610 993 540 926 572 946 b 650 1071 639 1031 650 1050 b 606 1110 650 1092 629 1110 z "},"Ç":{"ha":833,"x_min":0,"x_max":0,"o":"m 468 -19 b 682 32 564 -14 628 1 b 783 151 743 67 783 114 b 714 221 783 189 751 221 b 664 199 696 221 679 214 b 611 151 626 160 626 160 b 457 119 576 131 521 119 b 185 349 292 119 185 210 l 185 438 b 429 690 185 585 288 690 b 564 657 476 690 525 678 b 624 583 604 635 618 617 b 693 510 633 529 653 510 b 750 539 715 510 736 521 b 763 601 760 551 763 567 l 763 718 b 753 776 763 753 761 764 b 693 810 740 797 718 810 b 635 776 668 810 653 801 b 424 829 538 821 501 829 b 46 438 208 829 46 660 l 46 346 b 371 -12 47 161 175 19 l 371 -142 b 406 -140 399 -140 400 -140 b 475 -186 449 -140 475 -158 b 425 -221 475 -208 457 -221 b 346 -197 401 -221 369 -211 b 306 -182 319 -183 317 -182 b 257 -231 279 -182 257 -204 b 282 -276 257 -249 267 -265 b 426 -318 319 -301 378 -318 b 572 -185 510 -318 572 -261 b 468 -58 572 -112 539 -72 z "},"É":{"ha":833,"x_min":0,"x_max":0,"o":"m 269 338 l 388 338 l 388 328 b 397 269 388 294 389 282 b 456 236 410 249 432 236 b 513 264 478 236 499 246 b 525 328 522 278 525 290 l 525 485 b 519 535 525 514 524 522 b 456 578 511 560 483 578 b 400 549 435 578 414 567 b 388 485 390 535 388 522 l 388 475 l 269 475 l 269 671 l 594 671 l 594 601 b 604 542 594 568 597 554 b 664 508 618 521 640 508 b 721 538 686 508 707 519 b 733 601 731 551 733 563 l 733 810 l 110 810 b 51 800 74 810 64 808 b 18 740 31 786 18 764 b 47 683 18 718 28 697 b 110 671 60 674 75 671 l 131 671 l 131 139 l 110 139 b 51 129 75 139 64 138 b 18 69 31 115 18 93 b 47 14 18 47 28 26 b 110 0 58 4 78 0 l 764 0 l 764 211 b 754 271 764 244 761 260 b 694 304 740 292 718 304 b 638 276 672 304 651 294 b 625 211 628 261 625 250 l 625 139 l 269 139 z m 581 1065 b 613 1115 604 1085 613 1097 b 561 1165 613 1143 590 1165 b 517 1144 546 1165 536 1161 l 331 989 b 299 939 307 971 299 956 b 350 889 299 911 322 889 b 394 911 364 889 376 894 z "},"Ê":{"ha":833,"x_min":0,"x_max":0,"o":"m 269 338 l 388 338 l 388 328 b 397 269 388 294 389 282 b 456 236 410 249 432 236 b 513 264 478 236 499 246 b 525 328 522 278 525 290 l 525 485 b 519 535 525 514 524 522 b 456 578 511 560 483 578 b 400 549 435 578 414 567 b 388 485 390 535 388 522 l 388 475 l 269 475 l 269 671 l 594 671 l 594 601 b 604 542 594 568 597 554 b 664 508 618 521 640 508 b 721 538 686 508 707 519 b 733 601 731 551 733 563 l 733 810 l 110 810 b 51 800 74 810 64 808 b 18 740 31 788 18 764 b 47 683 18 718 29 697 b 110 671 60 674 75 671 l 131 671 l 131 139 l 110 139 b 51 129 76 139 64 138 b 18 69 31 115 18 93 b 47 14 18 47 29 26 b 110 0 58 4 78 0 l 764 0 l 764 211 b 754 271 764 246 761 258 b 694 304 740 292 718 304 b 638 276 672 304 651 294 b 625 211 628 261 625 250 l 625 139 l 269 139 z m 406 1042 l 561 907 b 601 889 578 894 588 889 b 649 939 626 889 649 911 b 615 988 649 957 646 961 l 406 1165 l 194 988 b 161 939 164 963 161 957 b 210 889 161 911 183 889 b 249 907 222 889 232 893 z "},"Ë":{"ha":833,"x_min":0,"x_max":0,"o":"m 269 338 l 388 338 l 388 328 b 397 269 388 294 389 282 b 456 236 410 249 432 236 b 513 264 478 236 499 246 b 525 328 522 278 525 290 l 525 485 b 519 535 525 514 524 522 b 456 578 511 560 483 578 b 400 549 435 578 414 567 b 388 485 390 535 388 522 l 388 475 l 269 475 l 269 671 l 594 671 l 594 601 b 604 542 594 568 597 554 b 664 508 618 521 640 508 b 721 538 686 508 707 519 b 733 601 731 551 733 563 l 733 810 l 110 810 b 51 800 74 810 64 808 b 18 740 31 788 18 764 b 47 683 18 718 29 697 b 110 671 60 674 75 671 l 131 671 l 131 139 l 110 139 b 51 129 76 139 64 138 b 18 69 31 115 18 93 b 47 14 18 47 29 26 b 110 0 58 4 78 0 l 764 0 l 764 211 b 754 271 764 246 761 258 b 694 304 740 292 718 304 b 638 276 672 304 651 294 b 625 211 628 261 625 250 l 625 139 l 269 139 z m 260 1108 b 176 1025 214 1108 176 1071 b 260 942 176 979 214 942 b 343 1024 306 942 343 979 b 260 1108 343 1071 307 1108 z m 549 1108 b 465 1025 503 1108 465 1071 b 549 942 465 979 503 942 b 632 1024 594 942 632 979 b 549 1108 632 1071 596 1108 z "},"È":{"ha":833,"x_min":0,"x_max":0,"o":"m 269 338 l 388 338 l 388 328 b 397 269 388 294 389 282 b 456 236 410 249 432 236 b 513 264 478 236 499 246 b 525 328 522 278 525 290 l 525 485 b 519 535 525 514 524 522 b 456 578 511 560 483 578 b 400 549 435 578 414 567 b 388 485 390 535 388 522 l 388 475 l 269 475 l 269 671 l 594 671 l 594 601 b 604 542 594 568 597 554 b 664 508 618 521 640 508 b 721 538 686 508 707 519 b 733 601 731 551 733 563 l 733 810 l 110 810 b 51 800 74 810 64 808 b 18 740 31 788 18 764 b 47 683 18 718 29 697 b 110 671 60 674 75 671 l 131 671 l 131 139 l 110 139 b 51 129 76 139 64 138 b 18 69 31 115 18 93 b 47 14 18 47 29 26 b 110 0 58 4 78 0 l 764 0 l 764 211 b 754 271 764 246 761 258 b 694 304 740 292 718 304 b 638 276 672 304 651 294 b 625 211 628 261 625 250 l 625 139 l 269 139 z m 293 1144 b 249 1165 272 1161 264 1165 b 197 1115 219 1165 197 1143 b 229 1065 197 1097 206 1085 l 415 911 b 460 889 433 896 446 889 b 511 939 488 889 511 913 b 479 989 511 957 503 969 z "},"Í":{"ha":833,"x_min":0,"x_max":0,"o":"m 486 671 l 626 671 b 685 681 658 671 674 674 b 718 740 706 694 718 717 b 689 797 718 763 708 783 b 626 810 675 807 664 810 l 207 810 b 149 800 171 810 161 808 b 115 740 128 788 115 764 b 143 683 115 718 126 697 b 207 671 157 674 172 671 l 347 671 l 347 139 l 207 139 b 149 129 171 139 161 138 b 115 69 128 117 115 93 b 207 0 115 24 146 0 l 626 0 b 718 69 688 0 718 24 b 689 126 718 92 708 113 b 626 139 675 136 664 139 l 486 139 z m 628 1065 b 660 1115 651 1085 660 1097 b 608 1165 660 1143 638 1165 b 564 1144 593 1165 585 1161 l 379 989 b 347 939 357 971 347 956 b 399 889 347 911 371 889 b 443 911 411 889 424 894 z "},"Î":{"ha":833,"x_min":0,"x_max":0,"o":"m 486 671 l 626 671 b 685 681 658 671 674 674 b 718 740 706 694 718 717 b 689 797 718 763 708 783 b 626 810 675 807 664 810 l 207 810 b 149 800 171 810 161 808 b 115 740 128 788 115 764 b 143 683 115 718 126 697 b 207 671 157 674 172 671 l 347 671 l 347 139 l 207 139 b 149 129 171 139 161 138 b 115 69 128 117 115 93 b 207 0 115 24 146 0 l 626 0 b 718 69 688 0 718 24 b 689 126 718 92 708 113 b 626 139 675 136 664 139 l 486 139 z m 418 1042 l 574 907 b 613 889 589 894 600 889 b 661 939 639 889 661 911 b 640 976 661 954 656 964 b 628 988 635 981 631 985 l 418 1165 l 206 988 b 172 939 174 960 172 958 b 221 889 172 911 194 889 b 260 907 233 889 244 893 z "},"Ï":{"ha":833,"x_min":0,"x_max":0,"o":"m 486 671 l 626 671 b 685 681 658 671 674 674 b 718 740 706 694 718 717 b 689 797 718 763 708 783 b 626 810 675 807 664 810 l 207 810 b 149 800 171 810 161 808 b 115 740 128 788 115 764 b 143 683 115 718 126 697 b 207 671 157 674 172 671 l 347 671 l 347 139 l 207 139 b 149 129 171 139 161 138 b 115 69 128 117 115 93 b 207 0 115 24 146 0 l 626 0 b 718 69 688 0 718 24 b 689 126 718 92 708 113 b 626 139 675 136 664 139 l 486 139 z m 272 1108 b 189 1025 226 1108 189 1071 b 272 942 189 979 226 942 b 356 1024 318 942 356 979 b 272 1108 356 1071 319 1108 z m 561 1108 b 478 1025 515 1108 478 1071 b 561 942 478 979 515 942 b 644 1024 607 942 644 979 b 561 1108 644 1071 608 1108 z "},"Ì":{"ha":833,"x_min":0,"x_max":0,"o":"m 486 671 l 626 671 b 685 681 658 671 674 674 b 718 740 706 694 718 717 b 689 797 718 763 708 783 b 626 810 675 807 664 810 l 207 810 b 149 800 171 810 161 808 b 115 740 128 788 115 764 b 143 683 115 718 126 697 b 207 671 157 674 172 671 l 347 671 l 347 139 l 207 139 b 149 129 171 139 161 138 b 115 69 128 117 115 93 b 207 0 115 24 146 0 l 626 0 b 718 69 688 0 718 24 b 689 126 718 92 708 113 b 626 139 675 136 664 139 l 486 139 z m 306 1144 b 261 1165 283 1161 276 1165 b 210 1115 232 1165 210 1143 b 240 1065 210 1097 218 1083 l 426 911 b 471 889 444 896 458 889 b 524 939 500 889 524 913 b 490 989 524 957 515 968 z "},"Ñ":{"ha":833,"x_min":0,"x_max":0,"o":"m 240 547 l 600 0 l 738 0 l 738 671 b 822 740 793 671 822 696 b 794 797 822 763 813 783 b 731 810 779 807 768 810 l 550 810 b 492 800 514 810 504 808 b 458 740 471 788 458 764 b 486 683 458 718 469 697 b 550 671 500 674 514 671 l 599 671 l 599 265 l 240 810 l 81 810 b 22 800 44 810 35 808 b -11 740 1 788 -11 764 b 18 683 -11 718 0 697 b 81 671 31 674 46 671 l 101 671 l 101 139 b 17 69 46 139 17 114 b 46 14 17 47 28 26 b 110 0 57 4 76 0 l 289 0 b 381 69 350 0 381 24 b 353 126 381 92 371 113 b 289 139 339 136 326 139 l 240 139 z m 626 1110 b 574 1069 608 1108 593 1096 b 517 1022 543 1026 538 1022 b 436 1058 500 1022 482 1031 b 310 1110 365 1100 343 1110 b 194 1046 269 1110 229 1088 b 158 972 171 1017 158 992 b 201 931 158 949 176 931 b 236 950 215 931 226 936 b 314 1014 278 1006 289 1014 b 383 985 333 1014 344 1010 b 521 926 446 944 490 926 b 632 993 563 926 594 946 b 672 1071 663 1031 672 1050 b 626 1110 672 1092 656 1107 z "},"Ó":{"ha":833,"x_min":0,"x_max":0,"o":"m 417 829 b 29 406 203 829 29 639 b 417 -19 29 171 203 -19 b 804 399 628 -19 804 171 b 674 722 804 532 761 639 b 417 829 600 792 510 829 z m 417 690 b 665 401 554 690 665 563 b 417 119 665 249 551 119 b 168 406 281 119 168 249 b 417 690 168 561 281 690 z m 588 1065 b 621 1115 615 1088 621 1097 b 569 1165 621 1143 599 1165 b 524 1144 554 1165 543 1160 l 338 989 b 307 939 317 972 307 956 b 358 889 307 911 331 889 b 401 911 371 889 383 894 z "},"Ô":{"ha":833,"x_min":0,"x_max":0,"o":"m 417 829 b 29 406 203 829 29 639 b 417 -19 29 171 203 -19 b 804 399 628 -19 804 171 b 674 722 804 532 761 639 b 417 829 600 792 510 829 z m 417 690 b 665 401 554 690 665 563 b 417 119 665 249 551 119 b 168 406 281 119 168 249 b 417 690 168 561 281 690 z m 418 1042 l 574 907 b 613 889 589 894 600 889 b 661 938 639 889 661 911 b 628 988 661 958 658 961 l 418 1165 l 206 988 b 172 939 174 961 172 957 b 221 889 172 911 194 889 b 260 907 233 889 244 893 z "},"Ö":{"ha":833,"x_min":0,"x_max":0,"o":"m 417 829 b 29 406 203 829 29 639 b 417 -19 29 171 203 -19 b 804 399 628 -19 804 171 b 674 722 804 532 761 639 b 417 829 600 792 510 829 z m 417 690 b 665 401 554 690 665 563 b 417 119 665 249 551 119 b 168 406 281 119 168 249 b 417 690 168 561 281 690 z m 272 1108 b 189 1025 226 1108 189 1071 b 272 942 189 979 226 942 b 356 1024 318 942 356 979 b 272 1108 356 1071 319 1108 z m 561 1108 b 478 1025 515 1108 478 1071 b 561 942 478 979 515 942 b 644 1024 607 942 644 979 b 561 1108 644 1071 608 1108 z "},"Ò":{"ha":833,"x_min":0,"x_max":0,"o":"m 417 829 b 29 406 203 829 29 639 b 417 -19 29 171 203 -19 b 804 399 628 -19 804 171 b 674 722 804 532 761 639 b 417 829 600 792 510 829 z m 417 690 b 665 401 554 690 665 563 b 417 119 665 249 551 119 b 168 406 281 119 168 249 b 417 690 168 561 281 690 z m 310 1144 b 265 1165 289 1161 281 1165 b 214 1115 236 1165 214 1143 b 246 1065 214 1097 222 1085 l 432 911 b 476 889 450 896 463 889 b 528 939 504 889 528 911 b 496 989 528 957 519 969 z "},"Õ":{"ha":833,"x_min":0,"x_max":0,"o":"m 417 829 b 29 406 203 829 29 639 b 417 -19 29 171 203 -19 b 804 399 628 -19 804 171 b 674 722 804 532 761 639 b 417 829 600 792 510 829 z m 417 690 b 665 401 554 690 665 563 b 417 119 665 249 551 119 b 168 406 281 119 168 249 b 417 690 168 561 281 690 z m 639 1110 b 585 1069 622 1110 604 1096 b 528 1022 554 1026 549 1022 b 447 1058 511 1022 494 1031 b 322 1110 378 1100 354 1110 b 208 1047 282 1110 242 1088 b 169 972 183 1018 169 992 b 213 931 169 949 188 931 b 244 947 225 931 236 936 b 325 1014 289 1006 299 1014 b 394 985 344 1014 356 1010 b 532 926 457 944 501 926 b 643 993 574 926 606 946 b 683 1071 672 1031 683 1050 b 639 1110 683 1092 663 1110 z "},"Š":{"ha":833,"x_min":0,"x_max":0,"o":"m 436 1013 l 278 1147 b 239 1165 263 1161 253 1165 b 192 1115 214 1165 192 1143 b 225 1067 192 1097 194 1092 l 436 889 l 646 1067 b 679 1115 678 1094 679 1096 b 631 1165 679 1143 657 1165 b 592 1147 618 1165 607 1160 z m 718 738 b 708 797 718 774 717 785 b 650 829 697 817 675 829 b 596 783 622 829 610 818 b 415 829 547 814 486 829 b 114 583 242 829 114 725 b 228 390 114 504 157 431 b 407 336 272 365 317 351 b 553 299 501 319 524 314 b 603 225 583 282 603 254 b 419 119 603 165 524 119 b 226 210 326 119 240 160 b 206 257 215 247 215 247 b 156 276 193 269 175 276 b 86 185 108 276 86 247 l 86 93 b 157 1 86 31 108 1 b 213 35 179 1 189 7 b 429 -19 282 -1 353 -19 b 747 222 619 -19 747 78 b 665 396 747 296 721 351 b 449 472 622 431 569 450 b 310 508 344 492 338 494 b 258 585 279 524 258 556 b 415 690 258 644 326 690 b 581 597 501 690 568 653 b 600 542 590 553 590 553 b 650 522 611 531 631 522 b 706 551 671 522 692 532 b 718 615 715 565 718 576 z "},"Ú":{"ha":833,"x_min":0,"x_max":0,"o":"m 735 671 b 819 740 790 671 819 696 b 792 797 819 763 810 783 b 728 810 778 807 765 810 l 547 810 b 489 800 511 810 501 808 b 456 740 468 788 456 764 b 483 683 456 718 467 697 b 547 671 497 674 511 671 l 596 671 l 596 272 b 417 119 596 188 517 119 b 238 272 318 119 238 188 l 238 671 l 286 671 b 344 681 318 671 333 674 b 378 740 365 693 378 717 b 350 797 378 763 368 783 b 286 810 335 808 325 810 l 106 810 b 47 800 71 810 60 808 b 14 740 26 788 14 764 b 99 671 14 696 43 671 l 99 285 b 417 -19 99 113 236 -19 b 618 49 493 -19 558 3 b 735 285 697 108 735 186 z m 588 1065 b 621 1115 615 1088 621 1097 b 569 1165 621 1143 599 1165 b 524 1144 554 1165 543 1160 l 338 989 b 307 939 317 972 307 956 b 358 889 307 911 331 889 b 401 911 371 889 383 894 z "},"Û":{"ha":833,"x_min":0,"x_max":0,"o":"m 735 671 b 819 740 790 671 819 696 b 792 797 819 763 810 783 b 728 810 778 807 765 810 l 547 810 b 489 800 511 810 501 808 b 456 740 468 788 456 764 b 483 683 456 718 467 697 b 547 671 497 674 511 671 l 596 671 l 596 272 b 417 119 596 188 517 119 b 238 272 318 119 238 188 l 238 671 l 286 671 b 344 681 318 671 333 674 b 378 740 365 693 378 717 b 350 797 378 763 368 783 b 286 810 335 808 325 810 l 106 810 b 47 800 71 810 60 808 b 14 740 26 788 14 764 b 99 671 14 696 43 671 l 99 285 b 417 -19 99 113 236 -19 b 618 49 493 -19 558 3 b 735 285 697 108 735 186 z m 418 1042 l 574 907 b 613 889 589 894 600 889 b 661 939 639 889 661 911 b 640 976 661 954 656 964 b 628 988 635 981 631 985 l 418 1165 l 206 988 b 172 939 175 961 172 957 b 221 889 172 911 194 889 b 260 907 233 889 244 893 z "},"Ü":{"ha":833,"x_min":0,"x_max":0,"o":"m 735 671 b 819 740 790 671 819 696 b 792 797 819 763 810 783 b 728 810 778 807 765 810 l 547 810 b 489 800 511 810 501 808 b 456 740 468 788 456 764 b 483 683 456 718 467 697 b 547 671 497 674 511 671 l 596 671 l 596 272 b 417 119 596 188 517 119 b 238 272 318 119 238 188 l 238 671 l 286 671 b 344 681 318 671 333 674 b 378 740 365 693 378 717 b 350 797 378 763 368 783 b 286 810 335 808 325 810 l 106 810 b 47 800 71 810 60 808 b 14 740 26 788 14 764 b 99 671 14 696 43 671 l 99 285 b 417 -19 99 113 236 -19 b 618 49 493 -19 558 3 b 735 285 697 108 735 186 z m 272 1108 b 189 1025 226 1108 189 1071 b 272 942 189 979 226 942 b 356 1024 318 942 356 979 b 272 1108 356 1071 319 1108 z m 561 1108 b 478 1025 515 1108 478 1071 b 561 942 478 979 515 942 b 644 1024 607 942 644 979 b 561 1108 644 1071 608 1108 z "},"Ù":{"ha":833,"x_min":0,"x_max":0,"o":"m 735 671 b 819 740 790 671 819 696 b 792 797 819 763 810 783 b 728 810 778 807 765 810 l 547 810 b 489 800 511 810 501 808 b 456 740 468 788 456 764 b 483 683 456 718 467 697 b 547 671 497 674 511 671 l 596 671 l 596 272 b 417 119 596 188 517 119 b 238 272 318 119 238 188 l 238 671 l 286 671 b 344 681 318 671 333 674 b 378 740 365 693 378 717 b 350 797 378 763 368 783 b 286 810 335 808 325 810 l 106 810 b 47 800 71 810 60 808 b 14 740 26 788 14 764 b 99 671 14 696 43 671 l 99 285 b 417 -19 99 113 236 -19 b 618 49 493 -19 558 3 b 735 285 697 108 735 186 z m 310 1144 b 265 1165 289 1161 281 1165 b 214 1115 236 1165 214 1143 b 246 1065 214 1097 222 1085 l 432 911 b 476 889 450 896 463 889 b 528 939 504 889 528 911 b 496 989 528 957 519 969 z "},"Ý":{"ha":833,"x_min":0,"x_max":0,"o":"m 486 340 l 714 671 b 761 676 742 671 750 672 b 804 740 786 686 804 713 b 776 797 804 763 794 783 b 713 810 763 807 750 810 l 585 810 b 525 800 550 810 538 808 b 492 740 504 788 492 764 b 547 672 492 708 510 686 l 417 483 l 285 672 b 338 740 321 688 338 708 b 310 797 338 763 328 783 b 246 810 296 807 283 810 l 122 810 l 121 810 b 63 800 107 813 71 806 b 29 740 42 786 29 764 b 118 671 29 696 61 671 l 347 340 l 347 139 l 257 139 b 197 129 219 139 210 138 b 164 69 176 117 164 93 b 193 14 164 47 175 26 b 257 0 206 4 224 0 l 576 0 b 636 10 606 0 626 4 b 669 69 657 24 669 46 b 640 126 669 92 660 113 b 576 139 626 136 615 139 l 486 139 z m 593 1065 b 625 1115 618 1086 625 1097 b 574 1165 625 1143 603 1165 b 529 1144 558 1165 549 1161 l 343 989 b 311 939 321 971 311 956 b 363 889 311 913 335 889 b 407 911 375 889 388 894 z "},"Ÿ":{"ha":833,"x_min":0,"x_max":0,"o":"m 486 340 l 714 671 b 761 676 742 671 750 672 b 804 740 786 686 804 713 b 776 797 804 763 794 783 b 713 810 763 807 750 810 l 585 810 b 525 800 550 810 538 808 b 492 740 504 788 492 764 b 547 672 492 708 510 686 l 417 483 l 285 672 b 338 740 321 688 338 708 b 310 797 338 763 328 783 b 246 810 296 807 283 810 l 122 810 l 121 810 b 63 800 107 813 71 806 b 29 740 42 786 29 764 b 118 671 29 696 61 671 l 347 340 l 347 139 l 257 139 b 197 129 219 139 210 138 b 164 69 176 117 164 93 b 193 14 164 47 175 26 b 257 0 206 4 224 0 l 576 0 b 636 10 606 0 626 4 b 669 69 657 24 669 46 b 640 126 669 92 660 113 b 576 139 626 136 615 139 l 486 139 z m 272 1108 b 189 1025 226 1108 189 1071 b 272 942 189 979 226 942 b 356 1024 318 942 356 979 b 272 1108 356 1071 319 1108 z m 561 1108 b 478 1025 515 1108 478 1071 b 561 942 478 979 515 942 b 644 1024 607 942 644 979 b 561 1108 644 1071 608 1108 z "},"Ž":{"ha":833,"x_min":0,"x_max":0,"o":"m 279 139 l 700 675 l 700 810 l 133 810 l 133 574 b 143 515 133 539 136 526 b 203 482 157 494 179 482 b 260 510 225 482 246 493 b 272 574 269 524 272 536 l 272 671 l 521 671 l 101 139 l 101 0 l 732 0 l 732 239 b 722 299 732 275 731 285 b 663 331 710 318 686 331 b 606 303 640 331 619 321 b 593 239 596 289 593 274 l 593 139 z m 418 1013 l 260 1147 b 221 1165 244 1161 233 1165 b 172 1117 194 1165 172 1143 b 197 1074 172 1099 178 1090 l 206 1067 l 418 889 l 628 1067 b 661 1115 661 1096 661 1096 b 613 1165 661 1143 639 1165 b 574 1147 600 1165 589 1160 z "},"á":{"ha":833,"x_min":0,"x_max":0,"o":"m 539 0 l 701 0 b 793 69 763 0 793 22 b 765 126 793 92 783 113 b 701 139 751 136 739 139 l 679 139 l 679 419 b 406 625 679 549 576 625 b 167 583 335 625 235 607 b 125 525 139 574 125 554 b 193 454 125 485 154 454 b 249 463 206 454 225 457 b 411 486 315 479 364 486 b 539 418 499 486 539 465 l 539 386 b 394 400 482 396 439 400 b 113 294 271 400 175 364 b 58 165 79 257 58 208 b 308 -22 58 61 169 -22 b 539 32 390 -22 474 -3 z m 540 188 b 311 117 464 140 388 117 b 206 171 251 117 206 140 b 386 272 206 224 292 272 b 540 257 435 272 478 268 z m 583 867 b 615 917 608 886 615 899 b 564 967 615 944 593 967 b 519 944 549 967 540 963 l 333 790 b 301 739 311 772 301 757 b 353 689 301 713 325 689 b 397 711 367 689 375 693 z "},"â":{"ha":833,"x_min":0,"x_max":0,"o":"m 539 0 l 701 0 b 793 69 763 0 793 22 b 765 126 793 92 783 113 b 701 139 751 136 739 139 l 679 139 l 679 419 b 406 625 679 549 576 625 b 167 583 335 625 235 607 b 125 525 139 574 125 554 b 193 454 125 485 154 454 b 249 463 206 454 225 457 b 411 486 315 479 364 486 b 539 418 499 486 539 465 l 539 386 b 394 400 482 396 439 400 b 113 294 271 400 175 364 b 58 165 79 257 58 208 b 308 -22 58 61 169 -22 b 539 32 390 -22 474 -3 z m 540 188 b 311 117 464 140 388 117 b 206 171 251 117 206 140 b 386 272 206 224 292 272 b 540 257 435 272 478 268 z m 404 843 l 560 708 b 599 690 574 696 586 690 b 646 739 624 690 646 713 b 614 788 646 758 643 763 l 404 967 l 192 788 b 158 739 161 763 158 758 b 207 690 158 713 181 690 b 246 708 219 690 231 694 z "},"ä":{"ha":833,"x_min":0,"x_max":0,"o":"m 539 0 l 701 0 b 793 69 763 0 793 22 b 765 126 793 92 783 113 b 701 139 751 136 739 139 l 679 139 l 679 419 b 406 625 679 549 576 625 b 171 585 336 625 240 608 b 125 525 140 574 125 554 b 193 454 125 485 154 454 b 249 463 206 454 225 457 b 411 486 315 479 364 486 b 539 418 499 486 539 465 l 539 386 b 394 400 482 396 439 400 b 113 294 271 400 175 364 b 58 165 79 257 58 208 b 308 -22 58 61 169 -22 b 539 32 390 -22 474 -3 z m 540 188 b 311 117 464 140 388 117 b 206 171 251 117 206 140 b 386 272 206 224 292 272 b 540 257 435 272 478 268 z m 257 908 b 174 825 211 908 174 871 b 257 742 174 779 211 742 b 340 824 303 742 340 779 b 257 908 340 871 304 908 z m 546 908 b 463 825 500 908 463 871 b 546 742 463 779 500 742 b 629 824 592 742 629 779 b 546 908 629 871 593 908 z "},"à":{"ha":833,"x_min":0,"x_max":0,"o":"m 539 0 l 701 0 b 793 69 763 0 793 22 b 765 126 793 92 783 113 b 701 139 751 136 739 139 l 679 139 l 679 419 b 406 625 679 549 576 625 b 167 583 335 625 235 607 b 125 525 139 574 125 554 b 193 454 125 485 154 454 b 249 463 206 454 225 457 b 411 486 315 479 364 486 b 539 418 499 486 539 465 l 539 386 b 394 400 482 396 439 400 b 113 294 271 400 175 364 b 58 165 79 257 58 208 b 308 -22 58 61 169 -22 b 539 32 390 -22 474 -3 z m 540 188 b 311 117 464 140 388 117 b 206 171 251 117 206 140 b 386 272 206 224 292 272 b 540 257 435 272 478 268 z m 286 944 b 242 967 264 963 257 967 b 190 917 213 967 190 944 b 222 867 190 899 199 886 l 408 711 b 453 689 429 694 439 689 b 504 739 481 689 504 713 b 472 790 504 757 496 771 z "},"å":{"ha":833,"x_min":0,"x_max":0,"o":"m 539 0 l 701 0 b 793 69 763 0 793 22 b 765 126 793 92 783 113 b 701 139 751 136 739 139 l 679 139 l 679 419 b 406 625 679 549 576 625 b 167 583 335 625 235 607 b 125 525 139 574 125 554 b 193 454 125 485 154 454 b 249 463 206 454 225 457 b 411 486 315 479 364 486 b 539 418 499 486 539 465 l 539 386 b 394 400 482 396 439 400 b 113 294 271 400 175 364 b 58 165 79 257 58 208 b 308 -22 58 61 169 -22 b 539 32 390 -22 474 -3 z m 540 188 b 311 117 464 140 388 117 b 206 171 251 117 206 140 b 386 272 206 224 292 272 b 540 257 435 272 478 268 z m 401 1010 b 231 842 308 1010 231 933 b 401 675 231 751 308 675 b 572 840 493 675 572 751 b 401 1010 572 935 496 1010 z m 401 936 b 499 842 454 936 499 893 b 401 750 499 793 454 750 b 306 843 350 750 306 793 b 401 936 306 893 350 936 z "},"ã":{"ha":833,"x_min":0,"x_max":0,"o":"m 539 0 l 701 0 b 793 69 763 0 793 22 b 765 126 793 92 783 113 b 701 139 751 136 739 139 l 679 139 l 679 419 b 406 625 679 549 576 625 b 167 583 335 625 235 607 b 125 525 139 574 125 554 b 193 454 125 485 154 454 b 249 463 206 454 225 457 b 411 486 315 479 364 486 b 539 418 499 486 539 465 l 539 386 b 394 400 482 396 439 400 b 113 294 271 400 175 364 b 58 165 79 257 58 208 b 308 -22 58 61 169 -22 b 539 32 390 -22 474 -3 z m 540 188 b 311 117 464 140 388 117 b 206 171 251 117 206 140 b 386 272 206 224 292 272 b 540 257 435 272 478 268 z m 619 911 b 571 876 604 911 583 897 b 508 822 536 828 531 822 b 428 858 493 822 474 831 b 303 911 360 900 335 911 b 189 850 263 911 224 890 b 150 772 164 819 150 793 b 193 731 150 749 168 731 b 225 747 206 731 217 736 b 306 815 269 807 281 815 b 375 786 325 815 338 811 b 513 726 438 746 482 726 b 624 793 554 726 586 746 b 664 872 653 831 664 851 b 619 911 664 893 643 911 z "},"ç":{"ha":833,"x_min":0,"x_max":0,"o":"m 475 -22 b 660 7 551 -19 606 -11 b 785 124 733 32 785 81 b 715 194 785 163 753 194 b 674 178 699 194 686 189 b 604 135 639 149 631 144 b 458 117 569 124 515 117 b 214 288 296 117 214 174 b 269 426 214 340 233 390 b 431 486 308 467 360 486 b 578 451 493 486 543 474 b 610 401 596 439 604 426 b 631 354 617 371 619 363 b 681 335 642 342 663 335 b 738 363 703 335 724 346 b 750 426 747 376 750 390 l 750 533 b 740 594 750 571 749 582 b 682 625 731 613 706 625 b 631 583 654 625 639 613 b 432 625 576 611 510 625 b 75 286 221 625 75 486 b 206 36 75 181 121 92 b 378 -19 256 3 301 -11 l 378 -142 b 404 -139 390 -139 396 -139 b 481 -186 454 -139 481 -156 b 431 -221 481 -208 464 -221 b 353 -197 408 -221 376 -211 b 313 -182 326 -183 324 -182 b 264 -231 286 -182 264 -204 b 289 -276 264 -249 274 -265 b 433 -318 326 -301 385 -318 b 578 -185 517 -318 578 -261 b 475 -58 578 -112 544 -72 z "},"é":{"ha":833,"x_min":0,"x_max":0,"o":"m 764 239 l 764 293 b 404 625 764 485 611 625 b 46 300 201 625 46 483 b 413 -22 46 110 197 -22 b 715 31 513 -22 653 3 b 764 93 749 44 764 65 b 697 163 764 133 736 163 b 651 156 685 163 668 160 b 425 117 524 122 489 117 b 197 239 303 117 229 157 z m 201 361 b 406 486 224 436 304 486 b 610 361 507 486 588 438 z m 600 867 b 631 917 622 885 631 899 b 579 967 631 944 608 967 b 535 944 564 967 557 963 l 349 790 b 318 739 328 772 318 757 b 369 689 318 713 342 689 b 414 711 383 689 392 693 z "},"ê":{"ha":833,"x_min":0,"x_max":0,"o":"m 764 239 l 764 293 b 404 625 764 485 611 625 b 46 300 201 625 46 483 b 413 -22 46 110 197 -22 b 715 31 513 -22 653 3 b 764 93 749 44 764 65 b 697 163 764 133 736 163 b 651 156 685 163 668 160 b 426 117 522 122 490 117 b 197 239 303 117 229 156 z m 201 361 b 406 486 224 436 304 486 b 610 361 507 486 588 438 z m 425 843 l 581 708 b 619 690 594 696 607 690 b 667 739 644 690 667 713 b 635 788 667 758 664 763 l 425 967 l 213 788 b 179 739 182 763 179 758 b 228 690 179 713 201 690 b 267 708 240 690 251 694 z "},"ë":{"ha":833,"x_min":0,"x_max":0,"o":"m 764 239 l 764 293 b 404 625 764 485 611 625 b 46 300 201 625 46 483 b 413 -22 46 110 197 -22 b 715 31 513 -22 653 3 b 764 93 749 44 764 65 b 697 163 764 133 736 163 b 651 156 685 163 668 160 b 425 117 525 124 489 117 b 197 239 303 117 229 156 z m 201 361 b 406 486 224 436 304 486 b 610 361 507 486 588 438 z m 278 908 b 194 825 232 908 194 871 b 278 742 194 779 232 742 b 361 824 324 742 361 779 b 278 908 361 871 325 908 z m 567 908 b 483 825 521 908 483 871 b 567 742 483 779 521 742 b 650 824 613 742 650 779 b 567 908 650 871 614 908 z "},"è":{"ha":833,"x_min":0,"x_max":0,"o":"m 764 239 l 764 293 b 404 625 764 485 611 625 b 46 300 201 625 46 483 b 413 -22 46 110 197 -22 b 715 31 513 -22 653 3 b 764 93 749 44 764 65 b 697 163 764 133 736 163 b 651 156 685 163 668 160 b 425 117 525 122 489 117 b 197 239 303 117 229 156 z m 201 361 b 406 486 224 436 304 486 b 610 361 507 486 588 438 z m 303 944 b 258 967 281 963 274 967 b 207 917 229 967 207 944 b 238 867 207 899 215 885 l 424 711 b 468 689 446 693 454 689 b 519 739 496 689 519 713 b 489 790 519 757 510 772 z "},"í":{"ha":833,"x_min":0,"x_max":0,"o":"m 486 607 l 239 607 b 179 597 201 607 192 606 b 146 538 158 585 146 563 b 239 468 146 490 176 468 l 347 468 l 347 139 l 178 139 b 119 129 142 139 132 138 b 86 69 99 117 86 93 b 114 14 86 47 97 26 b 178 0 126 4 146 0 l 656 0 b 714 10 683 0 704 4 b 747 69 735 24 747 46 b 718 126 747 92 738 113 b 656 139 704 136 693 139 l 486 139 z m 569 867 b 601 917 593 886 601 899 b 550 967 601 944 579 967 b 506 944 535 967 526 963 l 319 790 b 289 740 299 774 289 757 b 340 689 289 713 313 689 b 383 711 353 689 361 693 z "},"î":{"ha":833,"x_min":0,"x_max":0,"o":"m 486 607 l 239 607 b 179 597 201 607 192 606 b 146 538 158 585 146 563 b 239 468 146 490 176 468 l 347 468 l 347 139 l 178 139 b 119 129 142 139 132 138 b 86 69 99 117 86 93 b 114 14 86 47 97 26 b 178 0 126 4 146 0 l 656 0 b 714 10 683 0 704 4 b 747 69 735 24 747 46 b 718 126 747 92 738 113 b 656 139 704 136 693 139 l 486 139 z m 394 843 l 550 708 b 589 690 565 696 576 690 b 638 739 615 690 638 713 b 615 778 638 756 632 765 b 604 788 614 781 610 783 l 394 967 l 183 788 b 150 739 153 763 150 758 b 197 690 150 713 172 690 b 236 708 211 690 221 696 z "},"ï":{"ha":833,"x_min":0,"x_max":0,"o":"m 486 607 l 239 607 b 179 597 201 607 192 606 b 146 538 158 585 146 563 b 239 468 146 490 176 468 l 347 468 l 347 139 l 178 139 b 119 129 142 139 132 138 b 86 69 99 117 86 93 b 114 14 86 47 97 26 b 178 0 126 4 146 0 l 656 0 b 714 10 683 0 704 4 b 747 69 735 24 747 46 b 718 126 747 92 738 113 b 656 139 704 136 693 139 l 486 139 z m 249 908 b 165 825 203 908 165 871 b 249 742 165 779 203 742 b 332 824 294 742 332 779 b 249 908 332 871 296 908 z m 538 908 b 454 825 492 908 454 871 b 538 742 454 779 492 742 b 621 824 583 742 621 779 b 538 908 621 871 585 908 z "},"ì":{"ha":833,"x_min":0,"x_max":0,"o":"m 486 607 l 239 607 b 179 597 201 607 192 606 b 146 538 158 585 146 563 b 239 468 146 490 176 468 l 347 468 l 347 139 l 178 139 b 119 129 142 139 132 138 b 86 69 99 117 86 93 b 114 14 86 47 97 26 b 178 0 126 4 146 0 l 656 0 b 714 10 683 0 704 4 b 747 69 735 24 747 46 b 718 126 747 92 738 113 b 656 139 704 136 693 139 l 486 139 z m 286 944 b 243 967 265 964 258 967 b 192 917 214 967 192 944 b 222 867 192 899 201 883 l 408 711 b 453 689 429 694 439 689 b 504 739 481 689 504 713 b 472 790 504 757 494 772 z "},"ñ":{"ha":833,"x_min":0,"x_max":0,"o":"m 271 607 l 140 607 b 90 601 111 607 103 606 b 47 538 65 593 47 565 b 132 468 47 493 78 469 l 132 139 l 124 139 b 65 129 89 139 78 136 b 32 69 44 117 32 93 b 60 14 32 47 43 26 b 124 0 74 4 90 0 l 279 0 b 371 69 340 0 371 24 b 343 126 371 92 361 113 b 279 139 329 136 317 139 l 271 139 l 271 392 b 447 486 343 468 378 486 b 569 386 531 486 569 454 l 569 139 b 485 69 515 139 485 114 b 578 0 485 24 515 0 l 701 0 b 793 69 763 0 793 24 b 708 139 793 114 763 139 l 708 392 b 626 574 708 474 682 532 b 461 625 581 607 524 625 b 271 540 383 625 339 604 z m 619 911 b 571 876 604 910 585 896 b 510 822 538 828 531 822 b 429 858 493 822 476 831 b 303 911 360 901 336 911 b 189 847 263 911 224 889 b 151 772 164 818 151 792 b 194 731 151 749 169 731 b 229 750 208 731 219 736 b 307 815 271 806 282 815 b 376 786 326 815 338 811 b 514 726 439 746 483 726 b 625 793 556 726 588 746 b 665 871 656 831 665 851 b 619 911 665 893 649 907 z "},"ó":{"ha":833,"x_min":0,"x_max":0,"o":"m 421 625 b 58 301 215 625 58 485 b 417 -22 58 119 215 -22 b 775 301 618 -22 775 119 b 421 625 775 481 618 625 z m 419 486 b 636 301 540 486 636 404 b 417 117 636 197 540 117 b 197 301 293 117 197 197 b 419 486 197 407 293 486 z m 597 867 b 629 917 621 886 629 899 b 578 967 629 944 607 967 b 533 944 563 967 554 963 l 347 790 b 317 740 326 774 317 757 b 368 689 317 713 340 689 b 411 711 381 689 389 693 z "},"ô":{"ha":833,"x_min":0,"x_max":0,"o":"m 421 625 b 58 301 215 625 58 485 b 417 -22 58 119 215 -22 b 775 301 618 -22 775 119 b 421 625 775 481 618 625 z m 419 486 b 636 301 540 486 636 404 b 417 117 636 197 540 117 b 197 301 293 117 197 197 b 419 486 197 407 293 486 z m 418 843 l 574 708 b 613 690 588 696 600 690 b 661 739 639 690 661 713 b 640 778 661 756 656 765 b 628 788 635 782 629 786 l 418 967 l 206 788 b 172 739 174 761 172 758 b 221 690 172 713 194 690 b 260 708 233 690 244 696 z "},"ö":{"ha":833,"x_min":0,"x_max":0,"o":"m 421 625 b 58 301 215 625 58 485 b 417 -22 58 119 215 -22 b 775 301 618 -22 775 119 b 421 625 775 481 618 625 z m 419 486 b 636 301 540 486 636 404 b 417 117 636 197 540 117 b 197 301 293 117 197 197 b 419 486 197 407 293 486 z m 272 908 b 189 825 226 908 189 871 b 272 742 189 779 226 742 b 356 824 318 742 356 779 b 272 908 356 871 319 908 z m 561 908 b 478 825 515 908 478 871 b 561 742 478 779 515 742 b 644 824 607 742 644 779 b 561 908 644 871 608 908 z "},"ò":{"ha":833,"x_min":0,"x_max":0,"o":"m 421 625 b 58 301 215 625 58 485 b 417 -22 58 119 215 -22 b 775 301 618 -22 775 119 b 421 625 775 481 618 625 z m 419 486 b 636 301 540 486 636 404 b 417 117 636 197 540 117 b 197 301 293 117 197 197 b 419 486 197 407 293 486 z m 300 944 b 257 967 279 964 272 967 b 206 917 228 967 206 944 b 236 867 206 899 215 883 l 422 711 b 467 689 443 694 453 689 b 518 739 494 689 518 713 b 486 790 518 757 508 772 z "},"õ":{"ha":833,"x_min":0,"x_max":0,"o":"m 421 625 b 58 301 215 625 58 485 b 417 -22 58 119 215 -22 b 775 301 618 -22 775 119 b 421 625 775 481 618 625 z m 419 486 b 636 301 540 486 636 404 b 417 117 636 197 540 117 b 197 301 293 117 197 197 b 419 486 197 407 293 486 z m 639 911 b 585 871 622 911 604 897 b 528 822 556 828 549 822 b 447 858 511 822 494 831 b 322 911 378 901 354 911 b 207 849 282 911 242 889 b 169 772 183 818 169 792 b 213 731 169 749 188 731 b 247 751 226 731 238 736 b 325 815 289 806 300 815 b 394 786 346 815 356 811 b 532 726 457 746 501 726 b 643 793 574 726 606 746 b 683 872 672 831 683 851 b 639 911 683 893 663 911 z "},"š":{"ha":833,"x_min":0,"x_max":0,"o":"m 432 814 l 274 947 b 235 967 257 963 247 967 b 186 917 208 967 186 944 b 219 868 186 897 189 894 l 432 690 l 642 868 b 675 917 675 896 675 897 b 626 967 675 944 653 967 b 588 947 614 967 604 963 z m 703 533 b 699 583 703 561 701 569 b 638 625 690 607 665 625 b 593 589 615 625 606 617 b 414 625 538 614 482 625 b 128 435 247 625 128 546 b 404 249 128 325 210 269 b 532 225 478 240 510 235 b 579 176 561 214 579 194 b 418 117 579 143 506 117 b 243 171 342 117 283 135 b 171 232 231 213 208 232 b 115 203 149 232 129 222 b 101 139 104 189 101 176 l 101 93 b 172 1 101 29 124 1 b 217 18 190 1 200 6 b 422 -22 272 -8 343 -22 b 732 174 601 -22 732 60 b 635 331 732 238 696 296 b 433 383 593 354 539 369 b 317 404 344 396 336 397 b 281 438 294 413 281 425 b 418 486 281 463 346 486 b 561 446 478 486 522 474 b 633 390 586 401 600 390 b 690 418 656 390 676 401 b 703 482 700 432 703 446 z "},"ú":{"ha":833,"x_min":0,"x_max":0,"o":"m 708 607 l 521 607 b 463 597 488 607 475 606 b 429 538 442 585 429 561 b 457 482 429 515 440 494 b 521 468 471 471 486 468 l 569 468 l 569 215 b 393 121 499 140 463 121 b 271 221 310 121 271 153 l 271 607 l 110 607 b 51 597 75 607 64 606 b 18 538 31 585 18 561 b 46 482 18 515 29 494 b 110 468 60 471 74 468 l 132 468 l 132 215 b 214 33 132 133 158 75 b 379 -18 258 0 317 -18 b 569 67 456 -18 501 1 l 569 0 l 701 0 b 760 10 731 0 749 3 b 793 69 781 24 793 46 b 708 139 793 114 763 139 z m 582 867 b 614 917 607 888 614 897 b 563 967 614 944 592 967 b 518 944 547 967 539 963 l 332 790 b 300 740 310 772 300 757 b 351 689 300 713 324 689 b 396 711 365 689 374 693 z "},"û":{"ha":833,"x_min":0,"x_max":0,"o":"m 708 607 l 521 607 b 463 597 488 607 475 606 b 429 538 442 585 429 561 b 457 482 429 515 440 494 b 521 468 471 471 486 468 l 569 468 l 569 215 b 393 121 499 140 463 121 b 271 221 310 121 271 153 l 271 607 l 110 607 b 51 597 75 607 64 606 b 18 538 31 585 18 561 b 46 482 18 515 29 494 b 110 468 60 471 74 468 l 132 468 l 132 215 b 214 33 132 133 158 75 b 379 -18 258 0 317 -18 b 569 67 456 -18 501 1 l 569 0 l 701 0 b 760 10 731 0 749 3 b 793 69 781 24 793 46 b 708 139 793 114 763 139 z m 411 843 l 567 708 b 607 690 582 696 593 690 b 654 739 632 690 654 713 b 632 779 654 756 649 765 b 621 788 631 779 626 785 l 411 967 l 200 788 b 167 739 169 763 167 758 b 215 690 167 713 189 690 b 253 708 228 690 238 696 z "},"ü":{"ha":833,"x_min":0,"x_max":0,"o":"m 708 607 l 521 607 b 463 597 488 607 475 606 b 429 538 442 585 429 561 b 457 482 429 515 440 494 b 521 468 471 471 486 468 l 569 468 l 569 215 b 393 121 499 140 463 121 b 271 221 310 121 271 153 l 271 607 l 110 607 b 51 597 75 607 64 606 b 18 538 31 585 18 561 b 46 482 18 515 29 494 b 110 468 60 471 74 468 l 132 468 l 132 215 b 214 33 132 133 158 75 b 379 -18 258 0 317 -18 b 569 67 456 -18 501 1 l 569 0 l 701 0 b 760 10 731 0 749 3 b 793 69 781 24 793 46 b 708 139 793 114 763 139 z m 265 908 b 182 825 219 908 182 871 b 265 742 182 779 219 742 b 349 824 311 742 349 779 b 265 908 349 871 313 908 z m 554 908 b 471 825 508 908 471 871 b 554 742 471 779 508 742 b 638 824 600 742 638 779 b 554 908 638 871 601 908 z "},"ù":{"ha":833,"x_min":0,"x_max":0,"o":"m 708 607 l 521 607 b 463 597 488 607 475 606 b 429 538 442 585 429 561 b 457 482 429 515 440 494 b 521 468 471 471 486 468 l 569 468 l 569 215 b 393 121 499 140 463 121 b 271 221 310 121 271 153 l 271 607 l 110 607 b 51 597 75 607 64 606 b 18 538 31 585 18 561 b 46 482 18 515 29 494 b 110 468 60 471 74 468 l 132 468 l 132 215 b 214 33 132 133 158 75 b 379 -18 258 0 317 -18 b 569 67 456 -18 501 1 l 569 0 l 701 0 b 760 10 731 0 749 3 b 793 69 781 24 793 46 b 708 139 793 114 763 139 z m 299 944 b 254 967 276 964 269 967 b 203 917 225 967 203 944 b 235 867 203 899 211 885 l 421 711 b 465 689 442 694 451 689 b 517 739 493 689 517 713 b 485 790 517 757 508 771 z "},"ý":{"ha":833,"x_min":0,"x_max":0,"o":"m 336 4 l 260 -146 l 121 -146 b 63 -156 88 -146 75 -149 b 29 -215 42 -168 29 -192 b 57 -271 29 -237 39 -258 b 121 -285 71 -282 86 -285 l 419 -285 b 478 -275 450 -285 467 -282 b 511 -215 499 -261 511 -239 b 483 -158 511 -193 501 -172 b 419 -146 469 -149 456 -146 l 413 -146 l 732 468 b 804 538 778 472 804 497 b 775 594 804 560 794 581 b 713 607 763 604 749 607 l 585 607 b 535 601 556 607 547 606 b 492 538 510 593 492 565 b 581 468 492 493 524 468 l 414 158 l 256 468 b 338 538 308 469 338 493 b 310 594 338 560 328 581 b 246 607 296 604 282 607 l 121 607 b 72 601 93 607 85 606 b 29 538 47 593 29 565 b 97 468 29 499 54 474 z m 628 867 b 660 917 651 885 660 899 b 608 967 660 944 638 967 b 564 944 593 967 586 963 l 379 790 b 347 739 357 772 347 757 b 399 689 347 713 371 689 b 443 711 413 689 421 693 z "},"ÿ":{"ha":833,"x_min":0,"x_max":0,"o":"m 336 4 l 260 -146 l 121 -146 b 63 -156 88 -146 75 -149 b 29 -215 42 -168 29 -192 b 57 -271 29 -237 39 -258 b 121 -285 71 -282 86 -285 l 419 -285 b 478 -275 450 -285 467 -282 b 511 -215 499 -261 511 -239 b 483 -158 511 -193 501 -172 b 419 -146 469 -149 456 -146 l 413 -146 l 732 468 b 804 538 778 472 804 497 b 775 594 804 560 794 581 b 713 607 763 604 749 607 l 585 607 b 535 601 556 607 547 606 b 492 538 510 593 492 565 b 581 468 492 493 524 468 l 414 158 l 256 468 b 338 538 308 469 338 493 b 310 594 338 560 328 581 b 246 607 296 604 282 607 l 121 607 b 72 601 93 607 85 606 b 29 538 47 593 29 565 b 97 468 29 499 54 474 z m 272 908 b 189 825 226 908 189 871 b 272 742 189 779 226 742 b 356 824 318 742 356 779 b 272 908 356 871 319 908 z m 561 908 b 478 825 515 908 478 871 b 561 742 478 779 515 742 b 644 824 607 742 644 779 b 561 908 644 871 608 908 z "},"ž":{"ha":833,"x_min":0,"x_max":0,"o":"m 339 139 l 703 494 l 703 607 l 135 607 l 135 456 b 144 397 135 424 138 408 b 204 364 158 376 181 364 b 261 393 226 364 246 374 b 274 456 271 407 274 418 l 274 468 l 481 468 l 118 115 l 118 0 l 721 0 l 721 122 b 711 182 721 158 719 168 b 651 214 699 201 676 214 b 582 139 610 214 585 188 z m 421 814 l 263 947 b 224 967 246 963 236 967 b 175 918 197 967 175 944 b 208 868 175 897 178 894 l 421 690 l 631 868 b 664 917 663 896 664 897 b 615 967 664 944 642 967 b 576 947 603 967 593 963 z "},"ⁿ":{"ha":833,"x_min":0,"x_max":0,"o":"m 300 740 l 213 740 b 150 694 171 740 150 725 b 192 649 150 671 168 650 l 203 647 l 203 464 b 140 418 161 464 140 449 b 203 371 140 386 161 371 l 300 371 b 363 418 342 371 363 386 b 300 464 363 449 342 464 l 300 606 b 401 658 339 646 364 658 b 474 604 451 658 474 642 l 474 464 l 471 464 b 421 418 442 463 421 443 b 483 371 421 386 442 371 l 561 371 b 624 418 603 371 624 386 b 582 463 624 440 606 461 l 571 464 l 571 608 b 413 751 571 694 508 751 b 317 722 375 751 340 740 l 300 708 z "},"ﬀ":{"ha":833,"x_min":0,"x_max":0,"o":"m 667 0 b 725 10 694 0 715 4 b 758 69 746 24 758 46 b 731 126 758 92 749 113 b 667 139 715 136 704 139 l 621 139 l 621 468 l 667 468 b 725 478 699 468 714 471 b 758 538 746 492 758 514 b 731 594 758 560 747 581 b 667 607 715 604 704 607 l 621 607 l 621 661 b 676 728 621 699 646 728 b 729 715 690 728 707 724 b 771 706 753 707 758 706 b 839 776 808 706 839 738 b 808 832 839 800 829 818 b 671 865 781 851 721 865 b 482 661 565 865 482 775 l 482 607 l 264 607 l 264 661 b 319 728 264 699 289 728 b 372 715 333 728 350 724 b 414 706 396 707 401 706 b 482 776 451 706 482 738 b 453 832 482 800 472 818 b 314 865 424 851 364 865 b 125 661 208 865 125 775 l 125 607 l 100 607 b 42 597 64 607 54 606 b 8 538 21 585 8 561 b 38 482 8 515 19 494 b 100 468 50 471 65 468 l 125 468 l 125 139 l 94 139 b 36 129 58 139 49 138 b 3 69 15 117 3 93 b 31 14 3 47 14 26 b 94 0 43 4 63 0 l 283 0 b 367 38 333 0 350 8 b 451 0 385 8 401 0 z m 264 139 l 264 468 l 482 468 l 482 139 l 451 139 b 367 103 404 140 385 132 b 283 139 349 132 332 140 z "},"ﬃ":{"ha":833,"x_min":0,"x_max":0,"o":"m 113 139 l 92 139 b 33 129 56 139 46 138 b 0 69 13 115 0 93 b 28 14 0 47 11 26 b 92 0 40 4 60 0 l 744 0 b 836 69 806 0 836 24 b 808 126 836 92 826 113 b 744 139 794 136 782 139 l 721 139 l 721 607 l 481 607 l 481 661 b 536 728 481 699 506 728 b 590 715 550 728 568 724 b 632 706 614 707 619 706 b 700 776 669 706 700 738 b 669 832 700 800 690 818 b 532 865 642 851 582 865 b 432 836 493 865 463 856 b 301 865 397 854 349 865 b 113 661 196 865 113 775 l 113 607 l 97 607 b 39 597 61 607 51 606 b 6 538 18 585 6 561 b 35 482 6 515 17 494 b 97 468 47 471 63 468 l 113 468 z m 342 139 l 251 139 l 251 468 l 342 468 z m 342 607 l 251 607 l 251 661 b 306 728 251 699 276 728 b 350 719 318 728 329 725 b 342 661 344 700 342 683 z m 481 139 l 481 468 l 582 468 l 582 139 z "},"ﬄ":{"ha":833,"x_min":0,"x_max":0,"o":"m 721 139 l 721 865 l 540 865 b 432 836 497 867 464 857 b 301 865 397 854 349 865 b 113 661 196 865 113 775 l 113 607 l 97 607 b 39 597 61 607 51 606 b 6 538 18 585 6 561 b 35 482 6 515 17 494 b 97 468 47 471 63 468 l 113 468 l 113 139 l 92 139 b 33 129 56 139 46 138 b 0 69 13 115 0 93 b 28 14 0 47 11 26 b 92 0 40 4 60 0 l 744 0 b 836 69 806 0 836 24 b 808 126 836 92 826 113 b 744 139 794 136 782 139 z m 582 607 l 481 607 l 481 661 b 536 728 481 699 506 728 b 582 718 549 728 558 726 z m 342 139 l 251 139 l 251 468 l 342 468 z m 342 607 l 251 607 l 251 661 b 306 728 251 699 276 728 b 350 719 318 728 329 725 b 342 661 344 700 342 683 z m 481 139 l 481 468 l 582 468 l 582 139 z "},"⅛":{"ha":833,"x_min":0,"x_max":0,"o":"m 764 231 b 814 346 797 263 814 303 b 653 504 814 435 743 504 b 492 346 563 504 492 435 b 542 231 492 303 508 263 b 486 107 507 201 486 156 b 653 -50 486 13 553 -50 b 819 107 753 -50 819 13 b 764 231 819 156 799 201 z m 653 411 b 721 342 694 411 721 383 b 653 275 721 303 693 275 b 585 343 613 275 585 303 b 653 411 585 383 613 411 z m 653 182 b 726 103 693 182 726 146 b 653 43 726 67 697 43 b 579 103 608 43 579 67 b 653 182 579 146 613 182 z m 229 914 l 63 867 b 14 819 25 857 14 846 b 56 771 14 793 33 771 b 86 776 64 771 78 774 l 136 793 l 136 464 l 72 464 b 13 418 32 464 13 449 b 72 371 13 388 33 371 l 299 371 b 351 418 333 371 351 388 b 299 464 351 449 335 464 l 229 464 z m 651 733 b 661 771 656 740 661 764 b 615 815 661 794 639 815 b 571 779 597 815 583 806 l 247 153 b 236 117 240 142 236 125 b 282 71 236 92 257 71 b 328 107 300 71 315 82 z "},"⅜":{"ha":833,"x_min":0,"x_max":0,"o":"m 633 733 b 643 771 636 740 643 764 b 597 815 643 794 621 815 b 553 779 579 815 565 806 l 229 153 b 218 117 224 143 218 125 b 264 71 218 92 239 71 b 310 107 282 71 297 82 z m 164 697 b 119 650 138 697 119 678 b 163 606 119 624 135 608 b 219 594 199 603 204 603 b 275 521 254 579 275 550 b 161 449 275 472 238 449 b 75 467 114 449 94 453 b 49 478 63 476 58 478 b 8 431 26 478 8 457 b 168 356 8 385 71 356 b 310 394 233 356 276 367 b 368 519 346 424 368 471 b 292 647 368 571 340 618 b 353 758 333 679 353 714 b 192 910 353 846 285 910 b 31 813 107 910 31 864 b 71 765 31 786 49 765 b 100 779 82 765 93 771 b 182 817 124 808 143 817 b 260 758 229 817 260 794 b 194 697 260 725 229 697 z m 765 231 b 814 346 797 264 814 303 b 654 504 814 435 744 504 b 493 346 563 504 493 435 b 542 231 493 303 510 264 b 488 107 507 200 488 156 b 654 -50 488 13 554 -50 b 821 107 754 -50 821 13 b 765 231 821 156 800 201 z m 653 411 b 721 342 694 411 721 383 b 654 275 721 303 693 275 b 586 343 614 275 586 303 b 653 411 586 383 614 411 z m 654 182 b 728 103 694 182 728 146 b 654 43 728 67 699 43 b 581 103 610 43 581 67 b 654 182 581 146 614 182 z "},"⅝":{"ha":833,"x_min":0,"x_max":0,"o":"m 632 733 b 643 771 636 740 643 764 b 597 815 643 794 621 815 b 551 779 578 815 565 806 l 229 153 b 218 117 224 142 218 125 b 264 71 218 92 239 71 b 310 107 282 71 297 82 z m 765 231 b 814 346 797 264 814 303 b 654 504 814 435 744 504 b 493 346 563 504 493 435 b 542 231 493 303 510 264 b 486 107 507 201 486 156 b 653 -50 486 13 553 -50 b 821 107 754 -50 821 13 b 765 231 821 156 800 200 z m 653 411 b 721 342 694 411 721 383 b 654 275 721 303 693 275 b 586 343 614 275 586 303 b 653 411 586 383 614 411 z m 653 182 b 728 103 694 182 728 146 b 654 43 728 67 697 43 b 579 103 610 43 579 67 b 653 182 579 146 613 182 z m 143 810 l 275 810 b 336 857 315 810 336 826 b 275 903 336 888 317 903 l 50 903 l 50 661 b 92 610 50 631 68 610 b 114 617 99 610 103 611 b 200 644 146 635 176 644 b 278 547 247 644 278 606 b 172 456 278 482 247 456 b 83 482 125 456 104 463 b 54 496 71 493 67 496 b 14 450 32 496 14 475 b 178 363 14 400 83 363 b 329 419 250 363 299 381 b 371 549 356 451 371 499 b 211 738 371 657 303 738 b 143 725 192 738 171 733 z "},"⅞":{"ha":833,"x_min":0,"x_max":0,"o":"m 319 806 l 197 444 b 192 414 194 433 192 421 b 239 369 192 390 214 369 b 286 414 263 369 275 381 l 419 810 l 419 899 l 49 899 l 49 821 b 96 761 49 781 64 761 b 142 806 122 761 138 776 z m 632 733 b 643 771 638 743 643 763 b 597 815 643 794 621 815 b 551 779 578 815 564 806 l 228 153 b 217 117 221 140 217 125 b 263 71 217 92 238 71 b 308 107 282 71 296 82 z m 764 231 b 814 346 797 264 814 303 b 654 504 814 435 744 504 b 493 346 563 504 493 435 b 542 231 493 303 510 264 b 486 107 507 201 486 156 b 653 -50 486 13 553 -50 b 819 107 753 -50 819 13 b 764 231 819 156 800 200 z m 653 411 b 721 342 694 411 721 383 b 654 275 721 303 693 275 b 586 343 614 275 586 303 b 653 411 586 383 614 411 z m 653 182 b 726 103 693 182 726 146 b 653 43 726 67 697 43 b 579 103 608 43 579 67 b 653 182 579 146 613 182 z "},"⁰":{"ha":833,"x_min":0,"x_max":0,"o":"m 601 653 b 532 838 601 721 575 790 b 415 885 503 869 464 885 b 300 838 368 885 329 869 b 231 653 257 790 231 721 l 231 563 b 300 378 231 494 257 424 b 415 331 329 347 369 331 b 532 378 463 331 503 347 b 601 563 575 424 601 494 z m 324 653 b 415 792 324 732 363 792 b 508 653 469 792 508 732 l 508 563 b 415 424 508 483 468 424 b 324 563 364 424 324 483 z "},"⁴":{"ha":833,"x_min":0,"x_max":0,"o":"m 544 871 l 428 871 l 225 535 l 225 458 l 451 458 l 451 436 l 425 436 b 365 390 385 436 365 421 b 425 343 365 360 386 343 l 535 343 b 596 390 575 343 596 360 b 544 436 596 418 576 435 l 544 458 b 596 506 578 460 596 478 b 544 551 596 533 576 550 z m 451 551 l 342 551 l 451 731 z "},"⁵":{"ha":833,"x_min":0,"x_max":0,"o":"m 354 778 l 518 778 b 578 825 557 778 578 794 b 518 871 578 856 558 871 l 261 871 l 261 629 b 308 578 261 600 281 578 b 333 585 317 578 321 579 b 431 613 369 603 404 613 b 519 515 485 613 519 574 b 397 424 519 450 485 424 b 296 450 344 424 321 431 b 264 464 282 461 276 464 b 217 418 238 464 217 443 b 397 331 217 368 294 331 b 567 388 479 331 532 349 b 613 515 596 419 613 467 b 432 706 613 625 536 706 b 354 694 408 706 383 701 z "},"⁶":{"ha":833,"x_min":0,"x_max":0,"o":"m 346 643 b 432 764 364 701 388 735 b 524 792 460 782 493 792 b 543 788 533 792 535 792 b 575 778 557 781 567 778 b 621 825 600 778 621 800 b 519 885 621 861 581 885 b 344 814 453 885 397 863 b 250 596 278 754 250 689 b 444 331 250 424 318 331 b 617 497 550 331 617 396 b 450 682 617 600 543 682 b 346 643 413 682 383 671 z m 354 501 b 449 589 376 553 415 589 b 524 497 489 589 524 547 b 444 424 524 450 494 424 b 354 501 393 424 371 443 z "},"⁷":{"ha":833,"x_min":0,"x_max":0,"o":"m 496 778 l 374 417 b 368 386 371 406 368 393 b 415 342 368 363 390 342 b 463 386 439 342 451 353 l 596 782 l 596 871 l 225 871 l 225 793 b 272 733 225 753 240 733 b 318 778 299 733 314 749 z "},"⁸":{"ha":833,"x_min":0,"x_max":0,"o":"m 540 611 b 594 726 576 643 594 682 b 417 885 594 815 517 885 b 238 726 315 885 238 815 b 292 611 238 682 256 643 b 231 488 253 581 231 536 b 415 331 231 393 304 331 b 601 488 526 331 601 393 b 540 611 601 535 579 581 z m 415 792 b 501 722 468 792 501 764 b 415 656 501 683 465 656 b 331 724 365 656 331 683 b 415 792 331 764 365 792 z m 415 563 b 508 483 467 563 508 526 b 417 424 508 447 471 424 b 324 483 361 424 324 447 b 415 563 324 526 365 563 z "},"⁹":{"ha":833,"x_min":0,"x_max":0,"o":"m 525 574 b 439 451 507 514 483 481 b 347 424 411 433 378 424 b 328 428 338 424 336 424 b 297 438 314 435 306 438 b 250 390 271 438 250 415 b 353 331 250 354 290 331 b 526 401 418 331 474 353 b 621 621 593 461 621 528 b 426 885 621 792 551 885 b 254 719 321 885 254 821 b 421 535 254 617 328 535 b 525 574 458 535 488 546 z m 517 714 b 422 628 494 663 456 628 b 347 718 382 628 347 669 b 426 792 347 765 376 792 b 517 714 478 792 500 772 z "},"Ĳ":{"ha":833,"x_min":0,"x_max":0,"o":"m 292 671 l 339 671 b 397 681 371 671 386 674 b 431 740 418 694 431 717 b 403 797 431 763 421 783 b 339 810 389 807 376 810 l 106 810 b 47 800 69 810 60 808 b 14 740 26 788 14 764 b 42 683 14 718 25 697 b 106 671 56 674 69 671 l 153 671 l 153 139 l 106 139 b 47 129 69 139 60 138 b 14 69 26 117 14 93 b 106 0 14 24 44 0 l 339 0 b 431 69 400 0 431 24 b 403 126 431 92 421 113 b 339 139 389 136 376 139 l 292 139 z m 668 671 l 668 74 b 635 -32 668 10 664 -3 b 507 -82 604 -61 553 -82 b 363 -50 467 -82 418 -71 b 322 -40 346 -44 331 -40 b 257 -110 289 -40 257 -74 b 286 -165 257 -133 267 -151 b 508 -221 326 -194 433 -221 b 718 -143 583 -221 661 -192 b 807 57 783 -86 807 -33 l 807 810 l 589 810 b 531 800 553 810 543 808 b 497 740 510 788 497 764 b 526 683 497 718 508 697 b 589 671 539 674 554 671 z "},"Ă":{"ha":833,"x_min":0,"x_max":0,"o":"m 578 219 l 610 139 l 578 139 b 519 129 542 139 532 138 b 486 69 499 117 486 93 b 514 14 486 47 497 26 b 578 0 528 4 544 0 l 771 0 b 863 69 832 0 863 22 b 835 126 863 92 853 113 b 768 139 819 136 807 139 l 492 810 l 192 810 b 132 800 154 810 144 808 b 99 740 111 786 99 764 b 128 683 99 718 110 697 b 192 671 142 674 156 671 l 279 671 l 64 139 b 4 129 29 139 17 138 b -29 69 -17 117 -29 93 b 63 0 -29 22 1 0 l 247 0 b 306 10 276 0 294 3 b 339 69 326 24 339 46 b 311 126 339 92 329 113 b 247 139 296 136 285 139 l 215 139 l 247 219 z m 521 358 l 303 358 l 413 625 z m 221 1154 b 174 1101 192 1154 174 1133 b 417 899 174 994 289 899 b 660 1101 544 899 660 994 b 613 1154 660 1133 642 1154 b 565 1099 585 1154 575 1142 b 417 993 551 1035 493 993 b 268 1099 340 993 282 1035 b 221 1154 258 1142 249 1154 z "},"Ą":{"ha":833,"x_min":0,"x_max":0,"o":"m 492 810 l 192 810 b 132 800 154 810 144 808 b 99 740 111 786 99 764 b 128 683 99 718 110 697 b 192 671 142 674 156 671 l 279 671 l 64 139 b 4 129 29 139 17 138 b -29 69 -17 117 -29 93 b 63 0 -29 22 1 0 l 247 0 b 306 10 276 0 294 3 b 339 69 326 24 339 46 b 311 126 339 92 329 113 b 247 139 296 136 285 139 l 215 139 l 247 219 l 578 219 l 610 139 l 578 139 b 519 129 542 139 532 138 b 486 69 499 117 486 93 b 514 14 486 47 497 26 b 578 0 528 4 544 0 l 672 0 b 563 -165 592 -53 563 -96 b 693 -289 563 -242 613 -289 b 810 -262 731 -289 772 -279 b 858 -203 843 -247 858 -228 b 806 -150 858 -174 835 -150 b 774 -158 794 -150 788 -151 b 701 -183 733 -179 721 -183 b 669 -156 681 -183 669 -174 b 800 -7 669 -111 724 -50 b 863 69 849 21 863 38 b 835 126 863 92 851 113 b 768 139 819 136 807 139 z m 521 358 l 303 358 l 413 625 z "},"Ć":{"ha":833,"x_min":0,"x_max":0,"o":"m 46 346 b 456 -19 46 133 218 -19 b 710 50 556 -19 649 6 b 783 151 758 83 783 119 b 714 221 783 189 751 221 b 664 199 696 221 679 214 b 611 151 626 160 626 160 b 458 119 576 131 521 119 b 185 349 292 119 185 210 l 185 438 b 429 690 185 585 288 690 b 564 657 476 690 526 678 b 625 583 604 635 618 617 b 693 510 633 529 653 510 b 750 539 715 510 736 521 b 763 601 760 551 763 565 l 763 718 b 753 776 763 753 761 764 b 693 810 740 797 718 810 b 635 776 669 810 653 801 b 424 829 538 821 501 829 b 46 438 208 829 46 661 z m 628 1065 b 660 1115 651 1085 660 1097 b 608 1165 660 1143 638 1165 b 564 1144 593 1165 585 1161 l 379 989 b 347 939 357 971 347 956 b 399 889 347 911 371 889 b 443 911 411 889 424 894 z "},"Č":{"ha":833,"x_min":0,"x_max":0,"o":"m 46 346 b 456 -19 46 133 218 -19 b 710 50 556 -19 649 6 b 783 151 758 83 783 119 b 714 221 783 189 751 221 b 664 199 696 221 679 214 b 611 151 626 160 626 160 b 458 119 576 131 521 119 b 185 349 292 119 185 210 l 185 438 b 429 690 185 585 288 690 b 564 657 476 690 526 678 b 625 583 604 635 618 617 b 693 510 633 529 653 510 b 750 539 715 510 736 521 b 763 601 760 551 763 565 l 763 718 b 753 776 763 753 761 764 b 693 810 740 797 718 810 b 635 776 669 810 653 801 b 424 829 538 821 501 829 b 46 438 208 829 46 661 z m 418 1013 l 261 1147 b 222 1165 244 1161 235 1165 b 174 1115 196 1165 174 1143 b 207 1067 174 1097 176 1093 l 418 889 l 628 1067 b 661 1117 660 1093 661 1096 b 614 1165 661 1143 639 1165 b 574 1147 600 1165 590 1161 z "},"Ċ":{"ha":833,"x_min":0,"x_max":0,"o":"m 46 346 b 456 -19 46 133 218 -19 b 710 50 556 -19 649 6 b 783 151 758 83 783 119 b 714 221 783 189 751 221 b 664 199 696 221 679 214 b 611 151 626 160 626 160 b 457 119 576 131 521 119 b 185 349 292 119 185 210 l 185 438 b 429 690 185 583 288 690 b 564 657 476 690 526 678 b 625 583 604 635 618 617 b 693 510 633 531 653 510 b 750 539 715 510 736 521 b 763 601 760 551 763 567 l 763 718 b 753 776 763 753 761 764 b 693 810 740 797 718 810 b 635 776 669 810 653 801 b 424 829 538 821 501 829 b 46 438 208 829 46 661 z m 417 1108 b 333 1025 371 1108 333 1071 b 417 942 333 979 371 942 b 500 1024 463 942 500 979 b 417 1108 500 1071 464 1108 z "},"Ď":{"ha":833,"x_min":0,"x_max":0,"o":"m 103 139 b 18 69 49 139 18 114 b 47 14 18 49 29 26 b 111 0 60 4 78 0 l 394 0 b 764 358 611 -7 763 142 l 764 424 b 406 810 764 640 606 813 l 111 810 b 51 800 74 810 64 808 b 18 740 31 788 18 764 b 103 671 18 696 49 671 z m 242 139 l 242 671 l 394 671 b 625 426 525 676 622 574 l 625 363 b 396 139 626 221 536 133 z m 418 1013 l 261 1147 b 222 1165 244 1161 235 1165 b 174 1115 196 1165 174 1143 b 207 1067 174 1097 176 1093 l 418 889 l 628 1067 b 661 1117 660 1093 661 1096 b 614 1165 661 1143 639 1165 b 574 1147 600 1165 590 1161 z "},"Đ":{"ha":833,"x_min":0,"x_max":0,"o":"m 103 338 l 103 139 b 18 69 49 139 18 114 b 47 14 18 49 29 26 b 110 0 60 4 78 0 l 394 0 b 764 358 611 -7 763 142 l 764 424 b 406 810 764 640 606 813 l 111 810 b 51 800 74 810 64 808 b 18 740 31 788 18 764 b 103 671 18 696 49 671 l 103 476 l 93 476 b 33 467 56 476 46 475 b 0 407 13 454 0 431 b 92 338 0 361 31 338 z m 242 338 l 344 338 b 436 407 406 338 436 361 b 407 464 436 429 426 450 b 344 476 393 474 382 476 l 242 476 l 242 671 l 394 671 b 625 426 525 676 622 574 l 625 363 b 396 139 626 221 536 133 l 242 139 z "},"Ě":{"ha":833,"x_min":0,"x_max":0,"o":"m 269 338 l 388 338 l 388 328 b 397 269 388 294 389 282 b 456 236 410 249 432 236 b 513 264 478 236 499 246 b 525 328 522 278 525 290 l 525 485 b 519 535 525 514 524 522 b 456 578 511 560 483 578 b 400 549 435 578 414 567 b 388 485 390 535 388 522 l 388 475 l 269 475 l 269 671 l 594 671 l 594 601 b 604 542 594 568 597 554 b 664 508 618 521 640 508 b 721 538 686 508 707 519 b 733 601 731 551 733 563 l 733 810 l 110 810 b 51 800 74 810 64 808 b 18 740 31 786 18 764 b 47 683 18 718 28 697 b 110 671 60 674 75 671 l 131 671 l 131 139 l 110 139 b 51 129 75 139 64 138 b 18 69 31 115 18 93 b 47 14 18 47 28 26 b 110 0 58 4 78 0 l 764 0 l 764 211 b 754 271 764 244 761 260 b 694 304 740 292 718 304 b 638 276 672 304 651 294 b 625 211 628 261 625 250 l 625 139 l 269 139 z m 418 1013 l 261 1147 b 222 1165 244 1161 235 1165 b 174 1115 196 1165 174 1143 b 207 1067 174 1097 176 1093 l 418 889 l 628 1067 b 661 1117 660 1093 661 1096 b 614 1165 661 1143 639 1165 b 574 1147 600 1165 590 1161 z "},"Ė":{"ha":833,"x_min":0,"x_max":0,"o":"m 269 338 l 388 338 l 388 328 b 397 269 388 294 389 282 b 456 236 410 249 432 236 b 513 264 478 236 499 246 b 525 328 522 278 525 290 l 525 485 b 519 535 525 514 524 522 b 456 578 511 560 483 578 b 400 549 435 578 414 567 b 388 485 390 535 388 522 l 388 475 l 269 475 l 269 671 l 594 671 l 594 601 b 604 542 594 568 597 554 b 664 508 618 521 640 508 b 721 538 686 508 707 519 b 733 601 731 551 733 563 l 733 810 l 110 810 b 51 800 74 810 64 808 b 18 740 31 786 18 764 b 47 683 18 718 28 697 b 110 671 60 674 75 671 l 131 671 l 131 139 l 110 139 b 51 129 75 139 64 138 b 18 69 31 115 18 93 b 47 14 18 47 28 26 b 110 0 58 4 78 0 l 764 0 l 764 211 b 754 271 764 244 761 260 b 694 304 740 292 718 304 b 638 276 672 304 651 294 b 625 211 628 261 625 250 l 625 139 l 269 139 z m 417 1108 b 333 1025 371 1108 333 1071 b 417 942 333 979 371 942 b 500 1024 463 942 500 979 b 417 1108 500 1071 464 1108 z "},"Ę":{"ha":833,"x_min":0,"x_max":0,"o":"m 733 810 l 110 810 b 51 800 74 810 64 808 b 18 740 31 786 18 764 b 47 683 18 718 28 697 b 110 671 60 674 75 671 l 131 671 l 131 139 l 110 139 b 51 129 75 139 64 138 b 18 69 31 115 18 93 b 47 14 18 47 28 26 b 110 0 58 4 78 0 l 628 0 b 519 -165 547 -53 519 -96 b 650 -289 519 -242 569 -289 b 767 -262 688 -289 729 -279 b 815 -203 800 -247 815 -228 b 763 -150 815 -174 792 -150 b 731 -158 751 -150 744 -151 b 658 -183 690 -179 678 -183 b 626 -156 638 -183 626 -174 b 764 0 626 -111 664 -68 l 764 211 b 754 271 764 244 761 260 b 694 304 740 292 718 304 b 638 276 672 304 651 294 b 625 211 628 261 625 250 l 625 139 l 269 139 l 269 338 l 388 338 l 388 328 b 397 269 388 294 389 282 b 456 236 410 249 432 236 b 513 264 478 236 499 246 b 525 328 522 278 525 290 l 525 485 b 519 535 525 514 524 522 b 456 578 511 560 483 578 b 400 549 435 578 414 567 b 388 485 390 535 388 522 l 388 475 l 269 475 l 269 671 l 594 671 l 594 601 b 604 542 594 568 597 554 b 664 508 618 521 640 508 b 721 538 686 508 707 519 b 733 601 731 551 733 563 z "},"Ğ":{"ha":833,"x_min":0,"x_max":0,"o":"m 764 250 b 822 319 803 261 822 285 b 793 376 822 342 813 363 b 729 389 779 386 767 389 l 486 389 b 428 379 451 389 440 388 b 394 319 407 367 394 343 b 424 264 394 297 404 276 b 486 250 436 253 451 250 l 625 250 l 625 154 b 451 119 571 129 518 119 b 247 181 364 119 294 140 b 185 351 204 217 185 271 l 185 440 b 258 625 185 510 213 579 b 442 690 301 668 364 690 b 626 611 543 690 613 660 b 646 558 638 568 638 568 b 694 538 657 546 676 538 b 751 567 717 538 738 549 b 764 629 763 581 764 590 l 764 738 b 754 796 764 771 763 782 b 699 829 744 817 722 829 b 642 785 672 829 658 818 b 440 829 582 815 515 829 b 163 722 326 829 236 794 b 46 440 88 649 46 546 l 46 342 b 138 90 46 244 81 149 b 460 -19 206 21 324 -19 b 764 67 569 -19 639 0 z m 239 1154 b 192 1101 210 1154 192 1133 b 435 899 192 994 307 899 b 678 1101 563 899 678 994 b 631 1154 678 1133 660 1154 b 583 1099 603 1154 593 1142 b 435 993 569 1035 511 993 b 286 1099 358 993 300 1035 b 239 1154 276 1142 267 1154 z "},"Ġ":{"ha":833,"x_min":0,"x_max":0,"o":"m 764 250 b 822 319 803 261 822 285 b 793 376 822 342 813 363 b 729 389 779 386 767 389 l 486 389 b 428 379 451 389 440 388 b 394 319 407 367 394 343 b 424 264 394 297 404 276 b 486 250 436 253 451 250 l 625 250 l 625 154 b 451 119 571 129 518 119 b 247 181 364 119 294 140 b 185 351 204 217 185 271 l 185 440 b 258 625 185 510 213 579 b 442 690 301 668 364 690 b 626 611 543 690 613 660 b 646 558 638 568 638 568 b 694 538 657 546 676 538 b 751 567 717 538 738 549 b 764 629 763 581 764 590 l 764 738 b 754 796 764 771 763 782 b 699 829 744 817 722 829 b 642 785 672 829 658 818 b 440 829 582 815 515 829 b 163 722 326 829 236 794 b 46 440 88 649 46 546 l 46 342 b 138 90 46 244 81 149 b 460 -19 206 21 324 -19 b 764 67 569 -19 639 0 z m 417 1108 b 333 1025 371 1108 333 1071 b 417 942 333 979 371 942 b 500 1024 463 942 500 979 b 417 1108 500 1071 464 1108 z "},"İ":{"ha":833,"x_min":0,"x_max":0,"o":"m 486 671 l 626 671 b 685 681 658 671 674 674 b 718 740 706 694 718 717 b 689 797 718 763 708 783 b 626 810 675 807 664 810 l 207 810 b 149 800 171 810 161 808 b 115 740 128 788 115 764 b 143 683 115 718 126 697 b 207 671 157 674 172 671 l 347 671 l 347 139 l 207 139 b 149 129 171 139 161 138 b 115 69 128 117 115 93 b 207 0 115 24 146 0 l 626 0 b 718 69 688 0 718 24 b 689 126 718 92 708 113 b 626 139 675 136 664 139 l 486 139 z m 417 1108 b 333 1025 371 1108 333 1071 b 417 942 333 979 371 942 b 500 1024 463 942 500 979 b 417 1108 500 1071 464 1108 z "},"Ĺ":{"ha":833,"x_min":0,"x_max":0,"o":"m 356 671 l 435 671 b 493 681 467 671 482 674 b 526 740 514 694 526 717 b 497 797 526 763 517 783 b 435 810 483 807 472 810 l 138 810 b 79 800 101 810 92 808 b 46 740 58 788 46 764 b 74 683 46 718 56 697 b 138 671 88 674 103 671 l 217 671 l 217 139 l 138 139 b 79 129 101 139 92 138 b 46 69 58 117 46 94 b 138 0 46 24 76 0 l 793 0 l 793 267 b 783 326 793 301 792 314 b 724 360 769 347 749 360 b 667 331 701 360 681 350 b 654 267 657 317 654 306 l 654 139 l 356 139 z m 517 1065 b 549 1115 540 1085 549 1097 b 497 1165 549 1143 526 1165 b 453 1144 482 1165 474 1161 l 268 989 b 236 939 246 971 236 956 b 288 889 236 911 260 889 b 332 911 300 889 313 894 z "},"Ľ":{"ha":833,"x_min":0,"x_max":0,"o":"m 356 671 l 435 671 b 493 681 467 671 482 674 b 526 740 514 694 526 717 b 497 797 526 763 517 783 b 435 810 483 807 472 810 l 138 810 b 79 800 101 810 92 808 b 46 740 58 788 46 764 b 74 683 46 718 56 697 b 138 671 88 674 103 671 l 217 671 l 217 139 l 138 139 b 79 129 101 139 92 138 b 46 69 58 117 46 94 b 138 0 46 24 76 0 l 793 0 l 793 267 b 783 326 793 301 792 314 b 724 360 769 347 749 360 b 667 331 701 360 681 350 b 654 267 657 317 654 306 l 654 139 l 356 139 z m 774 738 b 792 779 785 754 792 769 b 742 831 792 807 769 831 b 689 794 719 831 708 822 l 575 619 b 558 575 564 601 558 588 b 610 526 558 549 582 526 b 660 563 629 526 642 535 z "},"Ń":{"ha":833,"x_min":0,"x_max":0,"o":"m 240 547 l 600 0 l 738 0 l 738 671 b 822 740 793 671 822 696 b 794 797 822 763 813 783 b 731 810 779 807 768 810 l 550 810 b 492 800 514 810 504 808 b 458 740 471 788 458 764 b 486 683 458 718 469 697 b 550 671 500 674 514 671 l 599 671 l 599 265 l 240 810 l 81 810 b 22 800 44 810 35 808 b -11 740 1 788 -11 764 b 18 683 -11 718 0 697 b 81 671 31 674 46 671 l 101 671 l 101 139 b 17 69 46 139 17 114 b 46 14 17 47 28 26 b 110 0 57 4 76 0 l 289 0 b 381 69 350 0 381 24 b 353 126 381 92 371 113 b 289 139 339 136 326 139 l 240 139 z m 628 1065 b 660 1115 651 1085 660 1097 b 608 1165 660 1143 638 1165 b 564 1144 593 1165 585 1161 l 379 989 b 347 939 357 971 347 956 b 399 889 347 911 371 889 b 443 911 411 889 424 894 z "},"Ň":{"ha":833,"x_min":0,"x_max":0,"o":"m 240 547 l 600 0 l 738 0 l 738 671 b 822 740 793 671 822 696 b 794 797 822 763 813 783 b 731 810 779 807 768 810 l 550 810 b 492 800 514 810 504 808 b 458 740 471 788 458 764 b 486 683 458 718 469 697 b 550 671 500 674 514 671 l 599 671 l 599 265 l 240 810 l 81 810 b 22 800 44 810 35 808 b -11 740 1 788 -11 764 b 18 683 -11 718 0 697 b 81 671 31 674 46 671 l 101 671 l 101 139 b 17 69 46 139 17 114 b 46 14 17 47 28 26 b 110 0 57 4 76 0 l 289 0 b 381 69 350 0 381 24 b 353 126 381 92 371 113 b 289 139 339 136 326 139 l 240 139 z m 418 1013 l 261 1147 b 222 1165 244 1161 235 1165 b 174 1115 196 1165 174 1143 b 207 1067 174 1097 176 1093 l 418 889 l 628 1067 b 661 1117 660 1093 661 1096 b 614 1165 661 1143 639 1165 b 574 1147 600 1165 590 1161 z "},"Ő":{"ha":833,"x_min":0,"x_max":0,"o":"m 417 829 b 29 406 203 829 29 639 b 417 -19 29 171 203 -19 b 804 399 628 -19 804 171 b 674 722 804 532 761 639 b 417 829 600 792 510 829 z m 417 690 b 665 401 554 690 665 563 b 417 119 665 249 551 119 b 168 406 281 119 168 249 b 417 690 168 561 281 690 z m 460 1063 b 488 1114 481 1085 488 1099 b 440 1164 488 1140 465 1164 b 400 1142 425 1164 417 1160 l 258 989 b 229 939 231 957 229 956 b 278 889 229 914 253 889 b 318 911 290 889 306 897 z m 688 1063 b 715 1114 714 1093 715 1096 b 668 1164 715 1140 693 1164 b 628 1142 653 1164 644 1160 l 486 989 b 457 939 458 957 457 956 b 506 889 457 914 481 889 b 546 911 518 889 533 897 z "},"Ŕ":{"ha":833,"x_min":0,"x_max":0,"o":"m 269 308 l 403 308 b 658 0 461 288 589 135 l 768 0 b 826 10 796 0 817 4 b 860 69 847 22 860 46 b 832 126 860 92 849 114 b 768 139 818 136 807 139 l 750 139 b 575 353 692 232 640 296 b 725 563 678 408 725 475 b 419 810 725 708 600 810 l 110 810 b 51 800 74 810 64 808 b 18 740 31 788 18 764 b 46 683 18 718 29 697 b 110 671 60 674 75 671 l 131 671 l 131 139 l 110 139 b 51 129 76 139 64 138 b 18 69 31 117 18 93 b 46 14 18 47 29 26 b 110 0 58 4 78 0 l 318 0 b 376 10 346 0 367 4 b 410 69 397 22 410 46 b 382 126 410 92 400 113 b 318 139 368 136 356 139 l 269 139 z m 269 447 l 269 671 l 425 671 b 578 567 514 671 578 626 b 375 447 578 497 492 447 z m 628 1065 b 660 1115 651 1085 660 1097 b 608 1165 660 1143 638 1165 b 564 1144 593 1165 585 1161 l 379 989 b 347 939 357 971 347 956 b 399 889 347 911 371 889 b 443 911 411 889 424 894 z "},"Ř":{"ha":833,"x_min":0,"x_max":0,"o":"m 269 308 l 403 308 b 658 0 461 288 589 135 l 768 0 b 826 10 796 0 817 4 b 860 69 847 22 860 46 b 832 126 860 92 849 114 b 768 139 818 136 807 139 l 750 139 b 575 353 692 232 640 296 b 725 563 678 408 725 475 b 419 810 725 708 600 810 l 110 810 b 51 800 74 810 64 808 b 18 740 31 788 18 764 b 46 683 18 718 29 697 b 110 671 60 674 75 671 l 131 671 l 131 139 l 110 139 b 51 129 76 139 64 138 b 18 69 31 117 18 93 b 46 14 18 47 29 26 b 110 0 58 4 78 0 l 318 0 b 376 10 346 0 367 4 b 410 69 397 22 410 46 b 382 126 410 92 400 113 b 318 139 368 136 356 139 l 269 139 z m 269 447 l 269 671 l 425 671 b 578 567 514 671 578 626 b 375 447 578 497 492 447 z m 418 1013 l 261 1147 b 222 1165 244 1161 235 1165 b 174 1115 196 1165 174 1143 b 207 1067 174 1097 176 1093 l 418 889 l 628 1067 b 661 1117 660 1093 661 1096 b 614 1165 661 1143 639 1165 b 574 1147 600 1165 590 1161 z "},"Ś":{"ha":833,"x_min":0,"x_max":0,"o":"m 718 738 b 708 797 718 774 717 785 b 650 829 697 817 675 829 b 596 783 622 829 610 818 b 415 829 547 814 486 829 b 114 583 242 829 114 725 b 228 390 114 504 157 431 b 407 336 272 365 317 351 b 553 299 501 319 524 314 b 603 225 583 282 603 254 b 419 119 603 165 524 119 b 226 210 326 119 240 160 b 206 257 215 247 215 247 b 156 276 193 269 175 276 b 86 185 108 276 86 247 l 86 93 b 157 1 86 31 108 1 b 213 35 179 1 189 7 b 429 -19 282 -1 353 -19 b 747 222 619 -19 747 78 b 665 396 747 296 721 351 b 449 472 622 431 569 450 b 310 508 344 492 338 494 b 258 585 279 524 258 556 b 415 690 258 644 326 690 b 581 597 501 690 568 653 b 600 542 590 553 590 553 b 650 522 611 531 631 522 b 706 551 671 522 692 532 b 718 615 715 565 718 576 z m 628 1065 b 660 1115 651 1085 660 1097 b 608 1165 660 1143 638 1165 b 564 1144 593 1165 585 1161 l 379 989 b 347 939 357 971 347 956 b 399 889 347 911 371 889 b 443 911 411 889 424 894 z "},"Ş":{"ha":833,"x_min":0,"x_max":0,"o":"m 461 -18 b 747 222 639 -6 747 86 b 665 396 747 296 721 351 b 447 472 621 431 568 450 b 308 508 344 492 336 494 b 257 585 278 524 257 556 b 414 690 257 644 325 690 b 579 597 501 690 568 653 b 600 542 589 553 589 553 b 649 522 611 531 631 522 b 706 551 671 522 692 532 b 718 615 715 565 718 576 l 718 738 b 708 797 718 774 717 785 b 650 829 697 817 675 829 b 596 783 622 829 610 818 b 414 829 547 814 486 829 b 114 583 242 829 114 725 b 228 390 114 504 157 431 b 407 336 272 365 315 351 b 553 299 501 319 524 314 b 603 225 583 282 603 254 b 418 119 603 165 522 119 b 225 210 326 119 240 160 b 206 257 215 247 215 247 b 156 276 193 269 175 276 b 86 185 108 276 86 247 l 86 93 b 156 1 86 31 108 1 b 213 35 179 1 189 7 b 364 -15 257 11 319 -10 l 364 -142 b 394 -139 379 -139 386 -139 b 468 -186 442 -139 468 -156 b 418 -221 468 -208 450 -221 b 339 -197 394 -221 363 -211 b 299 -182 313 -183 310 -182 b 250 -231 272 -182 250 -204 b 289 -285 250 -253 263 -269 b 417 -318 324 -304 378 -318 b 565 -185 503 -318 565 -262 b 461 -58 565 -112 532 -72 z "},"Ť":{"ha":833,"x_min":0,"x_max":0,"o":"m 485 671 l 636 671 l 636 542 b 646 483 636 510 639 494 b 706 450 658 463 682 450 b 763 479 728 450 749 461 b 775 542 774 493 775 503 l 775 810 l 58 810 l 58 542 b 68 483 58 510 61 494 b 128 450 81 463 104 450 b 185 479 150 450 171 461 b 197 542 194 493 197 504 l 197 671 l 346 671 l 346 139 l 256 139 b 197 129 219 139 210 138 b 164 69 176 117 164 93 b 193 14 164 49 175 26 b 256 0 204 4 224 0 l 576 0 b 668 69 638 0 668 24 b 639 126 668 92 658 113 b 576 139 625 136 614 139 l 485 139 z m 418 1013 l 261 1147 b 222 1165 244 1161 235 1165 b 174 1115 196 1165 174 1143 b 207 1067 174 1097 176 1093 l 418 889 l 628 1067 b 661 1117 660 1093 661 1096 b 614 1165 661 1143 639 1165 b 574 1147 600 1165 590 1161 z "},"Ů":{"ha":833,"x_min":0,"x_max":0,"o":"m 735 671 b 819 740 790 671 819 696 b 792 797 819 763 810 783 b 728 810 778 807 765 810 l 547 810 b 489 800 511 810 501 808 b 456 740 468 788 456 764 b 483 683 456 718 467 697 b 547 671 497 674 511 671 l 596 671 l 596 272 b 417 119 596 188 517 119 b 238 272 318 119 238 188 l 238 671 l 286 671 b 344 681 318 671 333 674 b 378 740 365 693 378 717 b 350 797 378 763 368 783 b 286 810 335 808 325 810 l 106 810 b 47 800 71 810 60 808 b 14 740 26 788 14 764 b 99 671 14 696 43 671 l 99 285 b 417 -19 99 113 236 -19 b 618 49 493 -19 558 3 b 735 285 697 108 735 186 z m 417 1210 b 246 1042 324 1210 246 1133 b 417 875 246 951 324 875 b 588 1040 508 875 588 951 b 417 1210 588 1135 511 1210 z m 417 1136 b 514 1042 469 1136 514 1093 b 417 950 514 993 469 950 b 319 1043 364 950 319 993 b 417 1136 319 1093 364 1136 z "},"Ű":{"ha":833,"x_min":0,"x_max":0,"o":"m 735 671 b 819 740 790 671 819 696 b 792 797 819 763 810 783 b 728 810 778 807 765 810 l 547 810 b 489 800 511 810 501 808 b 456 740 468 788 456 764 b 483 683 456 718 467 697 b 547 671 497 674 511 671 l 596 671 l 596 272 b 417 119 596 188 517 119 b 238 272 318 119 238 188 l 238 671 l 286 671 b 344 681 318 671 333 674 b 378 740 365 693 378 717 b 350 797 378 763 368 783 b 286 810 335 808 325 810 l 106 810 b 47 800 71 810 60 808 b 14 740 26 788 14 764 b 99 671 14 696 43 671 l 99 285 b 417 -19 99 113 236 -19 b 618 49 493 -19 558 3 b 735 285 697 108 735 186 z m 460 1063 b 488 1114 481 1085 488 1099 b 440 1164 488 1140 465 1164 b 400 1142 425 1164 417 1160 l 258 989 b 229 939 231 957 229 956 b 278 889 229 914 253 889 b 318 911 290 889 306 897 z m 688 1063 b 715 1114 714 1093 715 1096 b 668 1164 715 1140 693 1164 b 628 1142 653 1164 644 1160 l 486 989 b 457 939 458 957 457 956 b 506 889 457 914 481 889 b 546 911 518 889 533 897 z "},"Ź":{"ha":833,"x_min":0,"x_max":0,"o":"m 279 139 l 700 675 l 700 810 l 133 810 l 133 574 b 143 515 133 539 136 526 b 203 482 157 494 179 482 b 260 510 225 482 246 493 b 272 574 269 524 272 536 l 272 671 l 521 671 l 101 139 l 101 0 l 732 0 l 732 239 b 722 299 732 275 731 285 b 663 331 710 318 686 331 b 606 303 640 331 619 321 b 593 239 596 289 593 274 l 593 139 z m 628 1065 b 660 1115 651 1085 660 1097 b 608 1165 660 1143 638 1165 b 564 1144 593 1165 585 1161 l 379 989 b 347 939 357 971 347 956 b 399 889 347 911 371 889 b 443 911 411 889 424 894 z "},"Ż":{"ha":833,"x_min":0,"x_max":0,"o":"m 279 139 l 700 675 l 700 810 l 133 810 l 133 574 b 143 515 133 539 136 526 b 203 482 157 494 179 482 b 260 510 225 482 246 493 b 272 574 269 524 272 536 l 272 671 l 521 671 l 101 139 l 101 0 l 732 0 l 732 239 b 722 299 732 275 731 285 b 663 331 710 318 686 331 b 606 303 640 331 619 321 b 593 239 596 289 593 274 l 593 139 z m 417 1108 b 333 1025 371 1108 333 1071 b 417 942 333 979 371 942 b 500 1024 463 942 500 979 b 417 1108 500 1071 464 1108 z "},"Ā":{"ha":833,"x_min":0,"x_max":0,"o":"m 578 219 l 610 139 l 578 139 b 519 129 542 139 532 138 b 486 69 499 117 486 93 b 514 14 486 47 497 26 b 578 0 528 4 544 0 l 771 0 b 863 69 832 0 863 22 b 835 126 863 92 853 113 b 768 139 819 136 807 139 l 492 810 l 192 810 b 132 800 154 810 144 808 b 99 740 111 786 99 764 b 128 683 99 718 110 697 b 192 671 142 674 156 671 l 279 671 l 64 139 b 4 129 29 139 17 138 b -29 69 -17 117 -29 93 b 63 0 -29 22 1 0 l 247 0 b 306 10 276 0 294 3 b 339 69 326 24 339 46 b 311 126 339 92 329 113 b 247 139 296 136 285 139 l 215 139 l 247 219 z m 521 358 l 303 358 l 413 625 z m 247 1068 b 174 1013 200 1068 174 1047 b 189 974 174 1001 181 985 b 247 957 201 960 213 957 l 586 957 b 660 1013 632 957 660 978 b 644 1053 660 1024 653 1043 b 586 1068 635 1064 618 1068 z "},"Ţ":{"ha":833,"x_min":0,"x_max":0,"o":"m 485 671 l 636 671 l 636 542 b 646 483 636 510 639 494 b 706 450 658 463 682 450 b 763 479 728 450 749 461 b 775 542 774 493 775 503 l 775 810 l 58 810 l 58 542 b 68 483 58 510 61 494 b 128 450 81 463 104 450 b 185 479 150 450 171 461 b 197 542 194 493 197 504 l 197 671 l 346 671 l 346 139 l 256 139 b 197 129 219 139 210 138 b 164 69 176 117 164 93 b 193 14 164 49 175 26 b 256 0 204 4 224 0 l 576 0 b 668 69 638 0 668 24 b 639 126 668 92 658 113 b 576 139 625 136 614 139 l 485 139 z m 469 -175 b 488 -133 481 -158 488 -143 b 438 -82 488 -106 465 -82 b 385 -118 415 -82 404 -90 l 271 -293 b 254 -337 260 -310 254 -325 b 306 -386 254 -364 278 -386 b 356 -350 325 -386 338 -378 z "},"Ț":{"ha":833,"x_min":0,"x_max":0,"o":"m 485 671 l 636 671 l 636 542 b 646 483 636 510 639 494 b 706 450 658 463 682 450 b 763 479 728 450 749 461 b 775 542 774 493 775 503 l 775 810 l 58 810 l 58 542 b 68 483 58 510 61 494 b 128 450 81 463 104 450 b 185 479 150 450 171 461 b 197 542 194 493 197 504 l 197 671 l 346 671 l 346 139 l 256 139 b 197 129 219 139 210 138 b 164 69 176 117 164 93 b 193 14 164 49 175 26 b 256 0 204 4 224 0 l 576 0 b 668 69 638 0 668 24 b 639 126 668 92 658 113 b 576 139 625 136 614 139 l 485 139 z m 469 -175 b 488 -133 481 -158 488 -143 b 438 -82 488 -106 465 -82 b 385 -118 415 -82 404 -90 l 271 -293 b 254 -337 260 -310 254 -325 b 306 -386 254 -364 278 -386 b 356 -350 325 -386 338 -378 z "},"Ĉ":{"ha":833,"x_min":0,"x_max":0,"o":"m 46 346 b 456 -19 46 133 218 -19 b 710 50 556 -19 649 6 b 783 151 758 83 783 119 b 714 221 783 189 751 221 b 664 199 696 221 679 214 b 611 151 626 160 626 160 b 457 119 576 131 521 119 b 185 349 292 119 185 210 l 185 438 b 429 690 185 583 288 690 b 564 657 476 690 526 678 b 625 583 604 635 618 617 b 693 510 633 531 653 510 b 750 539 715 510 736 521 b 763 601 760 551 763 567 l 763 718 b 753 776 763 753 761 764 b 693 810 740 797 718 810 b 635 776 669 810 653 801 b 424 829 538 821 501 829 b 46 438 208 829 46 661 z m 418 1042 l 574 907 b 613 889 589 894 600 889 b 661 938 639 889 661 911 b 628 988 661 958 658 961 l 418 1165 l 206 988 b 172 939 174 961 172 957 b 221 889 172 911 194 889 b 260 907 233 889 244 893 z "},"Ŵ":{"ha":833,"x_min":0,"x_max":0,"o":"m 417 385 l 546 0 l 699 0 l 782 671 b 847 740 825 678 847 703 b 819 797 847 763 838 783 b 756 810 806 807 793 810 l 574 810 b 515 800 538 810 528 808 b 482 740 494 788 482 764 b 510 683 482 718 493 697 b 574 671 524 674 539 671 l 647 671 l 599 293 l 493 607 l 349 607 l 243 293 l 193 671 l 260 671 b 319 681 293 671 307 674 b 353 740 340 693 353 717 b 324 797 353 763 342 783 b 260 810 310 807 299 810 l 78 810 b 19 800 42 810 32 808 b -14 738 -3 786 -14 765 b 50 671 -14 699 8 676 l 136 0 l 290 0 z m 418 1042 l 574 907 b 613 889 589 894 600 889 b 661 938 639 889 661 911 b 628 988 661 958 658 961 l 418 1165 l 206 988 b 172 939 174 961 172 957 b 221 889 172 911 194 889 b 260 907 233 889 244 893 z "},"Ẅ":{"ha":833,"x_min":0,"x_max":0,"o":"m 417 385 l 546 0 l 699 0 l 782 671 b 847 740 825 678 847 703 b 819 797 847 763 838 783 b 756 810 806 807 793 810 l 574 810 b 515 800 538 810 528 808 b 482 740 494 788 482 764 b 510 683 482 718 493 697 b 574 671 524 674 539 671 l 647 671 l 599 293 l 493 607 l 349 607 l 243 293 l 193 671 l 260 671 b 319 681 293 671 307 674 b 353 740 340 693 353 717 b 324 797 353 763 342 783 b 260 810 310 807 299 810 l 78 810 b 19 800 42 810 32 808 b -14 738 -3 786 -14 765 b 50 671 -14 699 8 676 l 136 0 l 290 0 z m 272 1108 b 189 1025 226 1108 189 1071 b 272 942 189 979 226 942 b 356 1024 318 942 356 979 b 272 1108 356 1071 319 1108 z m 561 1108 b 478 1025 515 1108 478 1071 b 561 942 478 979 515 942 b 644 1024 607 942 644 979 b 561 1108 644 1071 608 1108 z "},"Ŷ":{"ha":833,"x_min":0,"x_max":0,"o":"m 486 340 l 714 671 b 761 676 742 671 750 672 b 804 740 786 686 804 713 b 776 797 804 763 794 783 b 713 810 763 807 750 810 l 585 810 b 525 800 550 810 538 808 b 492 740 504 788 492 764 b 547 672 492 708 510 686 l 417 483 l 285 672 b 338 740 321 688 338 708 b 310 797 338 763 328 783 b 246 810 296 807 283 810 l 122 810 l 121 810 b 63 800 107 813 71 806 b 29 740 42 786 29 764 b 118 671 29 696 61 671 l 347 340 l 347 139 l 257 139 b 197 129 219 139 210 138 b 164 69 176 117 164 93 b 193 14 164 47 175 26 b 257 0 206 4 224 0 l 576 0 b 636 10 606 0 626 4 b 669 69 657 24 669 46 b 640 126 669 92 660 113 b 576 139 626 136 615 139 l 486 139 z m 418 1042 l 574 907 b 613 889 589 894 600 889 b 661 938 639 889 661 911 b 628 988 661 958 658 961 l 418 1165 l 206 988 b 172 939 174 961 172 957 b 221 889 172 911 194 889 b 260 907 233 889 244 893 z "},"Ħ":{"ha":833,"x_min":0,"x_max":0,"o":"m 132 622 l 124 622 l 115 622 b 32 569 65 622 32 601 b 132 517 32 535 65 517 l 132 139 l 124 139 b 65 129 89 139 76 136 b 32 69 44 117 32 93 b 60 13 32 47 43 26 b 124 0 72 4 90 0 l 292 0 b 383 69 353 0 383 22 b 356 125 383 92 374 113 b 292 139 340 136 329 139 l 271 139 l 271 335 l 568 335 l 568 139 l 547 139 b 489 129 514 139 501 136 b 456 69 468 117 456 93 b 485 13 456 47 467 26 b 547 0 497 4 514 0 l 715 0 b 774 10 744 0 764 3 b 807 69 794 22 807 46 b 779 125 807 92 797 113 b 715 139 765 136 753 139 l 707 139 l 707 517 b 807 569 774 517 807 533 b 724 622 807 601 774 622 l 715 622 l 707 622 l 707 671 b 779 740 753 675 779 700 b 751 797 779 763 769 783 b 688 810 738 807 725 810 l 547 810 b 489 800 513 810 501 808 b 456 740 468 788 456 764 b 485 685 456 718 467 697 b 547 671 499 674 511 671 l 568 671 l 568 622 l 271 622 l 271 671 l 292 671 b 350 681 325 671 338 674 b 383 740 371 694 383 717 b 356 797 383 763 374 783 b 292 810 342 807 329 810 l 151 810 b 93 800 117 810 106 808 b 60 740 72 788 60 764 b 132 671 60 700 86 675 z m 568 517 l 568 456 l 271 456 l 271 517 z "},"Ē":{"ha":833,"x_min":0,"x_max":0,"o":"m 269 338 l 388 338 l 388 328 b 397 269 388 294 389 282 b 456 236 410 249 432 236 b 513 264 478 236 499 246 b 525 328 522 278 525 290 l 525 485 b 519 535 525 514 524 522 b 456 578 511 560 483 578 b 400 549 435 578 414 567 b 388 485 390 535 388 522 l 388 475 l 269 475 l 269 671 l 594 671 l 594 601 b 604 542 594 568 597 554 b 664 508 618 521 640 508 b 721 538 686 508 707 519 b 733 601 731 551 733 563 l 733 810 l 110 810 b 51 800 74 810 64 808 b 18 740 31 786 18 764 b 47 683 18 718 28 697 b 110 671 60 674 75 671 l 131 671 l 131 139 l 110 139 b 51 129 75 139 64 138 b 18 69 31 115 18 93 b 47 14 18 47 28 26 b 110 0 58 4 78 0 l 764 0 l 764 211 b 754 271 764 244 761 260 b 694 304 740 292 718 304 b 638 276 672 304 651 294 b 625 211 628 261 625 250 l 625 139 l 269 139 z m 247 1068 b 174 1013 200 1068 174 1047 b 189 974 174 1001 181 985 b 247 957 201 960 213 957 l 586 957 b 660 1013 632 957 660 978 b 644 1053 660 1024 653 1043 b 586 1068 635 1064 618 1068 z "},"Ĝ":{"ha":833,"x_min":0,"x_max":0,"o":"m 764 250 b 822 319 803 261 822 285 b 793 376 822 342 813 363 b 729 389 779 386 767 389 l 486 389 b 428 379 451 389 440 388 b 394 319 407 367 394 343 b 424 264 394 297 404 276 b 486 250 436 253 451 250 l 625 250 l 625 154 b 451 119 571 129 518 119 b 247 181 364 119 294 140 b 185 351 204 217 185 271 l 185 440 b 258 625 185 510 213 579 b 442 690 301 668 364 690 b 626 611 543 690 613 660 b 646 558 638 568 638 568 b 694 538 657 546 676 538 b 751 567 717 538 738 549 b 764 629 763 581 764 590 l 764 738 b 754 796 764 771 763 782 b 699 829 744 817 722 829 b 642 785 672 829 658 818 b 440 829 582 815 515 829 b 163 722 326 829 236 794 b 46 440 88 649 46 546 l 46 342 b 138 90 46 244 81 149 b 460 -19 206 21 324 -19 b 764 67 569 -19 639 0 z m 418 1042 l 574 907 b 613 889 589 894 600 889 b 661 938 639 889 661 911 b 628 988 661 958 658 961 l 418 1165 l 206 988 b 172 939 174 961 172 957 b 221 889 172 911 194 889 b 260 907 233 889 244 893 z "},"Ĥ":{"ha":833,"x_min":0,"x_max":0,"o":"m 568 335 l 568 139 l 547 139 b 489 129 514 139 501 136 b 456 69 468 117 456 93 b 485 13 456 47 467 26 b 547 0 497 4 514 0 l 715 0 b 774 10 744 0 764 3 b 807 69 794 22 807 46 b 779 125 807 92 797 113 b 715 139 765 136 753 139 l 707 139 l 707 671 b 779 740 753 675 779 700 b 751 797 779 763 769 783 b 688 810 738 807 725 810 l 547 810 b 489 800 513 810 501 808 b 456 740 468 788 456 764 b 485 685 456 719 467 697 b 547 671 499 674 511 671 l 568 671 l 568 474 l 271 474 l 271 671 l 292 671 b 350 682 325 671 338 674 b 383 740 371 694 383 717 b 356 797 383 763 374 783 b 292 810 342 807 329 810 l 151 810 b 93 800 117 810 106 808 b 60 740 72 788 60 764 b 132 671 60 700 86 675 l 132 139 l 124 139 b 65 129 89 139 76 136 b 32 69 44 117 32 93 b 60 13 32 47 43 26 b 124 0 72 4 90 0 l 292 0 b 383 69 353 0 383 22 b 356 125 383 92 374 113 b 292 139 340 136 329 139 l 271 139 l 271 335 z m 418 1042 l 574 907 b 613 889 589 894 600 889 b 661 938 639 889 661 911 b 628 988 661 958 658 961 l 418 1165 l 206 988 b 172 939 174 961 172 957 b 221 889 172 911 194 889 b 260 907 233 889 244 893 z "},"Ī":{"ha":833,"x_min":0,"x_max":0,"o":"m 486 671 l 626 671 b 685 681 658 671 674 674 b 718 740 706 694 718 717 b 689 797 718 763 708 783 b 626 810 675 807 664 810 l 207 810 b 149 800 171 810 161 808 b 115 740 128 788 115 764 b 143 683 115 718 126 697 b 207 671 157 674 172 671 l 347 671 l 347 139 l 207 139 b 149 129 171 139 161 138 b 115 69 128 117 115 93 b 207 0 115 24 146 0 l 626 0 b 718 69 688 0 718 24 b 689 126 718 92 708 113 b 626 139 675 136 664 139 l 486 139 z m 247 1068 b 174 1013 200 1068 174 1047 b 189 974 174 1001 181 985 b 247 957 201 960 213 957 l 586 957 b 660 1013 632 957 660 978 b 644 1053 660 1024 653 1043 b 586 1068 635 1064 618 1068 z "},"Į":{"ha":833,"x_min":0,"x_max":0,"o":"m 486 671 l 626 671 b 685 681 658 671 674 674 b 718 740 706 694 718 717 b 689 797 718 763 708 783 b 626 810 675 807 664 810 l 207 810 b 149 800 171 810 161 808 b 115 740 128 788 115 764 b 143 683 115 718 126 697 b 207 671 157 674 172 671 l 347 671 l 347 139 l 207 139 b 149 129 171 139 161 138 b 115 69 128 117 115 93 b 207 0 115 24 146 0 l 531 0 b 421 -165 450 -51 421 -96 b 551 -289 421 -242 471 -289 b 668 -262 589 -289 631 -279 b 717 -203 701 -247 717 -228 b 664 -150 717 -174 693 -150 b 632 -158 653 -150 646 -151 b 560 -183 592 -179 579 -183 b 528 -156 539 -183 528 -174 b 657 -7 528 -112 579 -53 b 718 69 706 22 718 38 b 689 126 718 92 708 113 b 626 139 675 136 664 139 l 486 139 z "},"Ĵ":{"ha":833,"x_min":0,"x_max":0,"o":"m 681 671 l 760 671 b 818 681 792 671 807 674 b 851 740 839 693 851 717 b 824 797 851 763 842 783 b 760 810 810 807 797 810 l 376 810 b 318 800 340 810 331 808 b 285 740 297 788 285 764 b 314 683 285 718 296 697 b 376 671 326 674 342 671 l 542 671 l 542 275 b 508 169 542 211 538 199 b 376 119 476 139 426 119 b 214 163 329 119 282 132 l 214 296 b 204 356 214 331 213 343 b 144 389 192 376 168 389 b 88 361 122 389 101 379 b 75 296 78 347 75 332 l 75 71 b 374 -19 203 8 294 -19 b 592 58 456 -19 532 8 b 681 260 657 115 681 168 z m 418 1042 l 574 907 b 613 889 589 894 600 889 b 661 938 639 889 661 911 b 628 988 661 958 658 961 l 418 1165 l 206 988 b 172 939 174 961 172 957 b 221 889 172 911 194 889 b 260 907 233 889 244 893 z "},"Ķ":{"ha":833,"x_min":0,"x_max":0,"o":"m 269 289 l 353 360 b 592 0 438 333 526 199 l 744 0 b 836 69 806 0 836 24 b 808 126 836 92 826 113 b 744 139 794 136 782 139 l 700 139 b 465 458 636 299 550 414 l 710 671 b 796 740 767 671 796 694 b 768 797 796 763 786 783 b 704 810 754 807 742 810 l 565 810 l 564 810 b 506 800 551 813 515 806 b 474 739 485 786 474 764 b 517 676 474 707 488 688 l 269 464 l 269 671 l 318 671 b 376 681 350 671 365 674 b 410 740 397 693 410 717 b 382 797 410 763 399 783 b 318 810 368 807 356 810 l 110 810 b 51 800 74 810 64 808 b 18 740 31 788 18 764 b 47 683 18 718 29 697 b 110 671 60 674 75 671 l 131 671 l 131 139 l 110 139 b 51 129 76 139 64 138 b 18 69 31 117 18 93 b 47 14 18 47 29 26 b 110 0 58 4 78 0 l 318 0 b 376 10 346 0 367 4 b 410 69 397 24 410 46 b 382 126 410 92 400 113 b 318 139 368 136 356 139 l 269 139 z m 469 -175 b 488 -133 481 -158 488 -143 b 438 -82 488 -106 465 -82 b 385 -118 415 -82 404 -90 l 271 -293 b 254 -337 260 -310 254 -325 b 306 -386 254 -364 278 -386 b 356 -350 325 -386 338 -378 z "},"Ļ":{"ha":833,"x_min":0,"x_max":0,"o":"m 356 671 l 435 671 b 493 681 467 671 482 674 b 526 740 514 694 526 717 b 497 797 526 763 517 783 b 435 810 483 807 472 810 l 138 810 b 79 800 101 810 92 808 b 46 740 58 788 46 764 b 74 683 46 718 56 697 b 138 671 88 674 103 671 l 217 671 l 217 139 l 138 139 b 79 129 101 139 92 138 b 46 69 58 117 46 94 b 138 0 46 24 76 0 l 793 0 l 793 267 b 783 326 793 301 792 314 b 724 360 769 347 749 360 b 667 331 701 360 681 350 b 654 267 657 317 654 306 l 654 139 l 356 139 z m 469 -175 b 488 -133 481 -158 488 -143 b 438 -82 488 -106 465 -82 b 385 -118 415 -82 404 -90 l 271 -293 b 254 -337 260 -310 254 -325 b 306 -386 254 -364 278 -386 b 356 -350 325 -386 338 -378 z "},"Ņ":{"ha":833,"x_min":0,"x_max":0,"o":"m 240 547 l 600 0 l 738 0 l 738 671 b 822 740 793 671 822 696 b 794 797 822 763 813 783 b 731 810 779 807 768 810 l 550 810 b 492 800 514 810 504 808 b 458 740 471 788 458 764 b 486 683 458 718 469 697 b 550 671 500 674 514 671 l 599 671 l 599 265 l 240 810 l 81 810 b 22 800 44 810 35 808 b -11 740 1 788 -11 764 b 18 683 -11 718 0 697 b 81 671 31 674 46 671 l 101 671 l 101 139 b 17 69 46 139 17 114 b 46 14 17 47 28 26 b 110 0 57 4 76 0 l 289 0 b 381 69 350 0 381 24 b 353 126 381 92 371 113 b 289 139 339 136 326 139 l 240 139 z m 469 -175 b 488 -133 481 -158 488 -143 b 438 -82 488 -106 465 -82 b 385 -118 415 -82 404 -90 l 271 -293 b 254 -337 260 -310 254 -325 b 306 -386 254 -364 278 -386 b 356 -350 325 -386 338 -378 z "},"Ō":{"ha":833,"x_min":0,"x_max":0,"o":"m 417 829 b 29 406 203 829 29 639 b 417 -19 29 171 203 -19 b 804 399 628 -19 804 171 b 674 722 804 532 761 639 b 417 829 600 792 510 829 z m 417 690 b 665 401 554 690 665 563 b 417 119 665 249 551 119 b 168 406 281 119 168 249 b 417 690 168 561 281 690 z m 247 1068 b 174 1013 200 1068 174 1047 b 189 974 174 1001 181 985 b 247 957 201 960 213 957 l 586 957 b 660 1013 632 957 660 978 b 644 1053 660 1024 653 1043 b 586 1068 635 1064 618 1068 z "},"Ŗ":{"ha":833,"x_min":0,"x_max":0,"o":"m 269 308 l 403 308 b 658 0 461 288 589 135 l 768 0 b 826 10 796 0 817 4 b 860 69 847 22 860 46 b 832 126 860 92 849 114 b 768 139 818 136 807 139 l 750 139 b 575 353 692 232 640 296 b 725 563 678 408 725 475 b 419 810 725 708 600 810 l 110 810 b 51 800 74 810 64 808 b 18 740 31 788 18 764 b 46 683 18 718 29 697 b 110 671 60 674 75 671 l 131 671 l 131 139 l 110 139 b 51 129 76 139 64 138 b 18 69 31 117 18 93 b 46 14 18 47 29 26 b 110 0 58 4 78 0 l 318 0 b 376 10 346 0 367 4 b 410 69 397 22 410 46 b 382 126 410 92 400 113 b 318 139 368 136 356 139 l 269 139 z m 269 447 l 269 671 l 425 671 b 578 567 514 671 578 626 b 375 447 578 497 492 447 z m 469 -175 b 488 -133 481 -158 488 -143 b 438 -82 488 -106 465 -82 b 385 -118 415 -82 404 -90 l 271 -293 b 254 -337 260 -310 254 -325 b 306 -386 254 -364 278 -386 b 356 -350 325 -386 338 -378 z "},"Ŝ":{"ha":833,"x_min":0,"x_max":0,"o":"m 718 738 b 708 797 718 774 717 785 b 650 829 697 817 675 829 b 596 783 622 829 610 818 b 415 829 547 814 486 829 b 114 583 243 829 114 725 b 228 390 114 504 157 431 b 407 336 272 365 317 351 b 553 299 501 319 524 314 b 603 225 583 282 603 254 b 419 119 603 165 522 119 b 226 210 328 119 240 160 b 206 257 215 247 215 247 b 156 276 193 269 175 276 b 86 185 108 276 86 247 l 86 93 b 157 1 86 31 108 1 b 213 35 179 1 189 7 b 429 -19 282 -1 353 -19 b 747 222 619 -19 747 78 b 665 396 747 296 721 351 b 449 472 622 431 569 450 b 310 508 346 492 338 494 b 258 585 279 524 258 556 b 415 690 258 644 326 690 b 581 597 503 690 568 653 b 600 542 590 553 590 553 b 650 522 611 531 631 522 b 706 551 671 522 692 532 b 718 614 715 565 718 576 z m 418 1042 l 574 907 b 613 889 589 894 600 889 b 661 938 639 889 661 911 b 628 988 661 957 658 961 l 418 1165 l 206 988 b 172 939 175 961 172 957 b 221 889 172 911 194 889 b 260 907 233 889 243 893 z "},"Ģ":{"ha":833,"x_min":0,"x_max":0,"o":"m 764 250 b 822 319 803 261 822 285 b 793 376 822 342 813 363 b 729 389 779 386 767 389 l 486 389 b 428 379 451 389 440 388 b 394 319 407 367 394 343 b 424 264 394 297 404 276 b 486 250 436 253 451 250 l 625 250 l 625 154 b 451 119 571 129 518 119 b 247 181 364 119 294 140 b 185 351 204 217 185 271 l 185 440 b 258 625 185 510 213 579 b 442 690 301 668 364 690 b 626 611 543 690 613 660 b 646 558 638 568 638 568 b 694 538 657 546 676 538 b 751 567 717 538 738 549 b 764 629 763 581 764 590 l 764 738 b 754 796 764 771 763 782 b 699 829 744 817 722 829 b 642 785 672 829 658 818 b 440 829 582 815 515 829 b 163 722 326 829 236 794 b 46 440 88 649 46 546 l 46 342 b 138 90 46 244 81 149 b 460 -19 206 21 324 -19 b 764 67 569 -19 639 0 z m 469 -175 b 488 -133 481 -158 488 -143 b 438 -82 488 -106 465 -82 b 385 -118 415 -82 404 -90 l 271 -293 b 254 -337 260 -310 254 -325 b 306 -386 254 -364 278 -386 b 356 -350 325 -386 338 -378 z "},"Ū":{"ha":833,"x_min":0,"x_max":0,"o":"m 735 671 b 819 740 790 671 819 696 b 792 797 819 763 810 783 b 728 810 778 807 765 810 l 547 810 b 489 800 511 810 501 808 b 456 740 468 788 456 764 b 483 683 456 718 467 697 b 547 671 497 674 511 671 l 596 671 l 596 272 b 417 119 596 188 517 119 b 238 272 318 119 238 188 l 238 671 l 286 671 b 344 681 318 671 333 674 b 378 740 365 693 378 717 b 350 797 378 763 368 783 b 286 810 335 808 325 810 l 106 810 b 47 800 71 810 60 808 b 14 740 26 788 14 764 b 99 671 14 696 43 671 l 99 285 b 417 -19 99 113 236 -19 b 618 49 493 -19 558 3 b 735 285 697 108 735 186 z m 247 1068 b 174 1013 200 1068 174 1047 b 189 974 174 1001 181 985 b 247 957 201 960 213 957 l 586 957 b 660 1013 632 957 660 978 b 644 1053 660 1024 653 1043 b 586 1068 635 1064 618 1068 z "},"Ų":{"ha":833,"x_min":0,"x_max":0,"o":"m 735 671 b 819 740 790 671 819 696 b 792 797 819 763 810 783 b 728 810 778 807 765 810 l 547 810 b 489 800 511 810 501 808 b 456 740 468 788 456 764 b 483 683 456 718 467 697 b 547 671 497 674 511 671 l 596 671 l 596 272 b 417 119 596 188 517 119 b 238 272 318 119 238 188 l 238 671 l 286 671 b 344 681 318 671 333 674 b 378 740 365 693 378 717 b 350 797 378 763 368 783 b 286 810 335 808 325 810 l 106 810 b 47 800 71 810 60 808 b 14 740 26 788 14 764 b 99 671 14 696 43 671 l 99 285 b 249 25 99 174 150 85 b 417 -19 294 -1 361 -19 b 469 -15 429 -19 446 -18 b 385 -165 404 -71 385 -106 b 515 -289 385 -242 433 -289 b 657 -247 564 -289 625 -271 b 681 -203 671 -237 681 -219 b 628 -150 681 -174 657 -150 b 597 -158 617 -150 610 -151 b 526 -183 563 -176 543 -183 b 493 -157 504 -183 493 -174 b 613 36 493 -103 533 -37 b 735 285 701 118 732 178 z "},"Ĕ":{"ha":833,"x_min":0,"x_max":0,"o":"m 269 338 l 388 338 l 388 328 b 397 269 388 294 389 282 b 456 236 410 249 432 236 b 513 264 478 236 499 246 b 525 328 522 278 525 290 l 525 485 b 519 535 525 514 524 522 b 456 578 511 560 483 578 b 400 549 435 578 414 567 b 388 485 390 535 388 522 l 388 475 l 269 475 l 269 671 l 594 671 l 594 601 b 604 542 594 568 597 554 b 664 508 618 521 640 508 b 721 538 686 508 707 519 b 733 601 731 551 733 563 l 733 810 l 110 810 b 51 800 74 810 64 808 b 18 740 31 786 18 764 b 47 683 18 718 28 697 b 110 671 60 674 75 671 l 131 671 l 131 139 l 110 139 b 51 129 75 139 64 138 b 18 69 31 115 18 93 b 47 14 18 47 28 26 b 110 0 58 4 78 0 l 764 0 l 764 211 b 754 271 764 244 761 260 b 694 304 740 292 718 304 b 638 276 672 304 651 294 b 625 211 628 261 625 250 l 625 139 l 269 139 z m 221 1154 b 174 1101 192 1154 174 1133 b 417 899 174 994 289 899 b 660 1101 544 899 660 994 b 613 1154 660 1133 642 1154 b 565 1099 585 1154 575 1142 b 417 993 551 1035 493 993 b 268 1099 340 993 282 1035 b 221 1154 258 1142 249 1154 z "},"Ĭ":{"ha":833,"x_min":0,"x_max":0,"o":"m 486 671 l 626 671 b 685 681 658 671 674 674 b 718 740 706 694 718 717 b 689 797 718 763 708 782 b 626 810 675 807 664 810 l 207 810 b 149 800 171 810 161 808 b 115 740 128 786 115 764 b 144 683 115 718 126 697 b 207 671 157 674 172 671 l 347 671 l 347 139 l 207 139 b 149 129 171 139 161 138 b 115 69 128 117 115 93 b 207 0 115 24 146 0 l 626 0 b 718 69 688 0 718 24 b 689 126 718 92 708 113 b 626 139 675 136 664 139 l 486 139 z m 222 1154 b 174 1101 192 1154 174 1133 b 417 899 174 994 289 899 b 660 1101 544 899 660 994 b 613 1154 660 1133 642 1154 b 565 1099 585 1154 575 1142 b 417 993 551 1035 493 993 b 268 1099 340 993 282 1035 b 222 1154 258 1142 249 1154 z "},"ĳ":{"ha":833,"x_min":0,"x_max":0,"o":"m 344 607 l 107 607 b 47 597 69 607 60 606 b 14 538 26 585 14 563 b 107 468 14 490 44 468 l 206 468 l 206 139 l 106 139 b 47 129 69 139 60 138 b 14 69 26 117 14 93 b 42 14 14 47 25 26 b 106 0 54 4 74 0 l 439 0 b 499 10 468 0 489 4 b 532 69 519 24 532 46 b 503 126 532 92 522 113 b 439 139 489 136 478 139 l 344 139 z m 335 865 l 171 865 l 171 719 l 335 719 z m 678 468 l 678 -28 b 547 -146 678 -99 626 -146 l 393 -146 b 335 -156 358 -146 347 -147 b 301 -215 314 -168 301 -192 b 331 -271 301 -237 313 -258 b 393 -285 343 -282 358 -285 l 551 -285 b 817 -28 703 -285 818 -172 l 817 607 l 525 607 b 467 597 489 607 479 606 b 433 538 446 585 433 561 b 461 482 433 515 444 494 b 525 468 475 471 490 468 z m 736 865 l 571 865 l 571 719 l 736 719 z "},"ſ":{"ha":833,"x_min":0,"x_max":0,"o":"m 415 139 l 415 658 b 532 726 415 704 453 726 b 689 711 576 726 639 721 b 728 707 706 708 719 707 b 793 778 765 707 793 738 b 735 843 793 811 772 833 b 544 865 690 856 603 865 b 276 658 379 865 276 786 l 276 607 l 213 607 b 153 597 175 607 165 606 b 119 538 132 585 119 563 b 211 468 119 490 150 468 l 276 468 l 276 139 l 196 139 b 138 129 160 139 150 138 b 104 69 117 117 104 93 b 132 14 104 49 115 26 b 196 0 144 4 164 0 l 608 0 b 667 10 636 0 657 4 b 700 69 688 24 700 46 b 672 126 700 92 690 113 b 608 139 658 136 646 139 z "},"ă":{"ha":833,"x_min":0,"x_max":0,"o":"m 539 0 l 701 0 b 793 69 763 0 793 22 b 765 126 793 92 783 113 b 701 139 751 136 739 139 l 679 139 l 679 419 b 406 625 679 549 576 625 b 167 583 335 625 235 607 b 125 525 139 574 125 554 b 193 454 125 485 154 454 b 249 463 206 454 225 457 b 411 486 315 479 364 486 b 539 418 499 486 539 465 l 539 386 b 394 400 482 396 439 400 b 113 294 271 400 175 364 b 58 165 79 257 58 208 b 308 -22 58 61 169 -22 b 539 32 390 -22 474 -3 z m 540 188 b 311 117 464 140 388 117 b 206 171 251 117 206 140 b 386 272 206 224 292 272 b 540 257 435 272 478 268 z m 221 954 b 174 901 192 954 174 933 b 417 699 174 794 289 699 b 660 901 544 699 660 794 b 613 954 660 933 642 954 b 565 899 585 954 575 942 b 417 793 551 835 493 793 b 268 899 340 793 282 835 b 221 954 258 942 249 954 z "},"ą":{"ha":833,"x_min":0,"x_max":0,"o":"m 679 139 l 679 419 b 406 625 679 549 576 625 b 167 583 335 625 235 607 b 125 525 139 574 125 554 b 193 454 125 485 154 454 b 249 463 206 454 225 457 b 411 486 315 479 364 486 b 539 418 499 486 539 465 l 539 386 b 394 400 482 396 439 400 b 113 294 271 400 175 364 b 58 165 79 257 58 208 b 308 -22 58 61 169 -22 b 539 32 390 -22 474 -3 l 539 0 l 619 0 b 510 -165 539 -53 510 -96 b 640 -289 510 -242 560 -289 b 757 -262 678 -289 719 -279 b 806 -203 790 -247 806 -228 b 753 -150 806 -174 782 -150 b 721 -158 742 -150 735 -151 b 649 -183 681 -179 668 -183 b 617 -156 628 -183 617 -174 b 704 -35 617 -119 646 -79 b 793 69 788 29 793 35 b 765 126 793 92 783 113 b 701 139 751 136 739 139 z m 540 188 b 311 117 464 140 388 117 b 206 171 251 117 206 140 b 386 272 206 224 292 272 b 540 257 435 272 478 268 z "},"ć":{"ha":833,"x_min":0,"x_max":0,"o":"m 750 533 b 683 625 750 597 729 625 b 631 583 654 625 639 613 b 431 625 576 611 510 625 b 75 286 221 625 75 486 b 160 74 75 201 104 129 b 449 -22 228 7 314 -22 b 696 22 551 -22 639 -7 b 785 124 753 51 785 88 b 715 194 785 163 753 194 b 674 178 699 194 686 189 b 604 135 639 149 631 144 b 458 117 569 124 515 117 b 214 288 296 117 214 174 b 269 426 214 340 233 390 b 431 486 308 467 360 486 b 578 451 492 486 542 474 b 610 401 596 439 604 426 b 631 354 617 371 619 363 b 681 335 642 342 663 335 b 738 363 703 335 724 346 b 750 426 747 376 750 390 z m 628 867 b 660 917 651 885 660 899 b 608 967 660 944 638 967 b 564 944 593 967 586 963 l 379 790 b 347 739 357 772 347 757 b 399 689 347 713 371 689 b 443 711 413 689 421 693 z "},"č":{"ha":833,"x_min":0,"x_max":0,"o":"m 750 533 b 683 625 750 597 729 625 b 631 583 654 625 639 613 b 431 625 576 611 510 625 b 75 286 221 625 75 486 b 160 74 75 201 104 129 b 449 -22 228 7 314 -22 b 696 22 551 -22 639 -7 b 785 124 753 51 785 88 b 715 194 785 163 753 194 b 674 178 699 194 686 189 b 604 135 639 149 631 144 b 458 117 569 124 515 117 b 214 288 296 117 214 174 b 269 426 214 340 233 390 b 431 486 308 467 360 486 b 578 451 492 486 542 474 b 610 401 596 439 604 426 b 631 354 617 371 619 363 b 681 335 642 342 663 335 b 738 363 703 335 724 346 b 750 426 747 376 750 390 z m 446 814 l 289 947 b 250 967 271 964 264 967 b 201 917 224 967 201 944 b 235 868 201 899 204 894 l 446 690 l 656 868 b 689 917 686 894 689 897 b 642 967 689 944 667 967 b 601 947 628 967 619 963 z "},"ċ":{"ha":833,"x_min":0,"x_max":0,"o":"m 750 533 b 683 625 750 597 729 625 b 631 583 654 625 639 613 b 431 625 576 611 510 625 b 75 286 221 625 75 486 b 160 74 75 201 104 129 b 449 -22 228 7 314 -22 b 696 22 551 -22 639 -7 b 785 124 753 51 785 88 b 715 194 785 163 753 194 b 674 178 699 194 686 189 b 604 135 639 149 631 144 b 458 117 569 124 515 117 b 214 288 296 117 214 174 b 269 426 214 340 233 390 b 431 486 308 467 360 486 b 578 451 492 486 542 474 b 610 401 596 439 604 426 b 631 354 617 371 619 363 b 681 335 642 342 663 335 b 738 363 703 335 724 346 b 750 426 747 376 750 390 z m 444 908 b 361 825 399 908 361 871 b 444 742 361 779 399 742 b 528 824 490 742 528 779 b 444 908 528 871 492 908 z "},"ď":{"ha":833,"x_min":0,"x_max":0,"o":"m 738 688 l 738 867 l 576 867 b 518 857 540 867 531 865 b 485 797 497 844 485 822 b 513 742 485 776 494 756 b 576 729 526 732 540 729 l 599 729 l 599 557 b 390 626 539 604 474 626 b 142 536 285 626 207 599 b 46 303 79 475 46 394 b 142 71 46 213 79 133 b 389 -19 207 8 285 -19 b 599 49 472 -19 525 -1 l 599 0 l 760 0 b 818 10 792 0 807 3 b 851 69 839 22 851 46 b 824 125 851 92 842 113 b 760 139 810 136 797 139 l 738 139 l 738 588 b 763 582 749 583 756 582 b 814 618 783 582 796 592 l 928 792 b 946 833 940 811 946 824 b 896 885 946 863 924 885 b 843 849 874 885 861 876 z m 390 488 b 544 432 460 488 504 471 b 599 301 579 397 599 351 b 544 175 599 256 579 210 b 392 119 506 136 458 119 b 239 175 325 119 278 136 b 185 304 204 210 185 257 b 239 432 185 351 204 397 b 390 488 278 471 324 488 z "},"đ":{"ha":833,"x_min":0,"x_max":0,"o":"m 738 704 l 738 867 l 576 867 b 518 857 540 867 531 865 b 485 797 497 844 485 822 b 513 742 485 776 494 756 b 576 729 526 732 540 729 l 599 729 l 599 561 b 390 625 528 607 468 625 b 46 290 196 625 46 479 b 393 -22 46 106 188 -22 b 599 33 469 -22 535 -4 l 599 0 l 760 0 b 818 10 792 0 807 3 b 851 69 839 22 851 46 b 824 125 851 92 842 113 b 760 139 810 136 797 139 l 738 139 l 738 565 l 760 565 b 851 635 821 565 851 589 b 824 690 851 657 842 676 b 760 704 810 701 797 704 z m 392 486 b 599 286 510 486 599 400 b 392 117 599 183 518 117 b 185 288 264 117 185 182 b 392 486 185 400 275 486 z "},"ě":{"ha":833,"x_min":0,"x_max":0,"o":"m 764 239 l 764 293 b 404 625 764 485 611 625 b 46 300 201 625 46 483 b 413 -22 46 110 197 -22 b 715 31 513 -22 653 3 b 764 93 749 44 764 65 b 697 163 764 133 736 163 b 651 156 685 163 668 160 b 425 117 525 122 489 117 b 197 239 303 117 229 156 z m 201 361 b 406 486 224 436 304 486 b 610 361 507 486 588 438 z m 418 814 l 261 947 b 222 967 243 964 236 967 b 174 917 196 967 174 944 b 207 868 174 899 176 894 l 418 690 l 628 868 b 661 917 658 894 661 897 b 614 967 661 944 639 967 b 574 947 600 967 592 963 z "},"ė":{"ha":833,"x_min":0,"x_max":0,"o":"m 764 239 l 764 293 b 404 625 764 485 611 625 b 46 300 201 625 46 483 b 413 -22 46 110 197 -22 b 715 31 513 -22 653 3 b 764 93 749 44 764 65 b 697 163 764 133 736 163 b 651 156 685 163 668 160 b 425 117 525 122 489 117 b 197 239 303 117 229 156 z m 201 361 b 406 486 224 436 304 486 b 610 361 507 486 588 438 z m 417 908 b 333 825 371 908 333 871 b 417 742 333 779 371 742 b 500 824 463 742 500 779 b 417 908 500 871 464 908 z "},"ę":{"ha":833,"x_min":0,"x_max":0,"o":"m 764 239 l 764 293 b 404 625 764 485 611 625 b 46 300 201 625 46 485 b 415 -22 46 108 197 -22 b 474 -19 432 -22 446 -22 b 393 -165 419 -58 393 -107 b 524 -289 393 -242 443 -289 b 640 -262 561 -289 603 -279 b 689 -203 674 -247 689 -228 b 636 -150 689 -174 665 -150 b 604 -158 625 -150 618 -151 b 532 -183 564 -179 551 -183 b 500 -156 511 -183 500 -174 b 706 26 500 -94 581 -24 b 764 93 747 43 764 63 b 697 163 764 133 736 163 b 651 156 685 163 668 160 b 425 117 525 122 489 117 b 197 239 303 117 229 156 z m 201 361 b 406 486 224 436 304 486 b 610 361 507 486 588 438 z "},"ğ":{"ha":833,"x_min":0,"x_max":0,"o":"m 569 557 b 374 626 515 603 449 626 b 46 303 188 626 46 488 b 374 -19 46 119 188 -19 b 569 49 446 -19 504 1 l 569 -28 b 439 -146 571 -99 517 -146 l 288 -146 b 229 -156 251 -146 242 -147 b 196 -215 208 -168 196 -192 b 224 -271 196 -237 206 -258 b 288 -285 238 -282 253 -285 l 443 -285 b 708 -28 594 -285 710 -172 l 708 468 l 731 468 b 790 479 763 468 778 471 b 822 538 810 492 822 514 b 794 594 822 560 813 581 b 731 607 781 604 768 607 l 569 607 z m 376 488 b 569 301 485 488 569 406 b 376 119 569 201 483 119 b 185 304 271 119 185 201 b 376 488 185 406 271 488 z m 221 954 b 174 901 192 954 174 933 b 417 699 174 794 289 699 b 660 901 544 699 660 794 b 613 954 660 933 642 954 b 565 899 585 954 575 942 b 417 793 551 835 493 793 b 268 899 340 793 282 835 b 221 954 258 942 249 954 z "},"ġ":{"ha":833,"x_min":0,"x_max":0,"o":"m 569 557 b 375 626 515 603 449 626 b 46 303 186 626 46 488 b 374 -19 46 119 188 -19 b 569 49 446 -19 504 1 l 569 -28 b 439 -146 571 -99 517 -146 l 288 -146 b 229 -156 251 -146 242 -147 b 196 -215 208 -168 196 -192 b 224 -271 196 -237 207 -258 b 288 -285 238 -282 253 -285 l 443 -285 b 708 -28 594 -285 710 -172 l 708 468 l 731 468 b 790 479 763 468 778 471 b 822 538 810 492 822 514 b 794 594 822 560 813 581 b 731 607 781 604 768 607 l 569 607 z m 376 488 b 569 301 485 488 569 406 b 376 119 569 201 482 119 b 185 304 271 119 185 201 b 376 488 185 406 271 488 z m 417 908 b 333 825 371 908 333 871 b 417 742 333 779 371 742 b 500 824 463 742 500 779 b 417 908 500 871 464 908 z "},"ĺ":{"ha":833,"x_min":0,"x_max":0,"o":"m 486 867 l 239 867 b 179 857 204 867 192 865 b 146 797 158 844 146 822 b 239 728 146 750 176 728 l 347 728 l 347 139 l 178 139 b 119 129 142 139 132 138 b 86 69 99 117 86 93 b 114 14 86 47 97 26 b 178 0 126 4 146 0 l 656 0 b 714 10 683 0 704 4 b 747 69 735 24 747 46 b 718 126 747 92 738 113 b 656 139 704 136 693 139 l 486 139 z m 628 1065 b 660 1115 651 1085 660 1097 b 608 1165 660 1143 638 1165 b 564 1144 593 1165 585 1161 l 379 989 b 347 939 357 971 347 956 b 399 889 347 911 371 889 b 443 911 411 889 424 894 z "},"ľ":{"ha":833,"x_min":0,"x_max":0,"o":"m 486 867 l 239 867 b 179 857 204 867 192 865 b 146 797 158 844 146 822 b 239 728 146 750 176 728 l 347 728 l 347 139 l 178 139 b 119 129 142 139 132 138 b 86 69 99 117 86 93 b 114 14 86 47 97 26 b 178 0 126 4 146 0 l 656 0 b 714 10 683 0 704 4 b 747 69 735 24 747 46 b 718 126 747 92 738 113 b 656 139 704 136 693 139 l 486 139 z m 718 792 b 736 833 729 810 736 825 b 686 885 736 863 714 885 b 633 849 664 885 653 876 l 519 675 b 503 629 508 657 503 642 b 554 582 503 604 526 582 b 604 618 574 582 588 592 z "},"ń":{"ha":833,"x_min":0,"x_max":0,"o":"m 271 607 l 140 607 b 90 601 111 607 103 606 b 47 538 65 593 47 565 b 132 468 47 493 78 469 l 132 139 l 124 139 b 65 129 89 139 78 136 b 32 69 44 117 32 93 b 60 14 32 47 43 26 b 124 0 74 4 90 0 l 279 0 b 371 69 340 0 371 24 b 343 126 371 92 361 113 b 279 139 329 136 317 139 l 271 139 l 271 392 b 444 486 336 463 381 486 b 569 386 531 486 569 456 l 569 139 b 485 69 515 139 485 114 b 578 0 485 24 515 0 l 701 0 b 793 69 763 0 793 24 b 708 139 793 114 763 139 l 708 392 b 626 574 708 474 682 532 b 461 625 581 607 524 625 b 271 540 383 625 339 604 z m 628 867 b 660 917 651 885 660 899 b 608 967 660 944 638 967 b 564 944 593 967 586 963 l 379 790 b 347 739 357 772 347 757 b 399 689 347 713 371 689 b 443 711 413 689 421 693 z "},"ň":{"ha":833,"x_min":0,"x_max":0,"o":"m 271 607 l 140 607 b 90 601 111 607 103 606 b 47 538 65 593 47 565 b 132 468 47 493 78 469 l 132 139 l 124 139 b 65 129 89 139 78 136 b 32 69 44 117 32 93 b 60 14 32 47 43 26 b 124 0 74 4 90 0 l 279 0 b 371 69 340 0 371 24 b 343 126 371 92 361 113 b 279 139 329 136 317 139 l 271 139 l 271 392 b 444 486 336 463 381 486 b 569 386 531 486 569 456 l 569 139 b 485 69 515 139 485 114 b 578 0 485 24 515 0 l 701 0 b 793 69 763 0 793 24 b 708 139 793 114 763 139 l 708 392 b 626 574 708 474 682 532 b 461 625 581 607 524 625 b 271 540 383 625 339 604 z m 418 814 l 261 947 b 222 967 243 964 236 967 b 174 917 196 967 174 944 b 207 868 174 899 176 894 l 418 690 l 628 868 b 661 917 658 894 661 897 b 614 967 661 944 639 967 b 574 947 600 967 592 963 z "},"ő":{"ha":833,"x_min":0,"x_max":0,"o":"m 421 625 b 58 301 215 625 58 485 b 417 -22 58 119 215 -22 b 775 301 618 -22 775 119 b 421 625 775 481 618 625 z m 419 486 b 636 301 540 486 636 404 b 417 117 636 197 540 117 b 197 301 293 117 197 197 b 419 486 197 407 293 486 z m 460 864 b 488 914 481 885 488 899 b 440 964 488 940 465 964 b 400 943 425 964 415 958 l 258 790 b 229 740 231 758 229 757 b 278 689 229 714 253 689 b 318 711 290 689 304 697 z m 688 864 b 715 914 714 894 715 896 b 668 964 715 940 693 964 b 628 943 653 964 643 958 l 486 790 b 457 740 457 757 457 757 b 506 689 457 714 481 689 b 546 711 518 689 532 696 z "},"ŕ":{"ha":833,"x_min":0,"x_max":0,"o":"m 386 607 l 199 607 b 140 596 175 607 149 603 b 107 538 119 583 107 561 b 135 482 107 515 117 494 b 199 468 149 471 164 468 l 247 468 l 247 139 l 167 139 b 108 129 131 139 121 138 b 75 69 88 117 75 93 b 103 14 75 47 86 26 b 167 0 115 4 135 0 l 579 0 b 639 10 608 0 629 4 b 672 69 660 24 672 46 b 643 126 672 92 663 113 b 579 139 629 136 618 139 l 386 139 l 386 343 b 615 485 515 450 572 485 b 669 460 635 485 649 478 b 724 435 690 442 704 435 b 793 506 761 435 793 467 b 754 571 793 531 783 547 b 618 624 711 607 667 624 b 386 517 549 624 501 601 z m 628 867 b 660 917 651 885 660 899 b 608 967 660 944 638 967 b 564 944 593 967 586 963 l 379 790 b 347 739 357 772 347 757 b 399 689 347 713 371 689 b 443 711 413 689 421 693 z "},"ś":{"ha":833,"x_min":0,"x_max":0,"o":"m 703 533 b 699 583 703 561 701 569 b 638 625 690 607 665 625 b 593 589 615 625 606 617 b 414 625 538 614 482 625 b 128 435 247 625 128 546 b 404 249 128 325 210 269 b 532 225 478 240 510 235 b 579 176 561 214 579 194 b 418 117 579 143 506 117 b 243 171 342 117 283 135 b 171 232 231 213 208 232 b 115 203 149 232 129 222 b 101 139 104 189 101 176 l 101 93 b 172 1 101 29 124 1 b 217 18 190 1 200 6 b 422 -22 272 -8 343 -22 b 732 174 601 -22 732 60 b 635 331 732 238 696 296 b 433 383 593 354 539 369 b 317 404 344 396 336 397 b 281 438 294 413 281 425 b 418 486 281 463 346 486 b 561 446 478 486 522 474 b 633 390 586 401 600 390 b 690 418 656 390 676 401 b 703 482 700 432 703 446 z m 628 867 b 660 917 651 885 660 899 b 608 967 660 944 638 967 b 564 944 593 967 586 963 l 379 790 b 347 739 357 772 347 757 b 399 689 347 713 371 689 b 443 711 413 689 421 693 z "},"ŝ":{"ha":833,"x_min":0,"x_max":0,"o":"m 703 533 b 699 583 703 561 701 569 b 638 625 690 607 665 625 b 593 589 615 625 606 617 b 414 625 538 614 482 625 b 128 435 247 625 128 546 b 404 249 128 325 210 269 b 532 225 478 240 510 235 b 579 176 561 214 579 194 b 418 117 579 143 506 117 b 243 171 342 117 283 135 b 171 232 231 213 208 232 b 115 203 149 232 129 222 b 101 139 104 189 101 176 l 101 93 b 172 1 101 29 124 1 b 217 18 190 1 200 6 b 422 -22 272 -8 343 -22 b 732 174 601 -22 732 60 b 635 331 732 238 696 296 b 433 383 593 354 539 369 b 317 404 344 396 336 397 b 281 438 294 413 281 425 b 418 486 281 463 346 486 b 561 446 478 486 522 474 b 633 390 586 401 600 390 b 690 418 656 390 676 401 b 703 482 700 432 703 446 z m 418 843 l 574 708 b 614 690 589 696 600 690 b 661 739 639 690 661 713 b 642 778 661 756 656 765 b 628 788 636 781 632 785 l 418 967 l 207 788 b 174 739 176 763 174 758 b 222 690 174 713 196 690 b 261 708 235 690 244 694 z "},"ș":{"ha":833,"x_min":0,"x_max":0,"o":"m 703 533 b 699 583 703 561 701 569 b 638 625 690 607 665 625 b 593 589 615 625 606 617 b 414 625 538 614 482 625 b 128 435 247 625 128 546 b 404 249 128 325 210 269 b 532 225 478 240 510 235 b 579 176 561 214 579 194 b 418 117 579 143 506 117 b 243 171 342 117 283 135 b 171 232 231 213 208 232 b 115 203 149 232 129 222 b 101 139 104 189 101 176 l 101 93 b 172 1 101 29 124 1 b 217 18 190 1 200 6 b 422 -22 272 -8 343 -22 b 732 174 601 -22 732 60 b 635 331 732 238 696 296 b 433 383 593 354 539 369 b 317 404 344 396 336 397 b 281 438 294 413 281 425 b 418 486 281 463 346 486 b 561 446 478 486 522 474 b 633 390 586 401 600 390 b 690 418 656 390 676 401 b 703 482 700 432 703 446 z m 469 -175 b 488 -133 481 -158 488 -143 b 438 -82 488 -106 465 -82 b 385 -118 415 -82 404 -90 l 271 -293 b 254 -337 260 -310 254 -325 b 306 -386 254 -364 278 -386 b 356 -350 325 -386 338 -378 z "},"ť":{"ha":833,"x_min":0,"x_max":0,"o":"m 297 607 l 297 729 b 288 788 297 765 296 775 b 228 821 275 808 251 821 b 172 793 206 821 185 811 b 158 729 161 779 158 765 l 158 607 l 110 607 b 51 597 74 607 64 606 b 18 538 31 585 18 561 b 46 482 18 515 29 494 b 110 468 60 471 75 468 l 158 468 l 158 169 b 415 -22 158 51 257 -22 b 665 33 489 -22 597 1 b 735 108 718 57 735 75 b 668 179 735 149 706 179 b 619 164 651 179 643 176 b 417 117 557 132 490 117 b 308 144 364 117 325 126 b 297 196 300 153 297 167 l 297 468 l 549 468 b 607 478 579 468 596 471 b 640 538 628 492 640 514 b 593 603 640 568 624 592 b 604 618 599 610 600 613 l 718 792 b 736 833 729 810 736 825 b 686 885 736 863 714 885 b 633 849 664 885 653 876 l 519 675 b 503 629 508 657 503 642 b 508 607 503 621 504 617 z "}}}
